<?xml version="1.0" encoding="utf-8"?>
<!-- Generator: Adobe Illustrator 16.0.0, SVG Export Plug-In . SVG Version: 6.00 Build 0)  -->
<!DOCTYPE svg PUBLIC "-//W3C//DTD SVG 1.1//EN" "http://www.w3.org/Graphics/SVG/1.1/DTD/svg11.dtd">
<svg version="1.1" id="Layer_1" xmlns="http://www.w3.org/2000/svg" xmlns:xlink="http://www.w3.org/1999/xlink" x="0px" y="0px"
	 width="20.184px" height="20.049px" viewBox="530.878 950.909 20.184 20.049"
	 enable-background="new 530.878 950.909 20.184 20.049" xml:space="preserve">
<g id="Layer_2">
	<path fill="#FFFFFF" d="M541.774,960.463l-9.337-9.327c-0.396-0.34-0.993-0.293-1.333,0.103c-0.303,0.354-0.303,0.875,0,1.229
		l8.562,8.562l-8.316,8.315c-0.366,0.369-0.366,0.965,0,1.333l0,0c0.368,0.37,0.966,0.373,1.337,0.006
		c0.001-0.002,0.003-0.004,0.005-0.006l9.082-9.081C542.069,961.287,542.055,960.787,541.774,960.463z"/>
	<path fill="#FFFFFF" d="M550.827,960.463l-9.337-9.327c-0.396-0.34-0.993-0.293-1.332,0.103c-0.303,0.354-0.303,0.875,0,1.229
		l8.562,8.562l-8.316,8.315c-0.366,0.369-0.366,0.965,0,1.333l0,0c0.369,0.366,0.964,0.366,1.333,0l9.091-9.081
		C551.14,961.284,551.14,960.776,550.827,960.463z"/>
</g>
</svg>
