<?xml version="1.0" encoding="utf-8"?>
<!-- Generator: Adobe Illustrator 16.0.0, SVG Export Plug-In . SVG Version: 6.00 Build 0)  -->
<!DOCTYPE svg PUBLIC "-//W3C//DTD SVG 1.1//EN" "http://www.w3.org/Graphics/SVG/1.1/DTD/svg11.dtd">
<svg version="1.1" id="Layer_1" xmlns="http://www.w3.org/2000/svg" xmlns:xlink="http://www.w3.org/1999/xlink" x="0px" y="0px"
	 width="20.184px" height="20.049px" viewBox="530.878 950.909 20.184 20.049"
	 enable-background="new 530.878 950.909 20.184 20.049" xml:space="preserve">
<g id="Layer_2">
	<path fill="#FFFFFF" d="M540.165,961.404l9.337,9.326c0.396,0.34,0.992,0.294,1.332-0.103c0.303-0.354,0.303-0.876,0-1.229
		l-8.562-8.562l8.316-8.315c0.366-0.369,0.366-0.965,0-1.333l0,0c-0.368-0.37-0.966-0.373-1.337-0.006
		c-0.002,0.002-0.004,0.004-0.006,0.006l-9.081,9.081C539.87,960.58,539.885,961.08,540.165,961.404z"/>
	<path fill="#FFFFFF" d="M531.112,961.404l9.337,9.326c0.396,0.34,0.992,0.294,1.332-0.103c0.303-0.354,0.303-0.876,0-1.229
		l-8.562-8.562l8.315-8.315c0.367-0.369,0.367-0.965,0-1.333l0,0c-0.368-0.366-0.964-0.366-1.332,0l-9.091,9.081
		C530.8,960.583,530.8,961.091,531.112,961.404z"/>
</g>
</svg>
