<?xml version="1.0" encoding="utf-8"?>
<!-- Generator: Adobe Illustrator 16.0.0, SVG Export Plug-In . SVG Version: 6.00 Build 0)  -->
<!DOCTYPE svg PUBLIC "-//W3C//DTD SVG 1.1//EN" "http://www.w3.org/Graphics/SVG/1.1/DTD/svg11.dtd">
<svg version="1.1" id="Layer_1" xmlns="http://www.w3.org/2000/svg" xmlns:xlink="http://www.w3.org/1999/xlink" x="0px" y="0px"
	 width="20.84px" height="16.031px" viewBox="405.58 503.985 20.84 16.031" enable-background="new 405.58 503.985 20.84 16.031"
	 xml:space="preserve">
<path fill="#FFFFFF" d="M408.786,508.794h-3.207v6.412h3.207l6.412,4.81h1.604v-16.031h-1.604L408.786,508.794z M419.069,509.733
	c-0.313-0.313-0.821-0.313-1.134,0s-0.313,0.821,0,1.133c0.626,0.626,0.626,1.642,0,2.268c-0.313,0.313-0.313,0.82,0,1.134
	c0.313,0.313,0.82,0.313,1.134,0C420.321,513.015,420.321,510.985,419.069,509.733z M421.336,507.466
	c-0.313-0.313-0.821-0.313-1.134,0s-0.313,0.82,0,1.134c1.878,1.878,1.878,4.923,0,6.802c-0.313,0.313-0.313,0.82,0,1.133
	c0.313,0.313,0.821,0.313,1.134,0C423.84,514.03,423.84,509.97,421.336,507.466z M423.603,505.199c-0.313-0.313-0.821-0.313-1.134,0
	s-0.313,0.82,0,1.134c3.13,3.13,3.13,8.205,0,11.335c-0.313,0.313-0.313,0.82,0,1.134c0.313,0.313,0.821,0.313,1.134,0
	C427.359,515.045,427.359,508.955,423.603,505.199z"/>
</svg>
