<?xml version="1.0" standalone="no"?>
<!DOCTYPE svg PUBLIC "-//W3C//DTD SVG 1.1//EN" "http://www.w3.org/Graphics/SVG/1.1/DTD/svg11.dtd" >
<svg xmlns="http://www.w3.org/2000/svg" xmlns:xlink="http://www.w3.org/1999/xlink" version="1.1">
<metadata>
Created by FontForge 20170731 at Mon Nov  9 10:50:55 2020
 By Aleksey,,,
(URW)++,Copyright 2006 by (URW)++ Design &#38; Development
</metadata>
<defs>
<font id="CorporateS-Light" horiz-adv-x="526" >
  <font-face 
    font-family="Corporate S Light"
    font-weight="300"
    font-stretch="normal"
    units-per-em="2048"
    panose-1="2 2 4 0 0 0 0 0 0 0"
    ascent="1638"
    descent="-410"
    x-height="969"
    cap-height="618"
    bbox="-317 -512 1782 1829"
    underline-thickness="100"
    underline-position="-298"
    unicode-range="U+0020-FB04"
  />
<missing-glyph horiz-adv-x="512" 
 />
    <glyph glyph-name="ff" unicode="ff" horiz-adv-x="1103" 
d="M727 969v63q0 112 6 155.5t27 84.5q28 55 84 86t127 31q57 0 131 -25v-109q-58 37 -123 37q-99 0 -127 -88q-16 -47 -16 -155v-80h245v-88h-237v-881h-117v881h-436v-881h-117v881h-139v88h139v63q0 109 6.5 154.5t26.5 85.5q31 56 86 86.5t127 30.5q55 0 131 -25v-109
q-63 37 -123 37q-47 0 -81 -23.5t-48 -64.5q-14 -43 -14 -155v-80h442z" />
    <glyph glyph-name="fi" unicode="fi" horiz-adv-x="974" 
d="M285 969h245v-88h-239v-881h-117v881h-139v88h139v63q0 109 6.5 154.5t26.5 85.5q31 56 86 86.5t127 30.5q57 0 131 -25v-109q-58 37 -123 37q-47 0 -81 -23.5t-48 -64.5q-14 -43 -14 -155v-80zM705 969h116v-969h-116v969zM764 1382q37 0 62.5 -26.5t25.5 -65.5
q0 -40 -24 -64t-64 -24t-66 25t-26 63t27 65t65 27z" />
    <glyph glyph-name="fl" unicode="fl" horiz-adv-x="974" 
d="M285 969h245v-88h-239v-881h-117v881h-139v88h139v63q0 109 6.5 154.5t26.5 85.5q31 56 86 86.5t127 30.5q57 0 131 -25v-109q-60 37 -123 37q-47 0 -81 -23.5t-48 -64.5q-14 -43 -14 -155v-80zM705 1370h116v-1370h-116v1370z" />
    <glyph glyph-name="ffi" unicode="ffi" horiz-adv-x="1525" 
d="M727 969v63q0 112 6 155.5t27 84.5q28 55 84 86t127 31q57 0 131 -25v-109q-58 37 -123 37q-99 0 -127 -88q-16 -47 -16 -155v-80h245v-88h-237v-881h-117v881h-436v-881h-117v881h-139v88h139v63q0 109 6.5 154.5t26.5 85.5q31 56 86 86.5t127 30.5q55 0 131 -25v-109
q-63 37 -123 37q-47 0 -81 -23.5t-48 -64.5q-14 -43 -14 -155v-80h442zM1255 969h117v-969h-117v969zM1315 1382q38 0 64 -27t26 -65t-26 -63t-64 -25q-40 0 -65 24t-25 64t26 66t64 26z" />
    <glyph glyph-name="ffl" unicode="ffl" horiz-adv-x="1525" 
d="M727 969v63q0 112 6 155.5t27 84.5q28 55 84 86t127 31q57 0 131 -25v-109q-58 37 -123 37q-99 0 -127 -88q-16 -47 -16 -155v-80h245v-88h-237v-881h-117v881h-436v-881h-117v881h-139v88h139v63q0 109 6.5 154.5t26.5 85.5q31 56 86 86.5t127 30.5q55 0 131 -25v-109
q-63 37 -123 37q-47 0 -81 -23.5t-48 -64.5q-14 -43 -14 -155v-80h442zM1255 1370h117v-1370h-117v1370z" />
    <glyph glyph-name=".notdef" horiz-adv-x="512" 
 />
    <glyph glyph-name=".null" horiz-adv-x="0" 
 />
    <glyph glyph-name="nonmarkingreturn" horiz-adv-x="682" 
 />
    <glyph glyph-name="space" unicode=" " horiz-adv-x="512" 
 />
    <glyph glyph-name="exclam" unicode="!" horiz-adv-x="507" 
d="M195 1343h116l-22 -983h-82zM254 188q41 0 72.5 -31.5t31.5 -74.5q0 -44 -31 -74.5t-75 -30.5q-43 0 -74 31t-31 74t32 74.5t75 31.5z" />
    <glyph glyph-name="quotedbl" unicode="&#x22;" horiz-adv-x="618" 
d="M223 819h-90l-16 547h123zM485 819h-90l-16 547h123z" />
    <glyph glyph-name="numbersign" unicode="#" horiz-adv-x="1228" 
d="M1100 537l-15 -95h-233l-70 -442h-106l69 442h-321l-72 -442h-104l69 442h-233l14 95h234l49 315h-231l14 94h233l66 420h106l-67 -420h323l68 420h104l-65 -420h233l-16 -94h-231l-52 -315h234zM811 852h-324l-49 -315h324z" />
    <glyph glyph-name="dollar" unicode="$" horiz-adv-x="1064" 
d="M565 1282v-522q177 -67 242 -113q156 -105 156 -293q0 -160 -108.5 -262.5t-289.5 -114.5v-137h-67v137q-186 9 -291 111.5t-111 280.5h115q8 -128 84.5 -205.5t202.5 -81.5v575q-12 4 -84 33q-87 34 -137 64.5t-82 70.5q-66 85 -66 201q0 151 101 249.5t268 110.5v127
h67v-124q151 -7 247.5 -90t102.5 -209h-122q-6 79 -68.5 131.5t-159.5 60.5zM498 786v496q-117 -12 -184.5 -78.5t-67.5 -167.5q0 -126 116 -190q24 -16 136 -60zM565 631v-549q128 12 202.5 81.5t74.5 176.5q0 65 -29.5 121.5t-81.5 91.5q-38 29 -166 78z" />
    <glyph glyph-name="percent" unicode="%" horiz-adv-x="1077" 
d="M891 1366h100l-807 -1366h-96zM784 643q106 0 178 -94.5t72 -233.5q0 -138 -73 -232.5t-179 -94.5q-103 0 -174 94.5t-71 232.5q0 141 70 234.5t177 93.5zM784 553q-63 0 -104 -67t-41 -171q0 -101 41.5 -169t101.5 -68q63 0 106.5 68.5t43.5 168.5q0 101 -42.5 169.5
t-105.5 68.5zM293 1378q104 0 176 -95t72 -234q0 -141 -71.5 -233.5t-178.5 -92.5q-106 0 -177 94t-71 234q0 137 72.5 232t177.5 95zM293 1288q-63 0 -105.5 -68.5t-42.5 -168.5q0 -101 42 -169.5t104 -68.5q64 0 105.5 66.5t41.5 169.5q0 102 -41.5 170.5t-103.5 68.5z
" />
    <glyph glyph-name="ampersand" unicode="&#x26;" horiz-adv-x="1220" 
d="M899 610h98q1 -132 -17.5 -216.5t-64.5 -155.5l175 -238h-136l-104 141q-72 -78 -155 -114.5t-193 -36.5q-182 0 -292 97.5t-110 258.5q0 120 61.5 210.5t223.5 209.5q-106 140 -135 197t-29 129q0 117 79.5 188.5t207.5 71.5q121 0 191.5 -65.5t70.5 -178.5
q0 -97 -52.5 -180t-176.5 -183l305 -415q50 84 53 280zM475 831q37 30 39 31q148 120 148 248q0 66 -43.5 106.5t-114.5 40.5q-77 0 -124.5 -42t-47.5 -111q0 -54 18.5 -90.5t102.5 -151.5q2 -3 22 -31zM786 227l-335 451q-101 -74 -148 -121q-40 -41 -63 -97.5t-23 -111.5
q0 -112 84 -188t207 -76q162 0 278 143z" />
    <glyph glyph-name="quotesingle" unicode="'" horiz-adv-x="512" 
d="M301 819h-90l-16 547h122z" />
    <glyph glyph-name="parenleft" unicode="(" horiz-adv-x="557" 
d="M406 1376h83q-106 -137 -162.5 -367t-56.5 -526q0 -586 219 -893h-83q-122 141 -185 368.5t-63 524.5q0 299 64 530t184 363z" />
    <glyph glyph-name="parenright" unicode=")" horiz-adv-x="557" 
d="M152 -410h-84q219 305 219 893q0 300 -56 528.5t-163 364.5h84q121 -131 184 -360.5t63 -532.5q0 -607 -247 -893z" />
    <glyph glyph-name="asterisk" unicode="*" horiz-adv-x="1024" 
d="M467 1077v254h92v-254l242 78l28 -88l-241 -78l149 -207l-75 -53l-148 205l-149 -205l-76 55l149 205l-241 78l28 88z" />
    <glyph glyph-name="plus" unicode="+" horiz-adv-x="1064" 
d="M571 727h381v-78h-381v-393h-82v393h-378v78h378v393h82v-393z" />
    <glyph glyph-name="comma" unicode="," horiz-adv-x="479" 
d="M207 -244h-129q145 135 160 240h-21q-40 0 -68 29.5t-28 72.5q0 44 32.5 76.5t77.5 32.5q54 0 87.5 -38.5t33.5 -100.5q0 -142 -145 -312z" />
    <glyph glyph-name="hyphen" unicode="-" horiz-adv-x="571" 
d="M0 559h571v-88h-571v88z" />
    <glyph glyph-name="period" unicode="." 
d="M264 188q42 0 73.5 -32t31.5 -74q0 -44 -31.5 -74.5t-75.5 -30.5q-43 0 -73.5 31t-30.5 74t31.5 74.5t74.5 31.5z" />
    <glyph glyph-name="slash" unicode="/" horiz-adv-x="1177" 
d="M135 -272l783 1638h126l-782 -1638h-127z" />
    <glyph glyph-name="zero" unicode="0" horiz-adv-x="1064" 
d="M537 1350q192 0 303.5 -184t111.5 -500q0 -350 -143 -549q-48 -63 -119.5 -98t-157.5 -35t-158 35t-120 98q-143 199 -143 545q0 324 112.5 506t313.5 182zM537 1251q-149 0 -228.5 -151.5t-79.5 -437.5q0 -278 88 -449q34 -63 89.5 -97t125.5 -34q143 0 213 131
q89 176 89 453q0 276 -78.5 430.5t-218.5 154.5z" />
    <glyph glyph-name="one" unicode="1" horiz-adv-x="1064" 
d="M250 1067v82q124 4 187 49t85 145h78v-1343h-108v1067h-242z" />
    <glyph glyph-name="two" unicode="2" horiz-adv-x="1064" 
d="M289 942h-111q3 198 100.5 303t280.5 105q156 0 253 -87t97 -227q0 -89 -37.5 -165t-169.5 -250q-285 -383 -385 -521h615v-100h-756v88q48 61 123 166q6 8 32 43t81 109.5t112 152.5q186 254 217 305q50 90 50 170q0 95 -66 154t-172 59q-80 0 -140 -37t-91 -104
q-27 -59 -33 -164z" />
    <glyph glyph-name="three" unicode="3" horiz-adv-x="1064" 
d="M268 995h-104q9 169 104.5 262t261.5 93q160 0 258.5 -89.5t98.5 -234.5q0 -207 -197 -297q126 -46 186 -128.5t60 -211.5q0 -184 -113 -295.5t-299 -111.5t-293.5 99t-107.5 269v23h104q3 -139 78 -214t211 -75q140 0 220.5 79.5t80.5 217.5q0 135 -81.5 211t-227.5 76
q-20 0 -55 -4v106l55 -2q120 0 190 67.5t70 182.5q0 106 -65.5 167.5t-178.5 61.5q-114 0 -175.5 -61.5t-80.5 -190.5z" />
    <glyph glyph-name="four" unicode="4" horiz-adv-x="1064" 
d="M743 442h230v-104h-228v-350h-114v350h-545v86l551 919h106v-901zM633 442l6 736l-438 -736h432z" />
    <glyph glyph-name="five" unicode="5" horiz-adv-x="1064" 
d="M281 1331h591l-18 -100h-475l-60 -434q90 106 240 106q172 0 276.5 -119.5t104.5 -318.5q0 -165 -78 -293q-114 -188 -336 -188q-154 0 -250 85.5t-106 233.5h106q19 -108 82.5 -164.5t165.5 -56.5q134 0 216.5 105.5t82.5 275.5q0 152 -73.5 244t-196.5 92
q-88 0 -146.5 -37.5t-101.5 -120.5l-106 10z" />
    <glyph glyph-name="six" unicode="6" horiz-adv-x="1064" 
d="M678 1366h127q-239 -258 -395 -524q82 47 170 47q157 0 259.5 -126.5t102.5 -320.5q0 -206 -104.5 -332t-276.5 -126q-170 0 -277.5 127t-107.5 329q0 397 502 926zM563 791q-121 0 -194.5 -98t-73.5 -259q0 -157 73 -254.5t191 -97.5q119 0 191.5 97t72.5 257
q0 157 -72.5 256t-187.5 99z" />
    <glyph glyph-name="seven" unicode="7" horiz-adv-x="1064" 
d="M209 1331h805v-100l-658 -1231h-129l660 1227h-678v104z" />
    <glyph glyph-name="eight" unicode="8" horiz-adv-x="1064" 
d="M348 700q-166 81 -166 293q0 151 101 254t249 103t248.5 -102.5t100.5 -254.5q0 -213 -164 -293q203 -108 203 -342q0 -166 -108 -270t-280 -104t-279.5 103.5t-107.5 270.5q0 235 203 342zM535 1251q-105 0 -169.5 -70.5t-64.5 -185.5q0 -111 65 -182.5t166 -71.5
q102 0 166 71t64 185q0 113 -63 183.5t-164 70.5zM537 647q-126 0 -199.5 -76t-73.5 -206q0 -129 73 -206t195 -77q121 0 195 77.5t74 205.5q0 126 -73 204t-191 78z" />
    <glyph glyph-name="nine" unicode="9" horiz-adv-x="1064" 
d="M385 -35h-127q246 270 395 524q-84 -47 -170 -47q-155 0 -258.5 127.5t-103.5 319.5q0 205 106 333t275 128q170 0 277.5 -127.5t107.5 -329.5q0 -201 -120 -422.5t-382 -505.5zM504 1251q-117 0 -190.5 -99t-73.5 -257q0 -155 73.5 -254.5t188.5 -99.5q120 0 193 97.5
t73 258.5q0 157 -73.5 255.5t-190.5 98.5z" />
    <glyph glyph-name="colon" unicode=":" 
d="M264 188q42 0 73.5 -32t31.5 -74q0 -44 -31.5 -74.5t-75.5 -30.5q-43 0 -73.5 31t-30.5 74t31.5 74.5t74.5 31.5zM264 969q41 0 73 -33t32 -74q0 -44 -30.5 -74t-76.5 -30q-43 0 -73.5 29.5t-30.5 72.5t32 76t74 33z" />
    <glyph glyph-name="semicolon" unicode=";" horiz-adv-x="479" 
d="M227 969q43 0 74 -32t31 -75q0 -45 -30 -74.5t-75 -29.5q-44 0 -75 30t-31 72q0 43 32.5 76t73.5 33zM207 -244h-129q145 135 160 240h-21q-40 0 -68 29.5t-28 72.5q0 44 32.5 76.5t77.5 32.5q54 0 87.5 -38.5t33.5 -100.5q0 -142 -145 -312z" />
    <glyph glyph-name="less" unicode="&#x3c;" horiz-adv-x="1024" 
d="M954 1137v-107l-772 -344l772 -342v-106l-886 401v96z" />
    <glyph glyph-name="equal" unicode="=" horiz-adv-x="1064" 
d="M111 854h841v-82h-841v82zM111 604h841v-82h-841v82z" />
    <glyph glyph-name="greater" unicode="&#x3e;" horiz-adv-x="1024" 
d="M70 238v106l772 342l-772 344v107l886 -404v-94z" />
    <glyph glyph-name="question" unicode="?" horiz-adv-x="839" 
d="M369 188q41 0 72.5 -31.5t31.5 -74.5q0 -44 -30 -74.5t-74 -30.5t-75.5 31t-31.5 74q0 42 32 74t75 32zM426 367h-111v24l-2 101q0 132 22 183t124 154q80 82 109.5 133.5t29.5 108.5q0 78 -49.5 124t-134.5 46q-100 0 -152.5 -50.5t-64.5 -156.5h-103q8 151 92 233.5
t232 82.5q139 0 221 -77t82 -206q0 -80 -36.5 -143t-141.5 -162q-83 -79 -101 -128.5t-18 -193.5q0 -22 2 -49v-24z" />
    <glyph glyph-name="at" unicode="@" horiz-adv-x="1501" 
d="M1030 1012h84l-86 -445q-12 -59 -12 -98q0 -47 23.5 -74.5t64.5 -27.5q63 0 119 56.5t89.5 152t33.5 202.5q0 121 -43 224.5t-121 171.5q-73 64 -180.5 101.5t-217.5 37.5q-174 0 -317 -82.5t-224 -227t-81 -321.5q0 -124 44 -241t124 -203q170 -185 479 -185
q221 0 444 107l27 -76q-221 -109 -473 -109q-339 0 -537 201q-93 94 -145.5 229t-52.5 279q0 199 92.5 361t256 254t365.5 92q186 0 333.5 -78t230 -217t82.5 -314q0 -129 -46 -242t-123.5 -180t-164.5 -67q-65 0 -104.5 38t-43.5 105q-96 -149 -256 -149q-126 0 -206 92.5
t-80 238.5q0 175 104.5 297.5t253.5 122.5q174 0 235 -174zM768 952q-109 0 -185.5 -98t-76.5 -236q0 -117 54.5 -183t148.5 -66q110 0 182 101t72 257q0 107 -51.5 166t-143.5 59z" />
    <glyph glyph-name="A" unicode="A" horiz-adv-x="1134" 
d="M522 1376h90l473 -1376h-122l-134 387h-524l-135 -387h-121zM795 489l-228 721l-229 -721h457z" />
    <glyph glyph-name="B" unicode="B" horiz-adv-x="1099" 
d="M180 1366h211q145 0 213.5 -6.5t126.5 -26.5q98 -34 154.5 -115.5t56.5 -191.5q0 -231 -229 -301q153 -38 226 -123t73 -225q0 -124 -60 -217t-161 -125q-64 -21 -143.5 -28t-256.5 -7h-211v1366zM297 764h133q111 0 173.5 10.5t109.5 38.5q48 30 78 88t30 123
q0 75 -37.5 132.5t-101.5 80.5q-40 17 -90.5 22t-165.5 5h-129v-500zM297 102h143q131 0 198 8t116 29q60 26 95.5 92t35.5 152q0 91 -47 159.5t-127 94.5q-88 25 -273 25h-141v-560z" />
    <glyph glyph-name="C" unicode="C" horiz-adv-x="1232" 
d="M1110 1010h-115q-34 139 -116 206.5t-217 67.5q-192 0 -305 -162.5t-113 -437.5q0 -280 113 -441t309 -161q153 0 243.5 93.5t110.5 273.5h113q-22 -224 -142.5 -348t-318.5 -124q-256 0 -405.5 189.5t-149.5 513.5q0 323 149 516t398 193q184 0 301 -99.5t145 -279.5z
" />
    <glyph glyph-name="D" unicode="D" horiz-adv-x="1269" 
d="M180 1366h174q219 0 314.5 -15.5t181.5 -64.5q142 -79 223.5 -240t81.5 -362q0 -212 -87.5 -374t-242.5 -240q-85 -43 -177 -56.5t-302 -13.5h-166v1366zM297 102h92q183 0 254 12.5t148 57.5q115 70 176 201.5t61 308.5q0 191 -69.5 329t-196.5 201q-70 33 -143.5 42.5
t-258.5 9.5h-63v-1162z" />
    <glyph glyph-name="E" unicode="E" horiz-adv-x="1003" 
d="M297 758h557v-103h-557v-553h606v-102h-723v1366h715v-102h-598v-506z" />
    <glyph glyph-name="F" unicode="F" horiz-adv-x="976" 
d="M297 758h557v-103h-557v-655h-117v1366h715v-102h-598v-506z" />
    <glyph glyph-name="G" unicode="G" horiz-adv-x="1259" 
d="M735 670h391v-559q-182 -134 -430 -134q-275 0 -427 186.5t-152 520.5q0 325 150 515t407 190q182 0 294 -98t140 -281h-115q-37 141 -115 207.5t-208 66.5q-198 0 -312 -160t-114 -440q0 -339 166 -500q105 -102 284 -102q157 0 320 88v389h-279v111z" />
    <glyph glyph-name="H" unicode="H" horiz-adv-x="1267" 
d="M297 764h674v602h116v-1366h-116v668h-674v-668h-117v1366h117v-602z" />
    <glyph glyph-name="I" unicode="I" horiz-adv-x="475" 
d="M297 0h-121v1366h121v-1366z" />
    <glyph glyph-name="J" unicode="J" horiz-adv-x="557" 
d="M260 1366h121v-1090q0 -127 -5 -173t-24 -87q-32 -76 -115.5 -119.5t-197.5 -43.5q-23 0 -41 2v102q10 -2 20 -2q4 1 62 8q129 12 166 119q9 26 11.5 62.5t2.5 134.5v1087z" />
    <glyph glyph-name="K" unicode="K" horiz-adv-x="1097" 
d="M870 1366h146l-572 -651l633 -715h-168l-610 713zM180 1366h117v-1366h-117v1366z" />
    <glyph glyph-name="L" unicode="L" horiz-adv-x="946" 
d="M180 1366h121v-1264h582v-102h-703v1366z" />
    <glyph glyph-name="M" unicode="M" horiz-adv-x="1560" 
d="M180 1366h189l411 -1235l412 1235h188v-1366h-116v1260l-424 -1260h-117l-426 1260v-1260h-117v1366z" />
    <glyph glyph-name="N" unicode="N" horiz-adv-x="1284" 
d="M180 1366h129l688 -1196v1196h109v-1366h-135l-680 1192v-1192h-111v1366z" />
    <glyph glyph-name="O" unicode="O" horiz-adv-x="1304" 
d="M653 1389q236 0 386.5 -197.5t150.5 -507.5q0 -312 -150.5 -509.5t-386.5 -197.5q-239 0 -387.5 198t-148.5 517q0 304 151.5 500.5t384.5 196.5zM653 1284q-116 0 -210 -76.5t-146.5 -212.5t-52.5 -305q0 -269 114 -438.5t295 -169.5q118 0 211.5 77t146 214.5
t52.5 310.5q0 261 -116 430.5t-294 169.5z" />
    <glyph glyph-name="P" unicode="P" horiz-adv-x="1050" 
d="M180 1366h195q154 0 233 -7.5t140 -27.5q110 -37 173.5 -134.5t63.5 -231.5q0 -121 -50 -209.5t-144 -132.5q-65 -29 -144 -39.5t-244 -10.5h-106v-573h-117v1366zM297 676h102q171 0 258 18q98 20 149.5 89.5t51.5 183.5q0 97 -41 166.5t-115 97.5q-53 22 -112 27.5
t-219 5.5h-74v-588z" />
    <glyph glyph-name="Q" unicode="Q" horiz-adv-x="1318" 
d="M1092 256l262 -279h-146l-180 183q-148 -183 -375 -183q-236 0 -386 197.5t-150 509.5q0 205 68 365.5t190 250t278 89.5q236 0 386.5 -197.5t150.5 -507.5q0 -248 -98 -428zM653 1284q-116 0 -210 -76.5t-146.5 -212.5t-52.5 -305q0 -269 114 -438.5t295 -169.5
q118 0 211.5 77t146 214.5t52.5 310.5q0 261 -116 430.5t-294 169.5z" />
    <glyph glyph-name="R" unicode="R" horiz-adv-x="1130" 
d="M180 1366h209q159 0 227.5 -7t135.5 -30q106 -34 167.5 -124.5t61.5 -213.5q0 -269 -295 -368l375 -623h-143l-367 606h-254v-606h-117v1366zM297 709h96q137 0 190.5 5t104.5 23q79 28 122.5 94.5t43.5 161.5q0 86 -38 150t-105 90q-50 19 -110.5 25t-205.5 6h-98v-555z
" />
    <glyph glyph-name="S" unicode="S" horiz-adv-x="1107" 
d="M940 1028h-115q-12 124 -83.5 190t-194.5 66q-114 0 -190 -65t-76 -162q0 -96 86 -160q34 -25 66 -41.5t183 -85.5q124 -58 190 -101t101 -89q74 -92 74 -224q0 -169 -119.5 -274t-310.5 -105q-232 0 -348 150q-42 55 -62 116.5t-24 155.5h116q8 -152 91 -234.5
t231 -82.5q133 0 218 74.5t85 191.5q0 108 -78 180q-31 29 -72 53.5t-130 65.5q-217 98 -285 148q-131 96 -131 254q0 148 111.5 244t281.5 96q173 0 274.5 -95.5t110.5 -265.5z" />
    <glyph glyph-name="T" unicode="T" horiz-adv-x="921" 
d="M49 1366h823v-102h-352v-1264h-117v1264h-354v102z" />
    <glyph glyph-name="U" unicode="U" horiz-adv-x="1245" 
d="M160 1366h116v-811q1 -187 11 -245.5t47 -108.5q41 -56 118 -87.5t171 -31.5q114 0 198.5 43.5t118.5 118.5q20 43 24.5 93t6.5 218v811h116v-813q0 -173 -4 -220.5t-22 -99.5q-43 -122 -157.5 -189t-280.5 -67q-164 0 -279 67.5t-158 188.5q-18 52 -22 99.5t-4 220.5
v813z" />
    <glyph glyph-name="V" unicode="V" horiz-adv-x="1116" 
d="M33 1366h123l409 -1229l402 1229h120l-471 -1378h-114z" />
    <glyph glyph-name="W" unicode="W" horiz-adv-x="1527" 
d="M43 1366h113l264 -1196l295 1196h100l293 -1196l268 1196h113l-318 -1378h-120l-287 1128l-285 -1128h-121z" />
    <glyph glyph-name="X" unicode="X" horiz-adv-x="1083" 
d="M68 1366h135l340 -557l340 557h137l-410 -649l430 -717h-133l-364 604l-363 -604h-133l428 717z" />
    <glyph glyph-name="Y" unicode="Y" horiz-adv-x="1013" 
d="M33 1366h137l340 -670l336 670h137l-420 -780l2 -586h-114l2 586z" />
    <glyph glyph-name="Z" unicode="Z" horiz-adv-x="1003" 
d="M106 1366h826v-80l-727 -1184h715v-102h-852v90l718 1174h-680v102z" />
    <glyph glyph-name="bracketleft" unicode="[" horiz-adv-x="557" 
d="M199 1366h272v-90h-166v-1583h166v-90h-272v1763z" />
    <glyph glyph-name="backslash" unicode="\" horiz-adv-x="1177" 
d="M1044 -272h-126l-783 1638h127z" />
    <glyph glyph-name="bracketright" unicode="]" horiz-adv-x="557" 
d="M358 -397h-272v90h166v1583h-166v90h272v-1763z" />
    <glyph glyph-name="asciicircum" unicode="^" horiz-adv-x="1024" 
d="M186 770h-118l374 598h140l374 -598h-118l-328 514z" />
    <glyph glyph-name="underscore" unicode="_" horiz-adv-x="1024" 
d="M0 -147h1024v-101h-1024v101z" />
    <glyph glyph-name="grave" unicode="`" horiz-adv-x="1024" 
d="M621 1145h-97l-270 262h170z" />
    <glyph glyph-name="a" unicode="a" horiz-adv-x="948" 
d="M244 727h-111q13 132 101.5 200t242.5 68q117 0 196.5 -43.5t104.5 -120.5q19 -61 19 -208v-355q0 -134 3.5 -174.5t20.5 -93.5h-106q-18 63 -25 137q-90 -162 -287 -162q-137 0 -220 76.5t-83 202.5q0 158 132.5 243t457.5 134v51q0 118 -49 167.5t-166 49.5
q-202 0 -231 -172zM690 436v111q-267 -52 -372 -116t-105 -173q0 -83 55 -134.5t144 -51.5q75 0 138 35.5t97 95.5q43 76 43 233z" />
    <glyph glyph-name="b" unicode="b" horiz-adv-x="1011" 
d="M154 1370h106v-547q52 89 120 130.5t161 41.5q169 0 270.5 -138.5t101.5 -367.5q0 -230 -105.5 -372t-277.5 -142q-89 0 -153.5 39t-116.5 125v-28q0 -56 -16 -111h-111q12 42 16.5 98t4.5 183v1089zM543 899q-129 0 -207 -115t-78 -305q0 -182 75.5 -294.5t198.5 -112.5
q121 0 196 114.5t75 300.5t-71 299t-189 113z" />
    <glyph glyph-name="c" unicode="c" horiz-adv-x="956" 
d="M846 655h-107q-19 119 -79 181.5t-158 62.5q-130 0 -210.5 -115t-80.5 -301q0 -184 81.5 -297.5t213.5 -113.5q102 0 164.5 67t74.5 189h111q-17 -170 -106 -261.5t-238 -91.5q-187 0 -299.5 138t-112.5 368q0 232 110.5 373t293.5 141q149 0 238 -88.5t104 -251.5z" />
    <glyph glyph-name="d" unicode="d" horiz-adv-x="1011" 
d="M858 1370v-1089q0 -129 4.5 -184.5t16.5 -96.5h-111q-16 57 -16 111v28q-53 -86 -116.5 -125t-154.5 -39q-173 0 -278 137.5t-105 364.5q0 235 102 376.5t271 141.5q194 0 281 -172v547h106zM485 899q-119 0 -184 -86q-43 -60 -67.5 -148t-24.5 -184q0 -92 24.5 -178
t67.5 -145q31 -40 78.5 -63t101.5 -23q125 0 199 112t74 299q0 189 -73.5 302.5t-195.5 113.5z" />
    <glyph glyph-name="e" unicode="e" horiz-adv-x="974" 
d="M874 473h-661q5 -195 80.5 -298t214.5 -103q84 0 138.5 36.5t98.5 122.5l105 -18q-90 -238 -342 -238q-189 0 -298.5 134t-109.5 366q0 238 108 379t290 141q172 0 274 -131t102 -352v-39zM215 561h545q-9 161 -79 249.5t-187 88.5q-115 0 -187.5 -88t-91.5 -250z" />
    <glyph glyph-name="f" unicode="f" horiz-adv-x="550" 
d="M285 969h245v-88h-239v-881h-117v881h-139v88h139v63q0 115 7 160t30 86q29 52 84 81.5t123 29.5q53 0 133 -25v-109q-60 37 -123 37q-100 0 -131 -88q-12 -40 -12 -155v-80z" />
    <glyph glyph-name="g" unicode="g" horiz-adv-x="958" 
d="M911 969v-86l-198 6q46 -40 71 -102t25 -136q0 -67 -24.5 -126.5t-67.5 -94.5q-31 -26 -71.5 -41t-156.5 -47q-110 -30 -156.5 -57t-45.5 -62q1 -31 34.5 -42t155.5 -23q143 -13 203 -26t111 -40q59 -34 90.5 -90.5t31.5 -128.5q0 -135 -115 -214t-311 -79
q-190 0 -304.5 76.5t-114.5 204.5q0 88 49 145.5t157 95.5q-54 20 -78 46.5t-24 64.5q0 51 39.5 87t134.5 71q-203 73 -203 280q0 148 93.5 237t248.5 89q68 0 140 -19zM485 887q-104 0 -166.5 -63.5t-62.5 -168.5q0 -98 60.5 -158.5t160.5 -60.5q98 0 159.5 61t61.5 158
q0 100 -60.5 166t-152.5 66zM487 47q-149 0 -233 -48t-84 -134q0 -85 87 -136t232 -51q149 0 233.5 49.5t84.5 137.5q0 89 -81.5 135.5t-238.5 46.5z" />
    <glyph glyph-name="h" unicode="h" horiz-adv-x="993" 
d="M154 1370h106v-516q57 76 121.5 108.5t157.5 32.5q89 0 157 -33.5t105 -95.5q26 -43 34.5 -103t8.5 -208v-555h-107v563q0 116 -5.5 162t-24.5 80q-54 94 -179 94q-130 0 -199 -91t-69 -263v-545h-106v1370z" />
    <glyph glyph-name="i" unicode="i" horiz-adv-x="423" 
d="M154 969h116v-969h-116v969zM211 1382q38 0 64 -26t26 -66q0 -38 -25 -63t-63 -25q-40 0 -66 25t-26 63t26.5 65t63.5 27z" />
    <glyph glyph-name="j" unicode="j" horiz-adv-x="501" 
d="M231 969h117v-903q0 -149 -10 -215t-39 -113q-76 -125 -287 -125q-19 0 -39 2h-20v96q29 -2 37 -2q154 0 205 82q22 35 29 90t7 185v903zM289 1382q38 0 63 -26t25 -66t-24 -64t-64 -24t-66 25t-26 63t27 65t65 27z" />
    <glyph glyph-name="k" unicode="k" horiz-adv-x="948" 
d="M690 969h131l-418 -432l447 -537h-152l-434 532zM154 1370h106v-1370h-106v1370z" />
    <glyph glyph-name="l" unicode="l" horiz-adv-x="423" 
d="M154 1370h116v-1370h-116v1370z" />
    <glyph glyph-name="m" unicode="m" horiz-adv-x="1517" 
d="M131 969h105q18 -53 18 -135q41 83 108 122t168 39q105 0 168 -41t97 -131q85 172 295 172q175 0 241 -116q25 -41 32 -91t7 -184v-604h-106v604q0 106 -5.5 144.5t-25.5 70.5q-47 80 -170 80q-145 0 -209 -119q-37 -67 -37 -198v-582h-108v582q0 107 -4.5 149t-18.5 74
q-45 94 -174 94q-66 0 -120.5 -28.5t-86.5 -79.5q-45 -74 -45 -218v-573h-106v645q0 167 -4 225q-4 40 -19 99z" />
    <glyph glyph-name="n" unicode="n" horiz-adv-x="1005" 
d="M131 969h105q18 -58 18 -146q97 172 297 172q106 0 179 -43t101 -121q17 -46 21 -88t4 -188v-555h-106v563q0 118 -5 161.5t-24 80.5q-48 94 -178 94q-132 0 -207.5 -91t-75.5 -251v-557h-106v645q0 175 -3 216t-20 108z" />
    <glyph glyph-name="o" unicode="o" horiz-adv-x="1009" 
d="M506 995q181 0 293 -141t112 -369q0 -226 -112.5 -368t-292.5 -142q-183 0 -294.5 142t-111.5 375q0 223 113 363t293 140zM506 899q-131 0 -213 -114.5t-82 -295.5q0 -187 81.5 -302t213.5 -115q129 0 212 116t83 297q0 183 -82.5 298.5t-212.5 115.5z" />
    <glyph glyph-name="p" unicode="p" horiz-adv-x="1011" 
d="M154 -403v1089q0 129 -4.5 185t-16.5 98h111q9 -30 12 -56t6 -96q50 93 117 136.5t162 43.5q166 0 268 -143t102 -375q0 -230 -98 -367t-264 -137q-186 0 -287 166v-544h-108zM537 901q-123 0 -201 -116t-78 -300t78 -298.5t203 -114.5q123 0 192.5 107.5t69.5 299.5
q0 191 -72 306.5t-192 115.5z" />
    <glyph glyph-name="q" unicode="q" horiz-adv-x="1011" 
d="M750 -403v544q-102 -166 -277 -166q-169 0 -271 136.5t-102 361.5q0 235 104.5 378.5t274.5 143.5q99 0 161.5 -40.5t109.5 -135.5q2 94 18 150h111q-12 -41 -16.5 -97t-4.5 -186v-1089h-108zM481 899q-122 0 -196 -117t-74 -309q0 -183 70.5 -292t189.5 -109
q127 0 205 113.5t78 299.5q0 187 -75 300.5t-198 113.5z" />
    <glyph glyph-name="r" unicode="r" horiz-adv-x="634" 
d="M139 969h101q16 -78 16 -148q0 -34 -2 -61q51 125 109 180t137 55q69 0 129 -32v-107q-49 22 -73 28.5t-52 6.5q-57 0 -108.5 -42.5t-86.5 -117.5q-47 -105 -47 -303v-428h-108v623q0 152 -2.5 206t-12.5 140z" />
    <glyph glyph-name="s" unicode="s" horiz-adv-x="866" 
d="M756 711h-105q-11 97 -62 142.5t-149 45.5q-90 0 -147 -45.5t-57 -116.5q0 -62 46.5 -98t176.5 -74q122 -37 176.5 -62.5t85.5 -60.5q55 -64 55 -170q0 -135 -92 -216t-246 -81q-164 0 -254 82.5t-90 233.5h105q11 -107 71.5 -163t167.5 -56q101 0 163.5 52.5t62.5 137.5
t-64 127q-25 18 -56.5 30t-160.5 52q-152 47 -201 104q-57 67 -57 158q0 117 87.5 189.5t227.5 72.5q149 0 229.5 -72t86.5 -212z" />
    <glyph glyph-name="t" unicode="t" horiz-adv-x="612" 
d="M311 969h242v-88h-244l-10 -531l-2 -86v-24q0 -97 23.5 -131.5t89.5 -34.5q70 0 139 32v-98q-74 -26 -158 -26q-111 0 -159 45t-48 149q0 21 4 103l2 77l13 525h-146v88h148l4 280h106z" />
    <glyph glyph-name="u" unicode="u" horiz-adv-x="978" 
d="M150 969h106v-604q0 -91 7.5 -136t29.5 -77q26 -37 72.5 -58.5t101.5 -21.5q66 0 121 31.5t90 89.5q43 71 43 219v557h106v-676q0 -165 3 -204t20 -89h-109q-20 64 -20 137q-41 -85 -102 -123.5t-154 -38.5q-94 0 -170 42t-113 114q-20 39 -26 86t-6 152v600z" />
    <glyph glyph-name="v" unicode="v" horiz-adv-x="835" 
d="M20 969h113l285 -852l287 852h108l-342 -983h-109z" />
    <glyph glyph-name="w" unicode="w" horiz-adv-x="1292" 
d="M33 969h112l217 -795l236 795h98l236 -795l217 795h113l-279 -983h-98l-238 821l-237 -821h-99z" />
    <glyph glyph-name="x" unicode="x" horiz-adv-x="862" 
d="M68 969h122l244 -371l246 371h131l-311 -455l348 -514h-129l-285 428l-291 -428h-127l353 514z" />
    <glyph glyph-name="y" unicode="y" horiz-adv-x="854" 
d="M33 969h114l279 -830l289 830h112l-315 -887q-65 -186 -92 -247.5t-64 -113.5q-94 -129 -268 -129h-35v97q69 -1 110.5 10t78 47t63.5 94t62 162z" />
    <glyph glyph-name="z" unicode="z" horiz-adv-x="796" 
d="M84 969h676v-76l-590 -805h573v-88h-698v84l582 797h-543v88z" />
    <glyph glyph-name="braceleft" unicode="{" horiz-adv-x="557" 
d="M313 1071v-348q0 -99 -23.5 -150t-88.5 -90q66 -40 89 -89.5t23 -149.5v-348q0 -131 38.5 -176t150.5 -46v-84h-21q-152 0 -211 72.5t-59 257.5v324q0 92 -26.5 137.5t-90.5 64.5v74q65 20 91 65.5t26 137.5v326q0 184 60 256.5t212 72.5q11 0 19 -2v-82
q-114 -3 -151.5 -47t-37.5 -176z" />
    <glyph glyph-name="bar" unicode="|" horiz-adv-x="1024" 
d="M459 1366h106v-1708h-106v1708z" />
    <glyph glyph-name="braceright" unicode="}" horiz-adv-x="557" 
d="M244 -104v348q0 100 23 149.5t89 89.5q-65 39 -88.5 90t-23.5 150v348q0 132 -37.5 176t-151.5 47v82q8 2 19 2q152 0 212 -72.5t60 -256.5v-324q0 -93 26 -138t91 -67v-74q-65 -20 -91 -65t-26 -137v-324q0 -185 -59 -257.5t-211 -72.5h-21v84q112 1 150.5 46t38.5 176z
" />
    <glyph glyph-name="asciitilde" unicode="~" horiz-adv-x="1366" 
d="M260 459l-67 43q60 116 123 166.5t147 50.5q80 0 235 -78q147 -74 205 -74q60 0 105.5 35.5t95.5 120.5l67 -41q-110 -215 -278 -215q-43 0 -97.5 20t-187.5 84q-97 47 -153 47q-57 0 -102.5 -36.5t-92.5 -122.5z" />
    <glyph glyph-name="uni00A0" unicode="&#xa0;" horiz-adv-x="512" 
 />
    <glyph glyph-name="exclamdown" unicode="&#xa1;" horiz-adv-x="507" 
d="M313 -397h-118l22 981h82zM254 969q41 0 72.5 -32t31.5 -75q0 -44 -30 -74t-76 -30q-43 0 -74 30.5t-31 73.5q0 41 33 74t74 33z" />
    <glyph glyph-name="cent" unicode="&#xa2;" horiz-adv-x="1064" 
d="M573 1098v-830q95 5 154 73t68 185h110q-5 -151 -99 -252t-233 -102v-217h-67v219q-155 23 -243.5 156t-88.5 344q0 210 87.5 346.5t244.5 171.5v207h67v-203q143 -3 231 -96.5t89 -245.5h-109q-9 238 -211 244zM506 274v818q-103 -32 -163 -144t-60 -270
q0 -109 32.5 -201.5t90.5 -150.5q39 -37 100 -52z" />
    <glyph glyph-name="sterling" unicode="&#xa3;" horiz-adv-x="1064" 
d="M457 743h303v-100h-320q-38 -223 -69.5 -343.5t-73.5 -207.5q95 14 195 14h73q57 -2 109 -2q114 0 156 34.5t47 129.5h106q0 -132 -76 -205q-43 -40 -95.5 -51.5t-193.5 -11.5h-471q90 157 177 643h-207v100h225q37 248 74 402q32 129 94.5 186.5t169.5 57.5
q72 0 126 -29.5t79 -81.5q23 -45 26 -145h-106q-7 89 -34 121t-93 32q-71 0 -103.5 -41.5t-58.5 -167.5q-24 -114 -59 -334z" />
    <glyph glyph-name="currency" unicode="&#xa4;" horiz-adv-x="1366" 
d="M135 244l184 188q-106 135 -106 295q0 80 24.5 148t81.5 143l-190 188l66 66l188 -189q142 111 299 111q160 0 295 -109l190 187l66 -66l-189 -188q107 -139 107 -293q0 -82 -25.5 -151t-81.5 -142l191 -188l-66 -66l-188 189q-136 -107 -295 -107q-82 0 -151.5 25
t-147.5 82l-188 -189zM686 1092q-155 0 -261 -106t-106 -261q0 -152 105.5 -257.5t257.5 -105.5t257 105.5t105 257.5t-104.5 259.5t-253.5 107.5z" />
    <glyph glyph-name="yen" unicode="&#xa5;" horiz-adv-x="1064" 
d="M748 854h204v-82h-247l-89 -168h336v-82h-354l2 -522h-119l4 522h-374v82h356l-92 168h-264v82h219l-279 512h133l355 -674l348 674h125z" />
    <glyph glyph-name="brokenbar" unicode="&#xa6;" horiz-adv-x="1024" 
d="M459 1366h106v-672h-106v672zM459 313h106v-655h-106v655z" />
    <glyph glyph-name="section" unicode="&#xa7;" horiz-adv-x="1024" 
d="M856 1022h-111q-9 120 -65.5 176.5t-165.5 56.5q-100 0 -162.5 -55t-62.5 -143q0 -87 76 -146q37 -27 194 -116q135 -75 196.5 -121t85 -88.5t23.5 -106.5q0 -83 -42 -143t-136 -111q75 -58 106 -115t31 -135q0 -148 -93 -231.5t-257 -83.5q-173 0 -259.5 83t-92.5 253
h108q6 -64 16 -97.5t31 -62.5q62 -82 197 -82q117 0 179.5 56.5t62.5 160.5q0 54 -20.5 92t-67.5 72q-40 31 -195 121q-120 72 -164.5 103.5t-72.5 64.5q-54 63 -54 145q0 77 45 134t146 108q-152 96 -152 240q0 129 95.5 214t240.5 85q154 0 244.5 -88t95.5 -240zM418 756
q-168 -70 -168 -187q0 -77 102 -145q87 -57 250 -148q71 31 111.5 83.5t40.5 113.5q0 78 -68 125q-149 93 -268 158z" />
    <glyph glyph-name="dieresis" unicode="&#xa8;" horiz-adv-x="1024" 
d="M338 1378q40 0 68 -28t28 -68q0 -41 -28 -69.5t-68 -28.5q-41 0 -69.5 28t-28.5 68q0 41 28.5 69.5t69.5 28.5zM686 1378q40 0 68 -28t28 -68q0 -41 -28 -69.5t-68 -28.5q-41 0 -69.5 28t-28.5 68q0 41 28.5 69.5t69.5 28.5z" />
    <glyph glyph-name="copyright" unicode="&#xa9;" horiz-adv-x="1642" 
d="M1137 879h-88q-20 83 -69.5 122t-133.5 39q-117 0 -186.5 -94t-69.5 -252t69.5 -252t186.5 -94q94 0 150.5 56t66.5 161h88q-14 -141 -92.5 -218t-208.5 -77q-161 0 -258.5 116t-97.5 308t96.5 308t257.5 116q121 0 196.5 -62t92.5 -177zM831 1393q139 0 268 -57
t223 -152t150 -225.5t56 -272.5q0 -143 -56 -273.5t-150.5 -225t-225 -150t-273.5 -55.5q-144 0 -275 55.5t-225 150t-150 225t-56 273.5q0 145 56 276t151 225.5t227.5 150t279.5 55.5zM829 1319q-173 0 -317.5 -84.5t-227.5 -230.5t-83 -320q0 -129 49 -246t132.5 -202
t198.5 -135t242 -50q168 0 311 84.5t226.5 231t83.5 319.5q0 169 -83 315t-225 232t-307 86z" />
    <glyph glyph-name="ordfeminine" unicode="&#xaa;" horiz-adv-x="1024" 
d="M371 1204h-82q18 178 225 178q77 0 129.5 -27.5t67.5 -76.5q12 -35 12 -131v-219q0 -80 3 -106t15 -64h-79q-15 48 -17 71q-41 -51 -78.5 -69.5t-99.5 -18.5q-90 0 -144.5 48.5t-54.5 128.5q0 99 84.5 153t290.5 86v35q0 63 -31 91t-100 28q-64 0 -98 -25.5t-43 -81.5z
M643 1032v60q-162 -31 -226.5 -68.5t-64.5 -101.5q0 -51 32 -80t89 -29q87 0 128.5 53.5t41.5 165.5zM242 649h526v-71h-526v71z" />
    <glyph glyph-name="guillemotleft" unicode="&#xab;" horiz-adv-x="706" 
d="M563 0h-69l-172 477l172 490h69l-147 -490zM340 0h-70l-172 477l172 490h70l-150 -490z" />
    <glyph glyph-name="logicalnot" unicode="&#xac;" horiz-adv-x="1024" 
d="M848 0v449h-780v98h886v-547h-106z" />
    <glyph glyph-name="uni00AD" unicode="&#xad;" horiz-adv-x="571" 
d="M0 559h571v-88h-571v88z" />
    <glyph glyph-name="registered" unicode="&#xae;" horiz-adv-x="1642" 
d="M590 1090h139q155 0 232 -21q70 -22 109.5 -77t39.5 -130q0 -80 -46 -136.5t-134 -82.5l239 -373h-110l-232 359h-147v-359h-90v820zM680 705h51q86 0 119 3t65 13q99 31 99 143q0 102 -84 131q-31 12 -67.5 15.5t-129.5 3.5h-53v-309zM831 1393q139 0 268 -57t223 -152
t150 -225.5t56 -272.5q0 -143 -56 -273.5t-150.5 -225t-225 -150t-273.5 -55.5q-144 0 -275 55.5t-225 150t-150 225t-56 273.5q0 145 56 276t151 225.5t227.5 150t279.5 55.5zM829 1319q-173 0 -317.5 -84.5t-227.5 -230.5t-83 -320q0 -129 49 -246t132.5 -202t198.5 -135
t242 -50q168 0 311 84.5t226.5 231t83.5 319.5q0 169 -83 315t-225 232t-307 86z" />
    <glyph glyph-name="macron" unicode="&#xaf;" horiz-adv-x="1024" 
d="M238 1329h548v-94h-548v94z" />
    <glyph glyph-name="degree" unicode="&#xb0;" horiz-adv-x="1024" 
d="M512 1389q117 0 200 -80.5t83 -194.5t-83 -194t-200 -80q-120 0 -201.5 80t-81.5 198q0 111 83 191t200 80zM512 1313q-86 0 -144.5 -57t-58.5 -140q0 -86 57.5 -143.5t145.5 -57.5q85 0 144 58t59 141t-59 141t-144 58z" />
    <glyph glyph-name="plusminus" unicode="&#xb1;" horiz-adv-x="1064" 
d="M571 727h381v-78h-381v-379h-82v379h-378v78h378v393h82v-393zM111 160h841v-82h-841v82z" />
    <glyph glyph-name="twosuperior" unicode="&#xb2;" horiz-adv-x="704" 
d="M207 1085h-84q3 256 248 256q103 0 166 -52.5t63 -139.5q0 -55 -23.5 -100t-107.5 -150q-203 -251 -233 -291h378v-76h-493v64q29 35 80 98q8 12 84 107q165 209 180 231q45 61 45 115t-38.5 85.5t-104.5 31.5q-78 0 -116 -42.5t-44 -136.5z" />
    <glyph glyph-name="threesuperior" unicode="&#xb3;" horiz-adv-x="704" 
d="M193 1118h-82q12 223 239 223q106 0 169 -53t63 -143q0 -117 -109 -176q141 -59 141 -201q0 -109 -74 -177.5t-194 -68.5q-129 0 -195.5 63t-64.5 183h80q3 -170 176 -170q83 0 131.5 44.5t48.5 121.5t-47.5 118.5t-136.5 41.5q-25 0 -45 -2v79l43 -2q72 0 112.5 37.5
t40.5 102.5q0 61 -37 94t-106 33q-70 0 -107 -35.5t-46 -112.5z" />
    <glyph glyph-name="acute" unicode="&#xb4;" horiz-adv-x="1024" 
d="M459 1145l196 262h170l-270 -262h-96z" />
    <glyph glyph-name="mu" unicode="&#xb5;" horiz-adv-x="1024" 
d="M113 -338v1321h106v-571q0 -117 19.5 -179t70.5 -108q80 -70 193 -70q68 0 127 30t100 85q41 56 58.5 115.5t17.5 148.5v549h106v-983h-106v197q-51 -117 -125.5 -171.5t-181.5 -54.5q-92 0 -158.5 38.5t-120.5 123.5v-471h-106z" />
    <glyph glyph-name="paragraph" unicode="&#xb6;" horiz-adv-x="1134" 
d="M449 -205v846h-33q-167 0 -272 100t-105 258q0 103 47.5 187.5t130.5 128.5q99 51 301 51h473v-90h-114v-1481h-101v1481h-227v-1481h-100z" />
    <glyph glyph-name="periodcentered" unicode="&#xb7;" 
d="M264 618q42 0 73.5 -32t31.5 -74q0 -44 -31 -74t-76 -30q-43 0 -73.5 30.5t-30.5 73.5t31.5 74.5t74.5 31.5z" />
    <glyph glyph-name="cedilla" unicode="&#xb8;" horiz-adv-x="1024" 
d="M483 0h86l-61 -121q172 -21 172 -143q0 -71 -53.5 -114.5t-139.5 -43.5q-74 0 -143 27v71q68 -18 105 -18q51 0 80.5 24.5t29.5 65.5q0 44 -37 66t-123 26z" />
    <glyph glyph-name="onesuperior" unicode="&#xb9;" horiz-adv-x="704" 
d="M166 1159v64q84 3 122 28t50 86h65v-805h-86v627h-151z" />
    <glyph glyph-name="ordmasculine" unicode="&#xba;" horiz-adv-x="1024" 
d="M512 1382q117 0 189.5 -88.5t72.5 -230.5q0 -145 -73 -233.5t-193 -88.5q-114 0 -187 90.5t-73 231.5q0 143 73 231t191 88zM512 1311q-83 0 -131.5 -67t-48.5 -181q0 -112 49 -181t127 -69q85 0 133.5 67t48.5 183q0 114 -48 181t-130 67zM248 649h526v-71h-526v71z" />
    <glyph glyph-name="guillemotright" unicode="&#xbb;" horiz-adv-x="706" 
d="M143 967h70l172 -478l-172 -489h-70l148 489zM367 967h69l172 -478l-172 -489h-69l149 489z" />
    <glyph glyph-name="onequarter" unicode="&#xbc;" horiz-adv-x="1654" 
d="M166 1159v64q84 3 122 28t50 86h65v-805h-86v627h-151zM1167 1331h101l-783 -1331h-98zM1444 276h145v-77h-143v-205h-88v205h-344v61l352 545h78v-529zM1360 276l2 396l-252 -396h250z" />
    <glyph glyph-name="onehalf" unicode="&#xbd;" horiz-adv-x="1654" 
d="M166 1159v64q84 3 122 28t50 86h65v-805h-86v627h-151zM1167 1331h101l-783 -1331h-98zM1157 555h-84q3 254 246 254q104 0 166.5 -52.5t62.5 -138.5q0 -54 -24 -99.5t-107 -149.5q-41 -51 -134 -168t-99 -125h379v-76h-492v63q2 2 133 168q190 243 222 291t32 94
q0 52 -39 84.5t-102 32.5q-77 0 -116.5 -43t-43.5 -135z" />
    <glyph glyph-name="threequarters" unicode="&#xbe;" horiz-adv-x="1654" 
d="M193 1118h-82q12 223 239 223q106 0 169 -53t63 -143q0 -117 -109 -176q141 -59 141 -201q0 -109 -74 -177.5t-194 -68.5q-129 0 -195.5 63t-64.5 183h80q3 -170 176 -170q83 0 131.5 44.5t48.5 121.5t-47.5 118.5t-136.5 41.5q-25 0 -45 -2v79l43 -2q72 0 112.5 37.5
t40.5 102.5q0 61 -37 94t-106 33q-70 0 -107 -35.5t-46 -112.5zM1167 1331h101l-783 -1331h-98zM1444 276h145v-77h-143v-205h-88v205h-344v61l352 545h78v-529zM1360 276l2 396l-252 -396h250z" />
    <glyph glyph-name="questiondown" unicode="&#xbf;" horiz-adv-x="839" 
d="M471 969q42 0 73 -32t31 -75q0 -46 -29 -75t-75 -29q-43 0 -74.5 30.5t-31.5 73.5q0 41 33 74t73 33zM414 578h110v-25q0 -209 -6 -238q-10 -49 -35.5 -86t-101.5 -114q-80 -82 -109.5 -133.5t-29.5 -108.5q0 -78 49 -123t135 -45q101 0 153 49t64 156h102
q-6 -151 -90 -232t-233 -81q-141 0 -222 75.5t-81 204.5q0 82 35.5 143.5t140.5 161.5q79 77 99.5 120.5t19.5 129.5v70v51v25z" />
    <glyph glyph-name="Agrave" unicode="&#xc0;" horiz-adv-x="1134" 
d="M522 1376h90l473 -1376h-122l-134 387h-524l-135 -387h-121zM795 489l-228 721l-229 -721h457zM659 1495h-118l-316 264h170z" />
    <glyph glyph-name="Aacute" unicode="&#xc1;" horiz-adv-x="1134" 
d="M522 1376h90l473 -1376h-122l-134 387h-524l-135 -387h-121zM795 489l-228 721l-229 -721h457zM475 1495l264 264h170l-315 -264h-119z" />
    <glyph glyph-name="Acircumflex" unicode="&#xc2;" horiz-adv-x="1134" 
d="M522 1376h90l473 -1376h-122l-134 387h-524l-135 -387h-121zM795 489l-228 721l-229 -721h457zM231 1497l261 262h151l260 -262h-108l-228 189l-227 -189h-109z" />
    <glyph glyph-name="Atilde" unicode="&#xc3;" horiz-adv-x="1134" 
d="M522 1376h90l473 -1376h-122l-134 387h-524l-135 -387h-121zM795 489l-228 721l-229 -721h457zM326 1513l-78 35q23 100 66.5 146.5t113.5 46.5q67 0 156 -60q64 -43 88.5 -54t52.5 -11q83 0 98 131l78 -35q-8 -65 -29 -104q-23 -43 -64.5 -69t-86.5 -26q-37 0 -74.5 16
t-101.5 60q-71 47 -115 47q-40 0 -64.5 -29t-39.5 -94z" />
    <glyph glyph-name="Adieresis" unicode="&#xc4;" horiz-adv-x="1134" 
d="M522 1376h90l473 -1376h-122l-134 387h-524l-135 -387h-121zM795 489l-228 721l-229 -721h457zM389 1731q44 0 73.5 -29.5t29.5 -73.5t-31 -75t-74 -31q-41 0 -72.5 31.5t-31.5 74.5q0 44 30 73.5t76 29.5zM750 1731q43 0 72.5 -30t29.5 -73t-31.5 -74.5t-72.5 -31.5
q-43 0 -74 31t-31 75q0 45 30 74t77 29z" />
    <glyph glyph-name="Aring" unicode="&#xc5;" horiz-adv-x="1134" 
d="M522 1376h90l473 -1376h-122l-134 387h-524l-135 -387h-121zM795 489l-228 721l-229 -721h457zM569 1829q74 0 128.5 -54.5t54.5 -129.5t-55 -130t-130 -55t-129.5 55t-54.5 130q0 76 54.5 130t131.5 54zM569 1747q-41 0 -72.5 -30.5t-31.5 -71.5q0 -40 31 -71.5
t71 -31.5t71.5 31.5t31.5 71.5q0 39 -31 70.5t-70 31.5z" />
    <glyph glyph-name="AE" unicode="&#xc6;" horiz-adv-x="1701" 
d="M819 1366h783v-102h-594v-504h546v-103h-546v-555h594v-102h-715v391h-488l-217 -391h-135zM887 494v774l-430 -774h430z" />
    <glyph glyph-name="Ccedilla" unicode="&#xc7;" horiz-adv-x="1232" 
d="M676 -23l-51 -120q95 -9 140.5 -48.5t45.5 -111.5q0 -78 -55 -123t-152 -45q-69 0 -145 25v77q63 -18 104 -18q54 0 86.5 26.5t32.5 69.5q0 47 -38 68t-130 24l76 181q-95 20 -149 44t-105 68q-106 92 -162.5 244t-56.5 344q0 322 148.5 514.5t396.5 192.5
q186 0 303 -99.5t145 -279.5h-115q-34 140 -115 207t-216 67q-194 0 -307 -162t-113 -440q0 -276 113 -438t305 -162q154 0 246 94.5t112 272.5h115q-17 -217 -141.5 -345t-317.5 -127z" />
    <glyph glyph-name="Egrave" unicode="&#xc8;" horiz-adv-x="1003" 
d="M297 758h557v-103h-557v-553h606v-102h-723v1366h715v-102h-598v-506zM664 1495h-119l-316 264h170z" />
    <glyph glyph-name="Eacute" unicode="&#xc9;" horiz-adv-x="1003" 
d="M297 758h557v-103h-557v-553h606v-102h-723v1366h715v-102h-598v-506zM412 1495l264 264h170l-316 -264h-118z" />
    <glyph glyph-name="Ecircumflex" unicode="&#xca;" horiz-adv-x="1003" 
d="M297 758h557v-103h-557v-553h606v-102h-723v1366h715v-102h-598v-506zM205 1497l262 262h151l261 -262h-109l-227 189l-228 -189h-110z" />
    <glyph glyph-name="Edieresis" unicode="&#xcb;" horiz-adv-x="1003" 
d="M297 758h557v-103h-557v-553h606v-102h-723v1366h715v-102h-598v-506zM365 1731q43 0 72.5 -30t29.5 -73q0 -42 -31.5 -74t-73.5 -32q-43 0 -73.5 31.5t-30.5 74.5q0 45 30 74t77 29zM723 1731q44 0 73 -29.5t29 -73.5t-29.5 -75t-72.5 -31t-75 31.5t-32 74.5t31.5 73
t75.5 30z" />
    <glyph glyph-name="Igrave" unicode="&#xcc;" horiz-adv-x="475" 
d="M299 0h-121v1366h121v-1366zM326 1495h-113l-260 264h164z" />
    <glyph glyph-name="Iacute" unicode="&#xcd;" horiz-adv-x="475" 
d="M297 0h-121v1366h121v-1366zM150 1495l208 264h164l-260 -264h-112z" />
    <glyph glyph-name="Icircumflex" unicode="&#xce;" horiz-adv-x="475" 
d="M297 0h-121v1366h121v-1366zM-51 1497l213 262h151l213 -262h-102l-186 189l-187 -189h-102z" />
    <glyph glyph-name="Idieresis" unicode="&#xcf;" horiz-adv-x="475" 
d="M297 0h-121v1366h121v-1366zM102 1729q43 0 72 -29t29 -72q0 -42 -30.5 -73t-72.5 -31q-41 0 -71.5 30.5t-30.5 73.5t29.5 72t74.5 29zM375 1729q44 0 72 -28.5t28 -72.5t-29 -74t-71 -30q-41 0 -73 31.5t-32 72.5q0 43 30.5 72t74.5 29z" />
    <glyph glyph-name="Eth" unicode="&#xd0;" horiz-adv-x="1269" 
d="M180 1366h174q217 0 313 -15.5t183 -64.5q141 -80 222 -240.5t81 -361.5q0 -212 -87.5 -374t-242.5 -240q-85 -43 -177 -56.5t-300 -13.5h-166v668h-137v96h137v602zM297 102h92q181 0 251.5 12.5t147.5 57.5q116 71 177 201.5t61 308.5q0 191 -69.5 329t-196.5 201
q-70 33 -143 42.5t-257 9.5h-63v-500h367v-96h-367v-566z" />
    <glyph glyph-name="Ntilde" unicode="&#xd1;" horiz-adv-x="1284" 
d="M180 1366h129l688 -1196v1196h109v-1366h-135l-680 1192v-1192h-111v1366zM408 1513l-78 35q23 100 66.5 146.5t115.5 46.5q64 0 156 -60q63 -42 87 -53.5t52 -11.5q83 0 98 131l78 -35q-8 -65 -29 -104q-22 -43 -63.5 -69t-87.5 -26q-37 0 -74.5 16t-101.5 60
q-71 47 -115 47q-40 0 -64.5 -29t-39.5 -94z" />
    <glyph glyph-name="Ograve" unicode="&#xd2;" horiz-adv-x="1304" 
d="M653 1389q157 0 279 -88.5t190 -248.5t68 -366q0 -319 -149 -514t-394 -195q-155 0 -275.5 89.5t-187.5 250.5t-67 367q0 207 67 367.5t189 249t280 88.5zM653 1284q-184 0 -296.5 -165t-112.5 -435q0 -269 111.5 -435.5t291.5 -166.5q189 0 302.5 164.5t113.5 439.5
q0 267 -113.5 432.5t-296.5 165.5zM788 1495h-118l-316 264h170z" />
    <glyph glyph-name="Oacute" unicode="&#xd3;" horiz-adv-x="1304" 
d="M653 1389q157 0 279 -88.5t190 -248.5t68 -366q0 -319 -149 -514t-394 -195q-155 0 -275.5 89.5t-187.5 250.5t-67 367q0 207 67 367.5t189 249t280 88.5zM653 1284q-184 0 -296.5 -165t-112.5 -435q0 -269 111.5 -435.5t291.5 -166.5q189 0 302.5 164.5t113.5 439.5
q0 267 -113.5 432.5t-296.5 165.5zM522 1495l264 264h170l-315 -264h-119z" />
    <glyph glyph-name="Ocircumflex" unicode="&#xd4;" horiz-adv-x="1304" 
d="M653 1389q157 0 279 -88.5t190 -248.5t68 -366q0 -319 -149 -514t-394 -195q-155 0 -275.5 89.5t-187.5 250.5t-67 367q0 207 67 367.5t189 249t280 88.5zM653 1284q-184 0 -296.5 -165t-112.5 -435q0 -269 111.5 -435.5t291.5 -166.5q189 0 302.5 164.5t113.5 439.5
q0 267 -113.5 432.5t-296.5 165.5zM317 1497l261 262h151l260 -262h-108l-228 189l-227 -189h-109z" />
    <glyph glyph-name="Otilde" unicode="&#xd5;" horiz-adv-x="1304" 
d="M653 1389q157 0 279 -88.5t190 -248.5t68 -366q0 -319 -149 -514t-394 -195q-155 0 -275.5 89.5t-187.5 250.5t-67 367q0 207 67 367.5t189 249t280 88.5zM653 1284q-184 0 -296.5 -165t-112.5 -435q0 -269 111.5 -435.5t291.5 -166.5q189 0 302.5 164.5t113.5 439.5
q0 267 -113.5 432.5t-296.5 165.5zM418 1513l-78 35q23 100 66.5 146.5t115.5 46.5q64 0 156 -60q63 -42 87 -53.5t52 -11.5q83 0 98 131l78 -35q-8 -68 -28 -104q-22 -43 -64 -69t-88 -26q-37 0 -74.5 16t-101.5 60q-71 47 -115 47q-40 0 -64.5 -29t-39.5 -94z" />
    <glyph glyph-name="Odieresis" unicode="&#xd6;" horiz-adv-x="1304" 
d="M653 1389q157 0 279 -88.5t190 -248.5t68 -366q0 -319 -149 -514t-394 -195q-155 0 -275.5 89.5t-187.5 250.5t-67 367q0 207 67 367.5t189 249t280 88.5zM653 1284q-184 0 -296.5 -165t-112.5 -435q0 -269 111.5 -435.5t291.5 -166.5q189 0 302.5 164.5t113.5 439.5
q0 267 -113.5 432.5t-296.5 165.5zM475 1731q44 0 73.5 -29.5t29.5 -73.5t-31 -75t-74 -31q-41 0 -72.5 31.5t-31.5 74.5q0 44 30 73.5t76 29.5zM836 1731q43 0 72.5 -30t29.5 -73t-31.5 -74.5t-72.5 -31.5q-43 0 -74 31t-31 75q0 45 30 74t77 29z" />
    <glyph glyph-name="multiply" unicode="&#xd7;" horiz-adv-x="1064" 
d="M592 690l293 -295l-60 -57l-293 293l-292 -293l-58 57l293 293l-293 293l60 59l293 -295l292 293l56 -57z" />
    <glyph glyph-name="Oslash" unicode="&#xd8;" horiz-adv-x="1304" 
d="M987 1260l72 106h100l-112 -170q143 -195 143 -494q0 -321 -152 -523t-393 -202q-190 0 -328 129l-71 -106h-101l115 170q-75 102 -109 220.5t-34 271.5q0 213 68.5 378.5t192.5 257t284 91.5q181 0 325 -129zM330 276l594 889q-113 119 -262 119q-188 0 -303 -173
t-115 -454q0 -222 86 -381zM975 1090l-594 -887q109 -121 264 -121q186 0 302 174.5t116 454.5q0 221 -88 379z" />
    <glyph glyph-name="Ugrave" unicode="&#xd9;" horiz-adv-x="1245" 
d="M160 1366h116v-811q1 -187 11 -245.5t47 -108.5q41 -56 118 -87.5t171 -31.5q114 0 198.5 43.5t118.5 118.5q20 43 24.5 93t6.5 218v811h116v-813q0 -173 -4 -220.5t-22 -99.5q-43 -122 -157.5 -189t-280.5 -67q-164 0 -279 67.5t-158 188.5q-18 52 -22 99.5t-4 220.5
v813zM754 1495h-119l-316 264h170z" />
    <glyph glyph-name="Uacute" unicode="&#xda;" horiz-adv-x="1245" 
d="M160 1366h116v-811q1 -187 11 -245.5t47 -108.5q41 -56 118 -87.5t171 -31.5q114 0 198.5 43.5t118.5 118.5q20 43 24.5 93t6.5 218v811h116v-813q0 -173 -4 -220.5t-22 -99.5q-43 -122 -157.5 -189t-280.5 -67q-164 0 -279 67.5t-158 188.5q-18 52 -22 99.5t-4 220.5
v813zM492 1495l264 264h170l-316 -264h-118z" />
    <glyph glyph-name="Ucircumflex" unicode="&#xdb;" horiz-adv-x="1245" 
d="M160 1366h116v-811q1 -187 11 -245.5t47 -108.5q41 -56 118 -87.5t171 -31.5q114 0 198.5 43.5t118.5 118.5q20 43 24.5 93t6.5 218v811h116v-813q0 -173 -4 -220.5t-22 -99.5q-43 -122 -157.5 -189t-280.5 -67q-164 0 -279 67.5t-158 188.5q-18 52 -22 99.5t-4 220.5
v813zM287 1497l260 262h153l261 -262h-111l-227 189l-226 -189h-110z" />
    <glyph glyph-name="Udieresis" unicode="&#xdc;" horiz-adv-x="1245" 
d="M160 1366h116v-811q1 -187 11 -245.5t47 -108.5q41 -56 118 -87.5t171 -31.5q114 0 198.5 43.5t118.5 118.5q20 43 24.5 93t6.5 218v811h116v-813q0 -173 -4 -220.5t-22 -99.5q-43 -122 -157.5 -189t-280.5 -67q-164 0 -279 67.5t-158 188.5q-18 52 -22 99.5t-4 220.5
v813zM444 1731q45 0 74 -29t29 -74q0 -44 -30 -75t-73 -31t-74.5 31.5t-31.5 74.5t31 73t75 30zM805 1731q44 0 73 -29.5t29 -73.5t-30.5 -75t-73.5 -31q-41 0 -73 32t-32 74q0 44 30.5 73.5t76.5 29.5z" />
    <glyph glyph-name="Yacute" unicode="&#xdd;" horiz-adv-x="1013" 
d="M33 1366h137l340 -670l336 670h137l-420 -780l2 -586h-114l2 586zM377 1495l264 264h170l-315 -264h-119z" />
    <glyph glyph-name="Thorn" unicode="&#xde;" horiz-adv-x="1050" 
d="M180 1366h117v-160h78q155 0 233 -7.5t140 -27.5q110 -37 173.5 -134.5t63.5 -231.5q0 -122 -50 -210.5t-144 -131.5q-66 -29 -143.5 -39t-244.5 -10h-106v-414h-117v1366zM297 516h102q109 0 156.5 3.5t101.5 15.5q99 20 150 89t51 183q0 97 -41 166.5t-115 97.5
q-53 22 -112 27.5t-219 5.5h-74v-588z" />
    <glyph glyph-name="germandbls" unicode="&#xdf;" horiz-adv-x="1009" 
d="M147 0v874q0 162 9 229t37 122q38 72 115 112.5t177 40.5q148 0 242 -89t94 -230q0 -223 -246 -287q164 -28 249 -126t85 -259q0 -173 -98.5 -287t-249.5 -114q-68 0 -147 32v101q76 -37 147 -37q104 0 170 86t66 221q0 115 -47.5 186.5t-151.5 112.5q-91 36 -221 39v92
q18 -2 43 -2q135 0 213 63t78 173q0 103 -63.5 166t-166.5 63q-71 0 -123.5 -30.5t-74.5 -84.5q-19 -48 -24 -97t-5 -196v-874h-107z" />
    <glyph glyph-name="agrave" unicode="&#xe0;" horiz-adv-x="948" 
d="M244 727h-111q13 132 101.5 200t242.5 68q117 0 196.5 -43.5t104.5 -120.5q19 -61 19 -208v-355q0 -134 3.5 -174.5t20.5 -93.5h-106q-18 63 -25 137q-90 -162 -287 -162q-137 0 -220 76.5t-83 202.5q0 158 132.5 243t457.5 134v51q0 118 -49 167.5t-166 49.5
q-202 0 -231 -172zM690 436v111q-267 -52 -372 -116t-105 -173q0 -83 55 -134.5t144 -51.5q75 0 138 35.5t97 95.5q43 76 43 233zM596 1145h-96l-271 262h170z" />
    <glyph glyph-name="aacute" unicode="&#xe1;" horiz-adv-x="948" 
d="M244 727h-111q13 132 101.5 200t242.5 68q117 0 196.5 -43.5t104.5 -120.5q19 -61 19 -208v-355q0 -134 3.5 -174.5t20.5 -93.5h-106q-18 63 -25 137q-90 -162 -287 -162q-137 0 -220 76.5t-83 202.5q0 158 132.5 243t457.5 134v51q0 118 -49 167.5t-166 49.5
q-202 0 -231 -172zM690 436v111q-267 -52 -372 -116t-105 -173q0 -83 55 -134.5t144 -51.5q75 0 138 35.5t97 95.5q43 76 43 233zM371 1145l196 262h170l-270 -262h-96z" />
    <glyph glyph-name="acircumflex" unicode="&#xe2;" horiz-adv-x="948" 
d="M244 727h-111q13 132 101.5 200t242.5 68q117 0 196.5 -43.5t104.5 -120.5q19 -61 19 -208v-355q0 -134 3.5 -174.5t20.5 -93.5h-106q-18 63 -25 137q-90 -162 -287 -162q-137 0 -220 76.5t-83 202.5q0 158 132.5 243t457.5 134v51q0 118 -49 167.5t-166 49.5
q-202 0 -231 -172zM690 436v111q-267 -52 -372 -116t-105 -173q0 -83 55 -134.5t144 -51.5q75 0 138 35.5t97 95.5q43 76 43 233zM182 1145l226 278h151l227 -278h-110l-193 198l-192 -198h-109z" />
    <glyph glyph-name="atilde" unicode="&#xe3;" horiz-adv-x="948" 
d="M244 727h-111q13 132 101.5 200t242.5 68q117 0 196.5 -43.5t104.5 -120.5q19 -61 19 -208v-355q0 -134 3.5 -174.5t20.5 -93.5h-106q-18 63 -25 137q-90 -162 -287 -162q-137 0 -220 76.5t-83 202.5q0 158 132.5 243t457.5 134v51q0 118 -49 167.5t-166 49.5
q-202 0 -231 -172zM690 436v111q-267 -52 -372 -116t-105 -173q0 -83 55 -134.5t144 -51.5q75 0 138 35.5t97 95.5q43 76 43 233zM254 1163l-76 17q37 211 170 211q62 0 139 -60q49 -38 75.5 -51.5t51.5 -13.5q72 0 88 131l80 -19q-11 -101 -55 -159t-111 -58q-65 0 -151 66
q-47 35 -72 48t-47 13q-66 0 -92 -125z" />
    <glyph glyph-name="adieresis" unicode="&#xe4;" horiz-adv-x="948" 
d="M244 727h-111q13 132 101.5 200t242.5 68q117 0 196.5 -43.5t104.5 -120.5q19 -61 19 -208v-355q0 -134 3.5 -174.5t20.5 -93.5h-106q-18 63 -25 137q-90 -162 -287 -162q-137 0 -220 76.5t-83 202.5q0 158 132.5 243t457.5 134v51q0 118 -49 167.5t-166 49.5
q-202 0 -231 -172zM690 436v111q-267 -52 -372 -116t-105 -173q0 -83 55 -134.5t144 -51.5q75 0 138 35.5t97 95.5q43 76 43 233zM309 1378q40 0 67 -28t27 -68q0 -41 -27.5 -69.5t-68.5 -28.5q-40 0 -69 29t-29 67q0 41 29.5 69.5t70.5 28.5zM657 1378q38 0 67.5 -29
t29.5 -67q0 -40 -29.5 -69t-69.5 -29t-68 28t-28 68q0 43 27.5 70.5t70.5 27.5z" />
    <glyph glyph-name="aring" unicode="&#xe5;" horiz-adv-x="948" 
d="M244 727h-111q13 132 101.5 200t242.5 68q117 0 196.5 -43.5t104.5 -120.5q19 -61 19 -208v-355q0 -134 3.5 -174.5t20.5 -93.5h-106q-18 63 -25 137q-90 -162 -287 -162q-137 0 -220 76.5t-83 202.5q0 158 132.5 243t457.5 134v51q0 118 -49 167.5t-166 49.5
q-202 0 -231 -172zM690 436v111q-267 -52 -372 -116t-105 -173q0 -83 55 -134.5t144 -51.5q75 0 138 35.5t97 95.5q43 76 43 233zM483 1481q75 0 129 -55t54 -130t-55 -129.5t-130 -54.5q-73 0 -128.5 55t-55.5 129q0 76 54.5 130.5t131.5 54.5zM483 1399q-43 0 -73.5 -30.5
t-30.5 -72.5q0 -40 31 -71t71 -31t71.5 31t31.5 71q0 41 -30.5 72t-70.5 31z" />
    <glyph glyph-name="ae" unicode="&#xe6;" horiz-adv-x="1546" 
d="M1446 477h-658q3 -185 66 -278q39 -61 101 -94t135 -33q160 0 239 159l103 -18q-34 -110 -125.5 -174t-216.5 -64q-119 0 -210.5 56t-138.5 157q-63 -111 -144 -162t-194 -51q-132 0 -217.5 73.5t-85.5 187.5q0 91 57 164.5t158 113.5q73 28 153 39.5t208 11.5v68
q0 87 -7 128.5t-26 67.5q-48 70 -168 70q-194 0 -246 -180h-100q22 132 112.5 204t233.5 72q251 0 295 -182q52 94 126 138t177 44q170 0 272.5 -131.5t102.5 -351.5q0 -21 -2 -35zM793 565h530q-3 157 -70 245.5t-184 88.5q-111 0 -186 -90.5t-90 -243.5zM676 393v84
q-227 2 -346 -59.5t-119 -179.5q0 -72 56 -119t143 -47q74 0 135.5 35t93.5 96q37 67 37 190z" />
    <glyph glyph-name="ccedilla" unicode="&#xe7;" horiz-adv-x="956" 
d="M526 -25l-41 -96q88 -11 130 -45.5t42 -97.5q0 -69 -53.5 -113.5t-138.5 -44.5q-67 0 -143 29v69q74 -18 104 -18q50 0 80.5 25.5t30.5 66.5q0 44 -36.5 65t-123.5 27l69 138q-170 34 -258 160.5t-88 340.5q0 233 110.5 373.5t293.5 140.5q148 0 237.5 -89t104.5 -251
h-107q-19 119 -79.5 181.5t-157.5 62.5q-131 0 -211 -115.5t-80 -302.5q0 -185 81 -297t214 -112q101 0 164 67.5t75 188.5h111q-15 -164 -99.5 -255t-230.5 -98z" />
    <glyph glyph-name="egrave" unicode="&#xe8;" horiz-adv-x="974" 
d="M874 473h-661q5 -195 80.5 -298t214.5 -103q84 0 138.5 36.5t98.5 122.5l105 -18q-90 -238 -342 -238q-189 0 -298.5 134t-109.5 366q0 238 108 379t290 141q172 0 274 -131t102 -352v-39zM215 561h545q-9 161 -79 249.5t-187 88.5q-115 0 -187.5 -88t-91.5 -250z
M616 1145h-96l-270 262h170z" />
    <glyph glyph-name="eacute" unicode="&#xe9;" horiz-adv-x="974" 
d="M874 473h-661q5 -195 80.5 -298t214.5 -103q84 0 138.5 36.5t98.5 122.5l105 -18q-90 -238 -342 -238q-189 0 -298.5 134t-109.5 366q0 238 108 379t290 141q172 0 274 -131t102 -352v-39zM215 561h545q-9 161 -79 249.5t-187 88.5q-115 0 -187.5 -88t-91.5 -250z
M393 1145l195 262h172l-271 -262h-96z" />
    <glyph glyph-name="ecircumflex" unicode="&#xea;" horiz-adv-x="974" 
d="M874 473h-661q5 -195 80.5 -298t214.5 -103q84 0 138.5 36.5t98.5 122.5l105 -18q-90 -238 -342 -238q-189 0 -298.5 134t-109.5 366q0 238 108 379t290 141q172 0 274 -131t102 -352v-39zM215 561h545q-9 161 -79 249.5t-187 88.5q-115 0 -187.5 -88t-91.5 -250z
M205 1145l227 278h152l227 -278h-111l-192 198l-193 -198h-110z" />
    <glyph glyph-name="edieresis" unicode="&#xeb;" horiz-adv-x="974" 
d="M874 473h-661q5 -195 80.5 -298t214.5 -103q84 0 138.5 36.5t98.5 122.5l105 -18q-90 -238 -342 -238q-189 0 -298.5 134t-109.5 366q0 238 108 379t290 141q172 0 274 -131t102 -352v-39zM215 561h545q-9 161 -79 249.5t-187 88.5q-115 0 -187.5 -88t-91.5 -250z
M336 1378q38 0 67 -29t29 -67q0 -40 -29 -69t-69 -29q-41 0 -68.5 28t-27.5 68q0 43 27.5 70.5t70.5 27.5zM684 1378q38 0 67 -29t29 -67q0 -40 -29 -69t-69 -29t-68 28t-28 68q0 43 27.5 70.5t70.5 27.5z" />
    <glyph glyph-name="igrave" unicode="&#xec;" horiz-adv-x="423" 
d="M154 969h116v-969h-116v969zM287 1145h-90l-222 262h164z" />
    <glyph glyph-name="iacute" unicode="&#xed;" horiz-adv-x="423" 
d="M154 969h116v-969h-116v969zM137 1145l148 262h164l-222 -262h-90z" />
    <glyph glyph-name="icircumflex" unicode="&#xee;" horiz-adv-x="423" 
d="M154 969h116v-969h-116v969zM-43 1145l178 278h152l180 -278h-102l-154 198l-152 -198h-102z" />
    <glyph glyph-name="idieresis" unicode="&#xef;" horiz-adv-x="423" 
d="M154 969h116v-969h-116v969zM84 1378q38 0 66 -28t28 -68q0 -41 -27.5 -68.5t-68.5 -27.5t-68.5 27.5t-27.5 68.5q0 40 28.5 68t69.5 28zM344 1378q38 0 67 -29t29 -67q0 -40 -28 -68t-68 -28q-41 0 -68.5 27.5t-27.5 68.5q0 40 28 68t68 28z" />
    <glyph glyph-name="eth" unicode="&#xf0;" horiz-adv-x="1009" 
d="M518 1262l154 90l43 -76l-146 -82q124 -156 174 -225q90 -116 129 -225.5t39 -245.5q0 -233 -111.5 -378t-291.5 -145q-181 0 -294.5 141t-113.5 365q0 227 111.5 370.5t286.5 143.5q51 0 108 -22l-127 170l-151 -90l-47 75l153 86l-86 119l72 41zM518 899
q-142 0 -224.5 -112t-82.5 -304q0 -183 82 -297t213 -114q129 0 212 115.5t83 295.5q0 95 -28 184t-75 148q-66 84 -180 84z" />
    <glyph glyph-name="ntilde" unicode="&#xf1;" horiz-adv-x="1005" 
d="M131 969h105q18 -58 18 -146q97 172 297 172q106 0 179 -43t101 -121q17 -46 21 -88t4 -188v-555h-106v563q0 118 -5 161.5t-24 80.5q-48 94 -178 94q-132 0 -207.5 -91t-75.5 -251v-557h-106v645q0 175 -3 216t-20 108zM256 1163l-76 17q37 211 170 211q62 0 139 -60
q49 -38 75.5 -51.5t51.5 -13.5q74 0 89 131l79 -19q-10 -101 -55 -159t-111 -58q-65 0 -151 66q-47 35 -72 48t-47 13q-68 0 -92 -125z" />
    <glyph glyph-name="ograve" unicode="&#xf2;" horiz-adv-x="1009" 
d="M506 995q181 0 293 -141t112 -369q0 -226 -112.5 -368t-292.5 -142q-183 0 -294.5 142t-111.5 375q0 223 113 363t293 140zM506 899q-131 0 -213 -114.5t-82 -295.5q0 -187 81.5 -302t213.5 -115q129 0 212 116t83 297q0 183 -82.5 298.5t-212.5 115.5zM612 1145h-96
l-270 262h172z" />
    <glyph glyph-name="oacute" unicode="&#xf3;" horiz-adv-x="1009" 
d="M506 995q181 0 293 -141t112 -369q0 -226 -112.5 -368t-292.5 -142q-183 0 -294.5 142t-111.5 375q0 223 113 363t293 140zM506 899q-131 0 -213 -114.5t-82 -295.5q0 -187 81.5 -302t213.5 -115q129 0 212 116t83 297q0 183 -82.5 298.5t-212.5 115.5zM403 1145l197 262
h170l-270 -262h-97z" />
    <glyph glyph-name="ocircumflex" unicode="&#xf4;" horiz-adv-x="1009" 
d="M506 995q181 0 293 -141t112 -369q0 -226 -112.5 -368t-292.5 -142q-183 0 -294.5 142t-111.5 375q0 223 113 363t293 140zM506 899q-131 0 -213 -114.5t-82 -295.5q0 -187 81.5 -302t213.5 -115q129 0 212 116t83 297q0 183 -82.5 298.5t-212.5 115.5zM203 1145l227 278
h152l225 -278h-109l-192 198l-193 -198h-110z" />
    <glyph glyph-name="otilde" unicode="&#xf5;" horiz-adv-x="1009" 
d="M506 995q181 0 293 -141t112 -369q0 -226 -112.5 -368t-292.5 -142q-183 0 -294.5 142t-111.5 375q0 223 113 363t293 140zM506 899q-131 0 -213 -114.5t-82 -295.5q0 -187 81.5 -302t213.5 -115q129 0 212 116t83 297q0 183 -82.5 298.5t-212.5 115.5zM295 1163l-76 17
q37 211 170 211q62 0 139 -60q52 -39 77.5 -52t49.5 -13q73 0 88 131l80 -19q-11 -101 -55 -159t-111 -58q-65 0 -151 66q-47 35 -72 48t-47 13q-65 0 -92 -125z" />
    <glyph glyph-name="odieresis" unicode="&#xf6;" horiz-adv-x="1009" 
d="M506 995q181 0 293 -141t112 -369q0 -226 -112.5 -368t-292.5 -142q-183 0 -294.5 142t-111.5 375q0 223 113 363t293 140zM506 899q-131 0 -213 -114.5t-82 -295.5q0 -187 81.5 -302t213.5 -115q129 0 212 116t83 297q0 183 -82.5 298.5t-212.5 115.5zM332 1378
q40 0 68 -28t28 -68q0 -41 -28 -69.5t-68 -28.5t-69.5 29t-29.5 67q0 41 29 69.5t70 28.5zM680 1378q41 0 68.5 -28t27.5 -68q0 -41 -28 -69.5t-68 -28.5t-69 29t-29 67q0 41 29 69.5t69 28.5z" />
    <glyph glyph-name="divide" unicode="&#xf7;" horiz-adv-x="1064" 
d="M532 498q34 0 59 -25.5t25 -60.5t-24.5 -59.5t-61.5 -24.5q-35 0 -59.5 24.5t-24.5 59.5t25.5 60.5t60.5 25.5zM532 1038q35 0 59.5 -25.5t24.5 -60.5t-24.5 -59.5t-61.5 -24.5q-35 0 -59.5 24.5t-24.5 59.5q0 37 24.5 61.5t61.5 24.5zM111 729h841v-82h-841v82z" />
    <glyph glyph-name="oslash" unicode="&#xf8;" horiz-adv-x="1009" 
d="M80 0l110 139q-49 76 -69.5 153t-20.5 181q0 232 113.5 377t294.5 145q155 0 268 -110l64 82h90l-109 -140q90 -142 90 -331q0 -230 -114.5 -375.5t-296.5 -145.5q-151 0 -262 105l-62 -80h-96zM260 229l451 572q-79 98 -201 98q-133 0 -216 -120t-83 -314
q0 -129 49 -236zM752 737l-449 -575q75 -90 197 -90q83 0 150.5 49t105.5 137q14 33 29.5 116t15.5 126q0 130 -49 237z" />
    <glyph glyph-name="ugrave" unicode="&#xf9;" horiz-adv-x="978" 
d="M150 969h106v-604q0 -91 7.5 -136t29.5 -77q26 -37 72.5 -58.5t101.5 -21.5q66 0 121 31.5t90 89.5q43 71 43 219v557h106v-676q0 -165 3 -204t20 -89h-109q-20 64 -20 137q-41 -85 -102 -123.5t-154 -38.5q-94 0 -170 42t-113 114q-20 39 -26 86t-6 152v600zM600 1145
h-96l-271 262h170z" />
    <glyph glyph-name="uacute" unicode="&#xfa;" horiz-adv-x="978" 
d="M150 969h106v-604q0 -91 7.5 -136t29.5 -77q26 -37 72.5 -58.5t101.5 -21.5q66 0 121 31.5t90 89.5q43 71 43 219v557h106v-676q0 -165 3 -204t20 -89h-109q-20 64 -20 137q-41 -85 -102 -123.5t-154 -38.5q-94 0 -170 42t-113 114q-20 39 -26 86t-6 152v600zM377 1145
l196 262h170l-270 -262h-96z" />
    <glyph glyph-name="ucircumflex" unicode="&#xfb;" horiz-adv-x="978" 
d="M150 969h106v-604q0 -91 7.5 -136t29.5 -77q26 -37 72.5 -58.5t101.5 -21.5q66 0 121 31.5t90 89.5q43 71 43 219v557h106v-676q0 -165 3 -204t20 -89h-109q-20 64 -20 137q-41 -85 -102 -123.5t-154 -38.5q-94 0 -170 42t-113 114q-20 39 -26 86t-6 152v600zM188 1145
l228 278h151l226 -278h-109l-192 198l-195 -198h-109z" />
    <glyph glyph-name="udieresis" unicode="&#xfc;" horiz-adv-x="978" 
d="M150 969h106v-604q0 -91 7.5 -136t29.5 -77q26 -37 72.5 -58.5t101.5 -21.5q66 0 121 31.5t90 89.5q43 71 43 219v557h106v-676q0 -165 3 -204t20 -89h-109q-20 64 -20 137q-41 -85 -102 -123.5t-154 -38.5q-94 0 -170 42t-113 114q-20 39 -26 86t-6 152v600zM315 1378
q40 0 68.5 -28t28.5 -68q0 -41 -28.5 -69.5t-68.5 -28.5q-41 0 -69.5 28t-28.5 68q0 41 28.5 69.5t69.5 28.5zM664 1378q40 0 68 -28t28 -68q0 -41 -28 -69.5t-68 -28.5q-41 0 -70 28t-29 68q0 41 29 69.5t70 28.5z" />
    <glyph glyph-name="yacute" unicode="&#xfd;" horiz-adv-x="854" 
d="M33 969h114l279 -830l289 830h112l-315 -887q-65 -186 -92 -247.5t-64 -113.5q-94 -129 -268 -129h-35v97q69 -1 110.5 10t78 47t63.5 94t62 162zM322 1145l196 262h170l-270 -262h-96z" />
    <glyph glyph-name="thorn" unicode="&#xfe;" horiz-adv-x="1011" 
d="M154 -403v1773h106v-553q55 96 119.5 138t157.5 42q167 0 271.5 -144t104.5 -374q0 -229 -100 -366.5t-266 -137.5q-186 0 -287 168v-546h-106zM537 901q-126 0 -202.5 -114t-76.5 -302q0 -183 78 -298t203 -115q122 0 193 109t71 296q0 189 -73.5 306.5t-192.5 117.5z
" />
    <glyph glyph-name="ydieresis" unicode="&#xff;" horiz-adv-x="854" 
d="M33 969h114l279 -830l289 830h112l-315 -887q-65 -186 -92 -247.5t-64 -113.5q-94 -129 -268 -129h-35v97q69 -1 110.5 10t78 47t63.5 94t62 162zM258 1378q38 0 67 -29t29 -67q0 -40 -29 -69t-69 -29t-68 28t-28 68q0 43 27.5 70.5t70.5 27.5zM606 1378q39 0 67.5 -28.5
t28.5 -67.5q0 -40 -29 -69t-69 -29t-68 28t-28 68q0 43 27.5 70.5t70.5 27.5z" />
    <glyph glyph-name="Amacron" unicode="&#x100;" horiz-adv-x="1134" 
d="M522 1376h90l473 -1376h-122l-134 387h-524l-135 -387h-121zM338 489h457l-228 721zM283 1671h569v-92h-569v92z" />
    <glyph glyph-name="amacron" unicode="&#x101;" horiz-adv-x="948" 
d="M244 727h-111q13 132 101.5 200t242.5 68q117 0 196.5 -43.5t104.5 -120.5q19 -61 19 -208v-355q0 -134 3.5 -174.5t20.5 -93.5h-106q-18 63 -25 137q-90 -162 -287 -162q-137 0 -220 76.5t-83 202.5q0 158 132.5 243t457.5 134v51q0 118 -49 167.5t-166 49.5
q-202 0 -231 -172zM690 436v111q-267 -52 -372 -116t-105 -173q0 -83 55 -134.5t144 -51.5q75 0 138 35.5t97 95.5q43 76 43 233zM207 1329h547v-94h-547v94z" />
    <glyph glyph-name="Abreve" unicode="&#x102;" horiz-adv-x="1134" 
d="M522 1376h90l473 -1376h-122l-134 387h-524l-135 -387h-121zM795 489l-228 721l-229 -721h457zM297 1761h76q19 -75 71 -118.5t125 -43.5q72 0 123 43t70 119h76q-13 -124 -84.5 -195t-182.5 -71q-114 0 -188 71.5t-86 194.5z" />
    <glyph glyph-name="abreve" unicode="&#x103;" horiz-adv-x="948" 
d="M244 727h-111q13 132 101.5 200t242.5 68q117 0 196.5 -43.5t104.5 -120.5q19 -61 19 -208v-355q0 -134 3.5 -174.5t20.5 -93.5h-106q-18 63 -25 137q-90 -162 -287 -162q-137 0 -220 76.5t-83 202.5q0 158 132.5 243t457.5 134v51q0 118 -49 167.5t-166 49.5
q-202 0 -231 -172zM690 436v111q-267 -52 -372 -116t-105 -173q0 -83 55 -134.5t144 -51.5q75 0 138 35.5t97 95.5q43 76 43 233zM238 1409h77q15 -77 60 -121.5t108 -44.5q62 0 105.5 43.5t58.5 122.5h78q-12 -127 -76 -198.5t-164 -71.5q-101 0 -169 73.5t-78 196.5z" />
    <glyph glyph-name="Aogonek" unicode="&#x104;" horiz-adv-x="1134" 
d="M612 1376l473 -1376q-72 -38 -111.5 -85.5t-39.5 -96.5q0 -40 35 -70.5t82 -30.5q48 0 88 13v-88q-70 -23 -123 -23q-86 0 -145.5 52t-59.5 126q0 62 38.5 109t127.5 94h-10l-138 387h-524l-133 -387h-123l473 1376h90zM795 489l-226 719l-229 -719h455z" />
    <glyph glyph-name="aogonek" unicode="&#x105;" horiz-adv-x="948" 
d="M797 623v-355q0 -131 2.5 -164.5t19.5 -103.5q-16 -7 -78 -55q-71 -56 -71 -113q0 -43 32.5 -69.5t85.5 -26.5q40 0 78 14v-86q-65 -18 -112 -18q-86 0 -142.5 46.5t-56.5 117.5q0 60 38 105t122 85q-18 64 -25 137q-87 -162 -284 -162q-138 0 -222 76t-84 201
q0 100 59 175t169 118q133 50 362 86v65q0 106 -51.5 154.5t-163.5 48.5q-202 0 -231 -172h-111q13 132 101.5 200t242.5 68q117 0 196.5 -43.5t104.5 -120.5q19 -61 19 -208zM690 436v111q-267 -52 -372 -116t-105 -173q0 -85 54 -135.5t145 -50.5q75 0 138 35t97 96
q43 76 43 233z" />
    <glyph glyph-name="Cacute" unicode="&#x106;" horiz-adv-x="1232" 
d="M1110 1010h-115q-66 274 -331 274q-194 0 -307 -162t-113 -440q0 -277 112.5 -438.5t305.5 -161.5q107 0 180.5 42t120.5 130q49 92 57 195h113q-12 -217 -139 -344.5t-330 -127.5q-250 0 -398.5 191t-148.5 514t148 515t397 192q186 0 303 -99.5t145 -279.5zM530 1495
l265 264h172l-316 -264h-121z" />
    <glyph glyph-name="cacute" unicode="&#x107;" horiz-adv-x="956" 
d="M846 655h-107q-19 119 -79 181.5t-158 62.5q-130 0 -210.5 -115t-80.5 -301q0 -184 81.5 -297.5t213.5 -113.5q102 0 164.5 67t74.5 189h111q-17 -170 -106 -261.5t-238 -91.5q-187 0 -299.5 138t-112.5 368q0 232 110.5 373t293.5 141q149 0 238 -88.5t104 -251.5z
M397 1145l197 262h170l-270 -262h-97z" />
    <glyph glyph-name="Ccircumflex" unicode="&#x108;" horiz-adv-x="1232" 
d="M1110 1010h-115q-66 274 -331 274q-194 0 -307 -162t-113 -440q0 -277 112.5 -438.5t305.5 -161.5q107 0 180.5 42t120.5 130q49 92 57 195h113q-12 -217 -139 -344.5t-330 -127.5q-250 0 -398.5 191t-148.5 514t148 515t397 192q186 0 303 -99.5t145 -279.5zM334 1497
l260 262h151l261 -262h-109l-227 189l-228 -189h-108z" />
    <glyph glyph-name="Cdotaccent" unicode="&#x10a;" horiz-adv-x="1232" 
d="M1110 1010h-115q-66 274 -331 274q-194 0 -307 -162t-113 -440q0 -277 112.5 -438.5t305.5 -161.5q107 0 180.5 42t120.5 130q49 92 57 195h113q-12 -217 -139 -344.5t-330 -127.5q-250 0 -398.5 191t-148.5 514t148 515t397 192q186 0 303 -99.5t145 -279.5zM670 1743
q51 0 82.5 -32.5t31.5 -82.5t-33.5 -84.5t-82.5 -34.5q-48 0 -82.5 35t-34.5 84q0 50 33.5 82.5t85.5 32.5z" />
    <glyph glyph-name="cdotaccent" unicode="&#x10b;" horiz-adv-x="956" 
d="M846 655h-107q-19 119 -79 181.5t-158 62.5q-130 0 -210.5 -115t-80.5 -301q0 -184 81.5 -297.5t213.5 -113.5q102 0 164.5 67t74.5 189h111q-17 -170 -106 -261.5t-238 -91.5q-187 0 -299.5 138t-112.5 368q0 232 110.5 373t293.5 141q149 0 238 -88.5t104 -251.5z
M514 1378q38 0 67 -29t29 -67q0 -40 -29 -69t-69 -29q-41 0 -68.5 28t-27.5 68q0 43 27.5 70.5t70.5 27.5z" />
    <glyph glyph-name="Ccaron" unicode="&#x10c;" horiz-adv-x="1232" 
d="M1110 1010h-115q-66 274 -331 274q-194 0 -307 -162t-113 -440q0 -277 112.5 -438.5t305.5 -161.5q107 0 180.5 42t120.5 130q49 92 57 195h113q-12 -217 -139 -344.5t-330 -127.5q-250 0 -398.5 191t-148.5 514t148 515t397 192q186 0 303 -99.5t145 -279.5zM1006 1759
l-263 -262h-151l-260 262h108l228 -188l227 188h111z" />
    <glyph glyph-name="ccaron" unicode="&#x10d;" horiz-adv-x="956" 
d="M846 655h-107q-19 119 -79 181.5t-158 62.5q-130 0 -210.5 -115t-80.5 -301q0 -184 81.5 -297.5t213.5 -113.5q102 0 164.5 67t74.5 189h111q-17 -170 -106 -261.5t-238 -91.5q-187 0 -299.5 138t-112.5 368q0 232 110.5 373t293.5 141q149 0 238 -88.5t104 -251.5z
M815 1423l-227 -278h-152l-227 278h110l193 -198l193 198h110z" />
    <glyph glyph-name="Dcaron" unicode="&#x10e;" horiz-adv-x="1269" 
d="M180 1366h174q219 0 314.5 -15.5t181.5 -64.5q142 -79 223.5 -240t81.5 -362q0 -212 -87.5 -374t-242.5 -240q-85 -43 -177 -56.5t-302 -13.5h-166v1366zM297 102h92q183 0 254 12.5t148 57.5q115 70 176 201.5t61 308.5q0 191 -69.5 329t-196.5 201q-70 33 -143.5 42.5
t-258.5 9.5h-63v-1162zM915 1759l-260 -262h-153l-260 262h110l228 -188l225 188h110z" />
    <glyph glyph-name="dcaron" unicode="&#x10f;" horiz-adv-x="1124" 
d="M858 1370v-1089q0 -129 4.5 -184.5t16.5 -96.5h-111q-16 57 -16 111v28q-53 -86 -116.5 -125t-154.5 -39q-173 0 -278 137.5t-105 364.5q0 235 102 376.5t271 141.5q194 0 281 -172v547h106zM485 899q-119 0 -184 -86q-43 -60 -67.5 -148t-24.5 -184q0 -92 24.5 -178
t67.5 -145q31 -40 78.5 -63t101.5 -23q125 0 199 112t74 299q0 189 -73.5 302.5t-195.5 113.5zM1026 1026h-86q115 105 127 188q-6 -2 -16 -2q-34 0 -58 26.5t-24 61.5q0 40 26.5 66.5t67.5 26.5q46 0 74 -31.5t28 -85.5q0 -114 -139 -250z" />
    <glyph glyph-name="Dcroat" unicode="&#x110;" horiz-adv-x="1269" 
d="M180 1366h174q217 0 313 -15.5t183 -64.5q141 -80 222 -240.5t81 -361.5q0 -212 -87.5 -374t-242.5 -240q-85 -43 -177 -56.5t-300 -13.5h-166v668h-137v96h137v602zM297 102h92q181 0 251.5 12.5t147.5 57.5q116 71 177 201.5t61 308.5q0 191 -69.5 329t-196.5 201
q-70 33 -143 42.5t-257 9.5h-63v-500h367v-96h-367v-566z" />
    <glyph glyph-name="dcroat" unicode="&#x111;" horiz-adv-x="1011" 
d="M858 1370v-145h123v-88h-123v-856q0 -129 4.5 -184.5t16.5 -96.5h-111q-16 57 -16 111v28q-53 -86 -116.5 -125t-154.5 -39q-174 0 -277.5 136t-103.5 366q0 237 100.5 377.5t270.5 140.5q194 0 281 -172v314h-273v88h273v145h106zM485 899q-128 0 -201 -111.5
t-73 -306.5q0 -186 74 -297.5t198 -111.5q123 0 197 112t74 299q0 189 -73.5 302.5t-195.5 113.5z" />
    <glyph glyph-name="Emacron" unicode="&#x112;" horiz-adv-x="1003" 
d="M297 758h557v-103h-557v-553h606v-102h-723v1366h715v-102h-598v-506zM256 1671h571v-92h-571v92z" />
    <glyph glyph-name="emacron" unicode="&#x113;" horiz-adv-x="974" 
d="M874 473h-661q5 -195 80.5 -298t214.5 -103q84 0 138.5 36.5t98.5 122.5l105 -18q-90 -238 -342 -238q-189 0 -298.5 134t-109.5 366q0 238 108 379t290 141q172 0 274 -131t102 -352v-39zM215 561h545q-9 161 -79 249.5t-187 88.5q-115 0 -187.5 -88t-91.5 -250z
M236 1329h548v-94h-548v94z" />
    <glyph glyph-name="Ebreve" unicode="&#x114;" horiz-adv-x="1003" 
d="M297 758h557v-103h-557v-553h606v-102h-723v1366h715v-102h-598v-506zM270 1761h78q17 -75 69.5 -118.5t125.5 -43.5t124 42.5t70 119.5h76q-14 -125 -85 -195.5t-183 -70.5q-114 0 -187.5 71.5t-87.5 194.5z" />
    <glyph glyph-name="ebreve" unicode="&#x115;" horiz-adv-x="974" 
d="M874 473h-661q5 -195 80.5 -298t214.5 -103q84 0 138.5 36.5t98.5 122.5l105 -18q-90 -238 -342 -238q-189 0 -298.5 134t-109.5 366q0 238 108 379t290 141q172 0 274 -131t102 -352v-39zM215 561h545q-9 161 -79 249.5t-187 88.5q-115 0 -187.5 -88t-91.5 -250z
M264 1409h78q15 -77 60 -121.5t108 -44.5q62 0 105.5 43.5t58.5 122.5h78q-12 -127 -76 -198.5t-164 -71.5q-102 0 -170 73.5t-78 196.5z" />
    <glyph glyph-name="Edotaccent" unicode="&#x116;" horiz-adv-x="1003" 
d="M297 758h557v-103h-557v-553h606v-102h-723v1366h715v-102h-598v-506zM543 1743q51 0 82.5 -32t31.5 -83t-32.5 -85t-81.5 -34q-47 0 -83 36t-36 83q0 49 34 82t85 33z" />
    <glyph glyph-name="edotaccent" unicode="&#x117;" horiz-adv-x="974" 
d="M874 473h-661q5 -195 80.5 -298t214.5 -103q84 0 138.5 36.5t98.5 122.5l105 -18q-90 -238 -342 -238q-189 0 -298.5 134t-109.5 366q0 238 108 379t290 141q172 0 274 -131t102 -352v-39zM215 561h545q-9 161 -79 249.5t-187 88.5q-115 0 -187.5 -88t-91.5 -250z
M510 1378q38 0 67 -29t29 -67q0 -40 -29 -69t-69 -29q-41 0 -68.5 28t-27.5 68q0 43 27.5 70.5t70.5 27.5z" />
    <glyph glyph-name="Eogonek" unicode="&#x118;" horiz-adv-x="1003" 
d="M903 102v-102q-90 -49 -131 -92t-41 -88q0 -46 34.5 -74.5t90.5 -28.5q38 0 86 13v-88q-73 -23 -127 -23q-89 0 -148 51.5t-59 128.5q0 68 50 121.5t139 79.5h-617v1366h715v-102h-598v-506h557v-103h-557v-553h606z" />
    <glyph glyph-name="eogonek" unicode="&#x119;" horiz-adv-x="974" 
d="M793 -250v-86q-65 -18 -113 -18q-86 0 -142.5 47.5t-56.5 118.5q0 49 21.5 80.5t101.5 97.5q-51 -15 -92 -15q-193 0 -302.5 132.5t-109.5 367.5q0 238 107.5 379t290.5 141q172 0 274 -131t102 -352v-39h-663q4 -195 80.5 -298t214.5 -103q85 0 140 36.5t99 122.5
l105 -18q-23 -60 -53.5 -101.5t-106.5 -117.5q-42 -43 -68 -88t-26 -74q0 -43 33 -69.5t84 -26.5q42 0 80 14zM215 561h545q-9 161 -79 249.5t-187 88.5q-115 0 -187.5 -88t-91.5 -250z" />
    <glyph glyph-name="Ecaron" unicode="&#x11a;" horiz-adv-x="1003" 
d="M297 758h557v-103h-557v-553h606v-102h-723v1366h715v-102h-598v-506zM879 1759l-261 -262h-151l-262 262h110l228 -188l227 188h109z" />
    <glyph glyph-name="ecaron" unicode="&#x11b;" horiz-adv-x="974" 
d="M874 473h-661q5 -195 80.5 -298t214.5 -103q84 0 138.5 36.5t98.5 122.5l105 -18q-90 -238 -342 -238q-189 0 -298.5 134t-109.5 366q0 238 108 379t290 141q172 0 274 -131t102 -352v-39zM215 561h545q-9 161 -79 249.5t-187 88.5q-115 0 -187.5 -88t-91.5 -250z
M811 1423l-227 -278h-152l-227 278h110l193 -198l192 198h111z" />
    <glyph glyph-name="Gcircumflex" unicode="&#x11c;" horiz-adv-x="1259" 
d="M735 670h391v-559q-182 -134 -432 -134q-233 0 -368 129q-209 200 -209 584q0 318 149.5 508.5t399.5 190.5q225 0 350 -152q38 -44 58 -94t34 -133h-115q-37 144 -115.5 209t-215.5 65q-192 0 -305 -160.5t-113 -435.5q0 -163 43 -293t125 -209q104 -104 284 -104
q158 0 318 88v389h-279v111zM332 1497l262 262h151l261 -262h-109l-227 189l-228 -189h-110z" />
    <glyph glyph-name="gcircumflex" unicode="&#x11d;" horiz-adv-x="958" 
d="M911 969v-86l-198 6q46 -40 71 -102t25 -136q0 -67 -24.5 -126.5t-67.5 -94.5q-31 -26 -71.5 -41t-156.5 -47q-110 -30 -156.5 -57t-45.5 -62q1 -31 34.5 -42t155.5 -23q143 -13 203 -26t111 -40q59 -34 90.5 -90.5t31.5 -128.5q0 -135 -115 -214t-311 -79
q-190 0 -304.5 76.5t-114.5 204.5q0 88 49 145.5t157 95.5q-54 20 -78 46.5t-24 64.5q0 51 39.5 87t134.5 71q-203 73 -203 280q0 148 93.5 237t248.5 89q68 0 140 -19zM485 887q-104 0 -166.5 -63.5t-62.5 -168.5q0 -98 60.5 -158.5t160.5 -60.5q98 0 159.5 61t61.5 158
q0 100 -60.5 166t-152.5 66zM487 47q-149 0 -233 -48t-84 -134q0 -85 87 -136t232 -51q149 0 233.5 49.5t84.5 137.5q0 89 -81.5 135.5t-238.5 46.5zM199 1145l225 278h154l225 -278h-109l-192 198l-195 -198h-108z" />
    <glyph glyph-name="Gbreve" unicode="&#x11e;" horiz-adv-x="1259" 
d="M735 670h391v-559q-182 -134 -432 -134q-233 0 -368 129q-209 200 -209 584q0 318 149.5 508.5t399.5 190.5q225 0 350 -152q38 -44 58 -94t34 -133h-115q-37 144 -115.5 209t-215.5 65q-192 0 -305 -160.5t-113 -435.5q0 -163 43 -293t125 -209q104 -104 284 -104
q158 0 318 88v389h-279v111zM397 1761h76q19 -75 71.5 -118.5t125.5 -43.5t123 42.5t69 119.5h78q-14 -125 -85 -195.5t-183 -70.5q-114 0 -187.5 71.5t-87.5 194.5z" />
    <glyph glyph-name="gbreve" unicode="&#x11f;" horiz-adv-x="958" 
d="M911 969v-86l-198 6q46 -40 71 -102t25 -136q0 -67 -24.5 -126.5t-67.5 -94.5q-31 -26 -71.5 -41t-156.5 -47q-110 -30 -156.5 -57t-45.5 -62q1 -31 34.5 -42t155.5 -23q143 -13 203 -26t111 -40q59 -34 90.5 -90.5t31.5 -128.5q0 -135 -115 -214t-311 -79
q-190 0 -304.5 76.5t-114.5 204.5q0 88 49 145.5t157 95.5q-54 20 -78 46.5t-24 64.5q0 51 39.5 87t134.5 71q-203 73 -203 280q0 148 93.5 237t248.5 89q68 0 140 -19zM485 887q-104 0 -166.5 -63.5t-62.5 -168.5q0 -98 60.5 -158.5t160.5 -60.5q98 0 159.5 61t61.5 158
q0 100 -60.5 166t-152.5 66zM487 47q-149 0 -233 -48t-84 -134q0 -85 87 -136t232 -51q149 0 233.5 49.5t84.5 137.5q0 89 -81.5 135.5t-238.5 46.5zM254 1409h78q15 -77 59.5 -121.5t106.5 -44.5q63 0 106 43t60 123h77q-12 -127 -75.5 -198.5t-163.5 -71.5
q-103 0 -170 73.5t-78 196.5z" />
    <glyph glyph-name="Gdotaccent" unicode="&#x120;" horiz-adv-x="1259" 
d="M735 670h391v-559q-182 -134 -432 -134q-233 0 -368 129q-209 200 -209 584q0 318 149.5 508.5t399.5 190.5q225 0 350 -152q38 -44 58 -94t34 -133h-115q-37 144 -115.5 209t-215.5 65q-192 0 -305 -160.5t-113 -435.5q0 -163 43 -293t125 -209q104 -104 284 -104
q158 0 318 88v389h-279v111zM670 1743q49 0 81.5 -32.5t32.5 -82.5t-33.5 -84.5t-82.5 -34.5q-48 0 -82.5 35t-34.5 84q0 50 33.5 82.5t85.5 32.5z" />
    <glyph glyph-name="gdotaccent" unicode="&#x121;" horiz-adv-x="958" 
d="M911 969v-86l-198 6q46 -40 71 -102t25 -136q0 -67 -24.5 -126.5t-67.5 -94.5q-31 -26 -71.5 -41t-156.5 -47q-110 -30 -156.5 -57t-45.5 -62q1 -31 34.5 -42t155.5 -23q143 -13 203 -26t111 -40q59 -34 90.5 -90.5t31.5 -128.5q0 -135 -115 -214t-311 -79
q-190 0 -304.5 76.5t-114.5 204.5q0 88 49 145.5t157 95.5q-54 20 -78 46.5t-24 64.5q0 51 39.5 87t134.5 71q-203 73 -203 280q0 148 93.5 237t248.5 89q68 0 140 -19zM485 887q-104 0 -166.5 -63.5t-62.5 -168.5q0 -98 60.5 -158.5t160.5 -60.5q98 0 159.5 61t61.5 158
q0 100 -60.5 166t-152.5 66zM487 47q-149 0 -233 -48t-84 -134q0 -85 87 -136t232 -51q149 0 233.5 49.5t84.5 137.5q0 89 -81.5 135.5t-238.5 46.5zM500 1378q38 0 67 -29t29 -67q0 -40 -29 -69t-69 -29q-41 0 -69 28t-28 68q0 43 28 70.5t71 27.5z" />
    <glyph glyph-name="Gcommaaccent" unicode="&#x122;" horiz-adv-x="1259" 
d="M735 670h391v-559q-182 -134 -432 -134q-233 0 -368 129q-209 200 -209 584q0 318 149.5 508.5t399.5 190.5q225 0 350 -152q38 -44 58 -94t34 -133h-115q-37 144 -115.5 209t-215.5 65q-192 0 -305 -160.5t-113 -435.5q0 -163 43 -293t125 -209q104 -104 284 -104
q158 0 318 88v389h-279v111zM635 -487h-86q119 109 131 194q-8 -2 -18 -2q-34 0 -59 26.5t-25 63.5q0 40 28.5 68t69.5 28q46 0 75 -33.5t29 -86.5q0 -63 -34 -123.5t-111 -134.5z" />
    <glyph glyph-name="gcommaaccent" unicode="&#x123;" horiz-adv-x="958" 
d="M911 969v-86l-198 6q46 -40 71 -102t25 -136q0 -67 -24.5 -126.5t-67.5 -94.5q-31 -26 -71.5 -41t-156.5 -47q-110 -30 -156.5 -57t-45.5 -62q1 -31 34.5 -42t155.5 -23q143 -13 203 -26t111 -40q59 -34 90.5 -90.5t31.5 -128.5q0 -135 -115 -214t-311 -79
q-190 0 -304.5 76.5t-114.5 204.5q0 88 49 145.5t157 95.5q-54 20 -78 46.5t-24 64.5q0 51 39.5 87t134.5 71q-203 73 -203 280q0 148 93.5 237t248.5 89q68 0 140 -19zM485 887q-104 0 -166.5 -63.5t-62.5 -168.5q0 -98 60.5 -158.5t160.5 -60.5q98 0 159.5 61t61.5 158
q0 100 -60.5 166t-152.5 66zM487 47q-149 0 -233 -48t-84 -134q0 -85 87 -136t232 -51q149 0 233.5 49.5t84.5 137.5q0 89 -81.5 135.5t-238.5 46.5zM539 1516h86q-113 -100 -129 -187h16q35 0 59.5 -25.5t24.5 -62.5q0 -38 -28 -65t-66 -27q-46 0 -74.5 32.5t-28.5 84.5
q0 61 33 120t107 130z" />
    <glyph glyph-name="Hcircumflex" unicode="&#x124;" horiz-adv-x="1267" 
d="M297 764h674v602h116v-1366h-116v668h-674v-668h-117v1366h117v-602zM297 1497l262 262h152l260 -262h-109l-227 189l-227 -189h-111z" />
    <glyph glyph-name="Hbar" unicode="&#x126;" horiz-adv-x="1267" 
d="M971 1098v268h116v-268h138v-97h-138v-1001h-116v668h-674v-668h-117v1001h-137v97h137v268h117v-268h674zM971 1001h-674v-237h674v237z" />
    <glyph glyph-name="hbar" unicode="&#x127;" horiz-adv-x="993" 
d="M154 1370h106v-145h272v-88h-272v-283q57 76 121.5 108.5t157.5 32.5q89 0 157 -33.5t105 -95.5q26 -43 34.5 -103t8.5 -208v-555h-107v563q0 116 -5.5 161.5t-24.5 80.5q-52 94 -179 94q-130 0 -199 -91t-69 -263v-545h-106v1137h-123v88h123v145z" />
    <glyph glyph-name="Imacron" unicode="&#x12a;" horiz-adv-x="475" 
d="M297 0h-121v1366h121v-1366zM0 1671h475v-92h-475v92z" />
    <glyph glyph-name="imacron" unicode="&#x12b;" horiz-adv-x="423" 
d="M154 969h116v-969h-116v969zM-8 1329h438v-94h-438v94z" />
    <glyph glyph-name="ibreve" unicode="&#x12d;" horiz-adv-x="423" 
d="M154 969h116v-969h-116v969zM-18 1395h77q15 -72 56 -112t100 -40t98 39.5t54 112.5h77q-27 -256 -225 -256q-100 0 -163.5 68t-73.5 188z" />
    <glyph glyph-name="Iogonek" unicode="&#x12e;" horiz-adv-x="475" 
d="M362 -270v-88q-56 -23 -94 -23q-71 0 -121.5 50t-50.5 120q0 54 27.5 98t103.5 113h-49v1366h121v-1366q-35 -45 -59.5 -103t-24.5 -92q0 -37 25.5 -63.5t60.5 -26.5q10 0 61 15z" />
    <glyph glyph-name="iogonek" unicode="&#x12f;" horiz-adv-x="423" 
d="M270 969v-969q-75 -109 -75 -174q0 -40 23.5 -65t60.5 -25q17 0 63 14v-86q-53 -18 -84 -18q-74 0 -126 46.5t-52 112.5q0 49 28 94t93 101h-47v969h116zM213 1382q38 0 64 -27t26 -65t-26 -63t-64 -25q-40 0 -65 24t-25 64t26 66t64 26z" />
    <glyph glyph-name="Idotaccent" unicode="&#x130;" horiz-adv-x="475" 
d="M297 0h-121v1366h121v-1366zM240 1743q49 0 81.5 -32.5t32.5 -82.5t-33.5 -84.5t-82.5 -34.5q-48 0 -82.5 35t-34.5 84q0 50 33.5 82.5t85.5 32.5z" />
    <glyph glyph-name="dotlessi" unicode="&#x131;" horiz-adv-x="423" 
d="M154 969h116v-969h-116v969z" />
    <glyph glyph-name="ij" unicode="&#x133;" horiz-adv-x="915" 
d="M154 969h116v-969h-116v969zM211 1382q38 0 64 -26t26 -66q0 -38 -25 -63t-63 -25q-40 0 -66 25t-26 63t26.5 65t63.5 27zM645 969h117v-903q0 -149 -10 -215t-39 -113q-76 -125 -287 -125q-19 0 -39 2h-20v96q18 -2 36 -2q154 0 205 82q22 35 29.5 91t7.5 184v903z
M702 1382q38 0 64.5 -27t26.5 -65t-26 -63t-65 -25q-40 0 -65 25t-25 63q0 40 26 66t64 26z" />
    <glyph glyph-name="Kcommaaccent" unicode="&#x136;" horiz-adv-x="1099" 
d="M870 1366h148l-574 -651l633 -715h-168l-610 713zM180 1366h117v-1366h-117v1366zM553 -487h-86q119 109 131 194q-8 -2 -18 -2q-34 0 -60 27.5t-26 62.5q0 38 30 67t70 29q45 0 74.5 -34t29.5 -86q0 -119 -145 -258z" />
    <glyph glyph-name="kcommaaccent" unicode="&#x137;" horiz-adv-x="948" 
d="M690 969h131l-418 -432l447 -537h-152l-434 532zM154 1370h106v-1370h-106v1370zM434 -475h-86q114 105 129 188q-8 -2 -18 -2q-34 0 -58 25.5t-24 62.5q0 38 27 65t67 27q46 0 74 -32t28 -84q0 -117 -139 -250z" />
    <glyph glyph-name="kgreenlandic" unicode="&#x138;" horiz-adv-x="948" 
d="M690 969h131l-418 -432l447 -537h-152l-434 532zM154 969h106v-969h-106v969z" />
    <glyph glyph-name="Lacute" unicode="&#x139;" horiz-adv-x="946" 
d="M178 1366h121v-1264h584v-102h-705v1366zM152 1495l264 264h170l-316 -264h-118z" />
    <glyph glyph-name="lacute" unicode="&#x13a;" horiz-adv-x="423" 
d="M154 1370h116v-1370h-116v1370zM139 1495l209 264h164l-260 -264h-113z" />
    <glyph glyph-name="Lcommaaccent" unicode="&#x13b;" horiz-adv-x="946" 
d="M180 1366h121v-1264h582v-102h-703v1366zM496 -487h-86q119 109 131 194q-8 -2 -19 -2q-35 0 -59.5 26.5t-24.5 63.5q0 40 29 68t70 28q46 0 75 -33.5t29 -86.5q0 -119 -145 -258z" />
    <glyph glyph-name="lcommaaccent" unicode="&#x13c;" horiz-adv-x="423" 
d="M154 1370h116v-1370h-116v1370zM170 -475h-84q115 106 127 188q-6 -2 -16 -2q-33 0 -58.5 26.5t-25.5 61.5q0 37 28.5 64.5t67.5 27.5q46 0 74 -32t28 -84q0 -115 -141 -250z" />
    <glyph glyph-name="Lcaron" unicode="&#x13d;" horiz-adv-x="946" 
d="M180 1366h121v-1264h582v-102h-703v1366zM565 1014h-88q121 108 133 194q-8 -2 -18 -2q-34 0 -60 27.5t-26 64.5q0 40 28.5 67.5t71.5 27.5q46 0 75.5 -33.5t29.5 -85.5q0 -63 -34.5 -124.5t-111.5 -135.5z" />
    <glyph glyph-name="lcaron" unicode="&#x13e;" horiz-adv-x="536" 
d="M154 1370h116v-1370h-116v1370zM436 1026h-84q115 105 127 188q-6 -2 -16 -2q-32 0 -58 27t-26 61q0 38 28 65.5t68 27.5q46 0 74.5 -32.5t28.5 -84.5q0 -114 -142 -250z" />
    <glyph glyph-name="Ldot" unicode="&#x13f;" horiz-adv-x="946" 
d="M180 1366h121v-1264h582v-102h-703v1366zM698 807q50 0 84.5 -34.5t34.5 -84.5t-34.5 -84.5t-84.5 -34.5q-49 0 -83.5 34.5t-34.5 84.5q0 51 33.5 85t84.5 34z" />
    <glyph glyph-name="ldot" unicode="&#x140;" horiz-adv-x="620" 
d="M154 1370h116v-1370h-116v1370zM514 819q43 0 73.5 -31t30.5 -75t-30 -74.5t-74 -30.5q-42 0 -74 32t-32 73q0 43 31.5 74.5t74.5 31.5z" />
    <glyph glyph-name="Lslash" unicode="&#x141;" horiz-adv-x="946" 
d="M180 694v672h121v-606l301 223v-117l-301 -223v-541h582v-102h-703v578l-137 -103v117z" />
    <glyph glyph-name="lslash" unicode="&#x142;" horiz-adv-x="423" 
d="M154 743v627h116v-569l148 108v-104l-148 -109v-696h-116v639l-150 -109v105z" />
    <glyph glyph-name="Nacute" unicode="&#x143;" horiz-adv-x="1284" 
d="M180 1366h129l688 -1196v1196h109v-1366h-135l-680 1192v-1192h-111v1366zM512 1495l264 264h170l-315 -264h-119z" />
    <glyph glyph-name="nacute" unicode="&#x144;" horiz-adv-x="1005" 
d="M131 969h105q18 -58 18 -146q97 172 297 172q106 0 179 -43t101 -121q17 -46 21 -88t4 -188v-555h-106v563q0 118 -5 161.5t-24 80.5q-48 94 -178 94q-132 0 -207.5 -91t-75.5 -251v-557h-106v645q0 175 -3 216t-20 108zM375 1145l194 262h170l-268 -262h-96z" />
    <glyph glyph-name="Ncommaaccent" unicode="&#x145;" horiz-adv-x="1284" 
d="M180 1366h129l688 -1196v1196h109v-1366h-135l-680 1192v-1192h-111v1366zM586 -487h-86q119 109 131 194q-8 -2 -19 -2q-35 0 -59.5 26.5t-24.5 63.5q0 40 29 68t70 28q46 0 75 -33.5t29 -86.5q0 -119 -145 -258z" />
    <glyph glyph-name="ncommaaccent" unicode="&#x146;" horiz-adv-x="1005" 
d="M131 969h105q18 -58 18 -146q97 172 297 172q106 0 179 -43t101 -121q17 -46 21 -88t4 -188v-555h-106v563q0 118 -5 161.5t-24 80.5q-48 94 -178 94q-132 0 -207.5 -91t-75.5 -251v-557h-106v645q0 175 -3 216t-20 108zM467 -475h-86q114 105 129 188q-8 -2 -18 -2
q-34 0 -58 25.5t-24 62.5q0 38 27 65t67 27q46 0 74 -32t28 -84q0 -117 -139 -250z" />
    <glyph glyph-name="Ncaron" unicode="&#x147;" horiz-adv-x="1284" 
d="M180 1366h129l688 -1196v1196h109v-1366h-135l-680 1192v-1192h-111v1366zM979 1759l-260 -262h-152l-260 262h109l227 -188l227 188h109z" />
    <glyph glyph-name="ncaron" unicode="&#x148;" horiz-adv-x="1005" 
d="M131 969h105q18 -58 18 -146q97 172 297 172q106 0 179 -43t101 -121q17 -46 21 -88t4 -188v-555h-106v563q0 118 -5 161.5t-24 80.5q-48 94 -178 94q-132 0 -207.5 -91t-75.5 -251v-557h-106v645q0 175 -3 216t-20 108zM782 1423l-225 -278h-154l-225 278h109l194 -198
l193 198h108z" />
    <glyph glyph-name="napostrophe" unicode="&#x149;" horiz-adv-x="1210" 
d="M207 938h-129q66 60 109.5 124.5t50.5 115.5h-21q-40 0 -68 29.5t-28 72.5q0 46 32 77.5t78 31.5q54 0 87.5 -38.5t33.5 -101.5q0 -143 -145 -311zM336 969h104q19 -61 19 -146q97 172 297 172q106 0 179 -43t101 -121q17 -46 21 -88t4 -188v-555h-107v563
q0 119 -5 162.5t-23 79.5q-48 94 -178 94q-132 0 -207.5 -91t-75.5 -251v-557h-107v645q0 182 -2.5 221.5t-19.5 102.5z" />
    <glyph glyph-name="Eng" unicode="&#x14a;" horiz-adv-x="1163" 
d="M152 1389h112q25 -71 25 -172q110 172 340 172q109 0 192.5 -43t124.5 -121q25 -45 34 -105t9 -170v-913q0 -130 -4.5 -174.5t-23.5 -85.5q-34 -75 -118 -119.5t-194 -44.5q-25 0 -43 2v102q10 -2 23 -2q9 3 61 9q136 15 172 124q12 40 12 191v917q0 160 -45 224
q-66 104 -219 104q-83 0 -151 -32t-109 -91q-31 -44 -43 -96t-12 -137v-928h-115v1038q0 196 -3.5 239t-24.5 112z" />
    <glyph glyph-name="eng" unicode="&#x14b;" horiz-adv-x="1001" 
d="M129 969h104q19 -61 19 -146q97 172 297 172q106 0 179 -43t101 -121q17 -46 21 -88t4 -188v-489q0 -148 -10 -213t-39 -115q-76 -125 -289 -125q-17 0 -37 2h-20v96q18 -2 37 -2q161 0 215 82q22 35 29.5 91t7.5 184v497q0 119 -5 162t-24 80q-48 94 -178 94
q-132 0 -207.5 -91t-75.5 -251v-557h-106v645q0 175 -3 216t-20 108z" />
    <glyph glyph-name="Omacron" unicode="&#x14c;" horiz-adv-x="1304" 
d="M653 1389q236 0 386.5 -197.5t150.5 -507.5q0 -312 -150.5 -509.5t-386.5 -197.5q-239 0 -387.5 198t-148.5 517q0 304 151.5 500.5t384.5 196.5zM653 1284q-116 0 -210 -76.5t-146.5 -212.5t-52.5 -305q0 -269 114 -438.5t295 -169.5q118 0 211.5 77t146 214.5
t52.5 310.5q0 261 -116 430.5t-294 169.5zM369 1671h569v-92h-569v92z" />
    <glyph glyph-name="omacron" unicode="&#x14d;" horiz-adv-x="1009" 
d="M506 995q181 0 293 -141t112 -369q0 -226 -112.5 -368t-292.5 -142q-183 0 -294.5 142t-111.5 375q0 223 113 363t293 140zM506 899q-131 0 -213 -114.5t-82 -295.5q0 -187 81.5 -302t213.5 -115q129 0 212 116t83 297q0 183 -82.5 298.5t-212.5 115.5zM219 1329h549v-94
h-549v94z" />
    <glyph glyph-name="Ohungarumlaut" unicode="&#x150;" horiz-adv-x="1304" 
d="M653 1389q157 0 279 -88.5t190 -248.5t68 -366q0 -319 -149 -514t-394 -195q-155 0 -275.5 89.5t-187.5 250.5t-67 367q0 207 67 367.5t189 249t280 88.5zM653 1284q-184 0 -296.5 -165t-112.5 -435q0 -269 111.5 -435.5t291.5 -166.5q189 0 302.5 164.5t113.5 439.5
q0 267 -113.5 432.5t-296.5 165.5zM489 1495l197 264h135l-229 -264h-103zM702 1495l195 264h137l-231 -264h-101z" />
    <glyph glyph-name="ohungarumlaut" unicode="&#x151;" horiz-adv-x="1009" 
d="M506 995q181 0 293 -141t112 -369q0 -226 -112.5 -368t-292.5 -142q-183 0 -294.5 142t-111.5 375q0 223 113 363t293 140zM506 899q-131 0 -213 -114.5t-82 -295.5q0 -187 81.5 -302t213.5 -115q129 0 212 116t83 297q0 183 -82.5 298.5t-212.5 115.5zM354 1143l174 262
h136l-207 -262h-103zM567 1143l172 262h138l-209 -262h-101z" />
    <glyph glyph-name="OE" unicode="&#x152;" horiz-adv-x="1880" 
d="M1067 1167v199h705v-102h-590v-506h551v-103h-549v-553h598v-102h-715v201q-78 -115 -174.5 -169.5t-224.5 -54.5q-250 0 -400.5 191.5t-150.5 509.5q0 324 150 517.5t401 193.5q126 0 220.5 -53t178.5 -169zM655 1284q-184 0 -297.5 -164t-113.5 -430q0 -280 113 -444
t305 -164q185 0 294 162.5t109 437.5t-111.5 438.5t-298.5 163.5z" />
    <glyph glyph-name="oe" unicode="&#x153;" horiz-adv-x="1662" 
d="M1561 463h-654q6 -164 62 -260q38 -63 99.5 -97t133.5 -34q83 0 145.5 41.5t96.5 119.5l102 -18q-93 -240 -344 -240q-242 0 -358 232q-61 -120 -143 -176t-195 -56q-182 0 -294 140.5t-112 367.5q0 230 113 371t297 141q117 0 198 -57t138 -180q106 237 342 237
q166 0 271.5 -131t105.5 -336q0 -7 -4 -65zM907 551h533q-2 161 -71 254.5t-187 93.5q-114 0 -186 -90.5t-89 -257.5zM506 899q-134 0 -213.5 -112.5t-79.5 -301.5q0 -186 80 -299.5t211 -113.5q126 0 204 114.5t78 300.5q0 184 -77 298t-203 114z" />
    <glyph glyph-name="Racute" unicode="&#x154;" horiz-adv-x="1130" 
d="M180 1366h209q159 0 227.5 -7t135.5 -30q106 -34 167.5 -124.5t61.5 -213.5q0 -269 -295 -368l375 -623h-143l-367 606h-254v-606h-117v1366zM297 709h96q137 0 190.5 5t104.5 23q79 28 122.5 94.5t43.5 161.5q0 86 -38 150t-105 90q-50 19 -110.5 25t-205.5 6h-98v-555z
M395 1495l264 264h170l-315 -264h-119z" />
    <glyph glyph-name="racute" unicode="&#x155;" horiz-adv-x="634" 
d="M139 969h101q16 -78 16 -148q0 -34 -2 -61q51 125 109 180t137 55q69 0 129 -32v-107q-49 22 -73 28.5t-52 6.5q-57 0 -108.5 -42.5t-86.5 -117.5q-47 -105 -47 -303v-428h-108v623q0 152 -2.5 206t-12.5 140zM258 1145l195 262h172l-271 -262h-96z" />
    <glyph glyph-name="Rcommaaccent" unicode="&#x156;" horiz-adv-x="1130" 
d="M180 1366h209q159 0 227.5 -7t135.5 -30q106 -34 167.5 -124.5t61.5 -213.5q0 -269 -295 -368l375 -623h-143l-367 606h-254v-606h-117v1366zM297 709h96q137 0 190.5 5t104.5 23q79 28 122.5 94.5t43.5 161.5q0 86 -38 150t-105 90q-50 19 -110.5 25t-205.5 6h-98v-555z
M551 -487h-88q119 109 131 194q-6 -2 -16 -2q-35 0 -60.5 26.5t-25.5 63.5q0 40 29 68t69 28q46 0 76 -34t30 -86q0 -119 -145 -258z" />
    <glyph glyph-name="rcommaaccent" unicode="&#x157;" horiz-adv-x="634" 
d="M139 969h101q16 -78 16 -148q0 -34 -2 -61q51 124 108.5 179.5t135.5 55.5q69 0 129 -32v-107q-49 22 -73 28.5t-52 6.5q-55 0 -106.5 -42.5t-86.5 -117.5q-47 -105 -47 -303v-428h-108v623q0 155 -2.5 211t-12.5 135zM170 -475h-84q115 106 127 188q-6 -2 -16 -2
q-33 0 -58.5 26.5t-25.5 61.5q0 37 28.5 64.5t67.5 27.5q46 0 74 -32t28 -84q0 -115 -141 -250z" />
    <glyph glyph-name="Rcaron" unicode="&#x158;" horiz-adv-x="1130" 
d="M180 1366h209q159 0 227.5 -7t135.5 -30q106 -34 167.5 -124.5t61.5 -213.5q0 -269 -295 -368l375 -623h-143l-367 606h-254v-606h-117v1366zM297 709h96q137 0 190.5 5t104.5 23q79 28 122.5 94.5t43.5 161.5q0 86 -38 150t-105 90q-50 19 -110.5 25t-205.5 6h-98v-555z
M868 1759l-260 -262h-151l-262 262h110l227 -188l228 188h108z" />
    <glyph glyph-name="rcaron" unicode="&#x159;" horiz-adv-x="634" 
d="M139 969h101q16 -78 16 -148q0 -34 -2 -61q51 125 109 180t137 55q69 0 129 -32v-107q-49 22 -73 28.5t-52 6.5q-57 0 -108.5 -42.5t-86.5 -117.5q-47 -105 -47 -303v-428h-108v623q0 155 -2.5 211t-12.5 135zM672 1423l-226 -278h-151l-227 278h108l195 -198l192 198
h109z" />
    <glyph glyph-name="Sacute" unicode="&#x15a;" horiz-adv-x="1107" 
d="M940 1028h-115q-12 124 -83.5 190t-194.5 66q-114 0 -190 -65t-76 -162q0 -96 86 -160q34 -25 66 -41.5t183 -85.5q124 -58 190 -101t101 -89q74 -92 74 -224q0 -169 -119.5 -274t-310.5 -105q-232 0 -348 150q-42 55 -62 116.5t-24 155.5h116q8 -152 91 -234.5
t231 -82.5q133 0 218 74.5t85 191.5q0 108 -78 180q-31 29 -72 53.5t-130 65.5q-217 98 -285 148q-131 96 -131 254q0 148 111.5 244t281.5 96q173 0 274.5 -95.5t110.5 -265.5zM420 1495l264 264h170l-315 -264h-119z" />
    <glyph glyph-name="sacute" unicode="&#x15b;" horiz-adv-x="866" 
d="M756 711h-105q-11 97 -62 142.5t-149 45.5q-90 0 -147 -45.5t-57 -116.5q0 -62 46.5 -98t176.5 -74q122 -37 176.5 -62.5t85.5 -60.5q55 -64 55 -170q0 -135 -92 -216t-246 -81q-164 0 -254 82.5t-90 233.5h105q11 -107 71.5 -163t167.5 -56q101 0 163.5 52.5t62.5 137.5
t-64 127q-25 18 -56.5 30t-160.5 52q-152 47 -201 104q-57 67 -57 158q0 117 87.5 189.5t227.5 72.5q149 0 229.5 -72t86.5 -212zM336 1145l196 262h170l-270 -262h-96z" />
    <glyph glyph-name="Scircumflex" unicode="&#x15c;" horiz-adv-x="1107" 
d="M940 1028h-115q-12 124 -83.5 190t-194.5 66q-114 0 -190 -65t-76 -162q0 -96 86 -160q34 -25 66 -41.5t183 -85.5q124 -58 190 -101t101 -89q74 -92 74 -224q0 -169 -119.5 -274t-310.5 -105q-232 0 -348 150q-42 55 -62 116.5t-24 155.5h116q8 -152 91 -234.5
t231 -82.5q133 0 218 74.5t85 191.5q0 108 -78 180q-31 29 -72 53.5t-130 65.5q-217 98 -285 148q-131 96 -131 254q0 148 111.5 244t281.5 96q173 0 274.5 -95.5t110.5 -265.5zM219 1497l260 262h152l262 -262h-111l-227 189l-227 -189h-109z" />
    <glyph glyph-name="scircumflex" unicode="&#x15d;" horiz-adv-x="866" 
d="M756 711h-105q-11 97 -62 142.5t-149 45.5q-90 0 -147 -45.5t-57 -116.5q0 -62 46.5 -98t176.5 -74q122 -37 176.5 -62.5t85.5 -60.5q55 -64 55 -170q0 -135 -92 -216t-246 -81q-164 0 -254 82.5t-90 233.5h105q11 -107 71.5 -163t167.5 -56q101 0 163.5 52.5t62.5 137.5
t-64 127q-25 18 -56.5 30t-160.5 52q-152 47 -201 104q-57 67 -57 158q0 117 87.5 189.5t227.5 72.5q149 0 229.5 -72t86.5 -212zM145 1145l228 278h151l228 -278h-111l-192 198l-193 -198h-111z" />
    <glyph glyph-name="Scedilla" unicode="&#x15e;" horiz-adv-x="1107" 
d="M565 -23l-53 -120q95 -9 140.5 -48.5t45.5 -111.5q0 -78 -55 -123t-151 -45q-70 0 -146 25v77q63 -18 103 -18q55 0 87.5 26.5t32.5 69.5q0 47 -38 68t-130 24l76 181q-169 22 -261.5 129.5t-98.5 287.5h116q7 -154 90.5 -235.5t231.5 -81.5q135 0 219 73.5t84 192.5
q0 101 -56 161t-224 138q-221 101 -285 148q-129 99 -129 254q0 149 110 244.5t281 95.5q174 0 276 -95t111 -266h-115q-13 124 -84.5 190t-193.5 66q-115 0 -190.5 -64.5t-75.5 -162.5q0 -97 84 -160q36 -25 67.5 -41.5t181.5 -85.5q126 -59 191.5 -101t101.5 -89
q72 -93 72 -224q0 -166 -115 -271t-301 -108z" />
    <glyph glyph-name="scedilla" unicode="&#x15f;" horiz-adv-x="866" 
d="M461 -25l-49 -96q172 -21 172 -143q0 -71 -53.5 -114.5t-139.5 -43.5q-74 0 -143 27v71q68 -18 104 -18q51 0 81 24.5t30 65.5q0 44 -37 66t-123 26l74 140q-138 15 -211.5 96t-71.5 215h107q9 -107 69.5 -163t169.5 -56q100 0 162 52t62 138q0 84 -64 127
q-25 18 -56.5 30t-160.5 52q-139 43 -197.5 102.5t-58.5 159.5q0 118 87 190t228 72q148 0 229 -72.5t85 -211.5h-103q-10 97 -62.5 142.5t-150.5 45.5q-91 0 -146.5 -45t-55.5 -117q0 -63 45.5 -98.5t175.5 -73.5q123 -37 177 -62.5t85 -60.5q55 -64 55 -170
q0 -132 -83 -210t-232 -87z" />
    <glyph glyph-name="Scaron" unicode="&#x160;" horiz-adv-x="1107" 
d="M940 1028h-115q-12 124 -83.5 190t-194.5 66q-114 0 -190 -65t-76 -162q0 -96 86 -160q34 -25 66 -41.5t183 -85.5q124 -58 190 -101t101 -89q74 -92 74 -224q0 -169 -119.5 -274t-310.5 -105q-232 0 -348 150q-42 55 -62 116.5t-24 155.5h116q8 -152 91 -234.5
t231 -82.5q133 0 218 74.5t85 191.5q0 108 -78 180q-31 29 -72 53.5t-130 65.5q-217 98 -285 148q-131 96 -131 254q0 148 111.5 244t281.5 96q173 0 274.5 -95.5t110.5 -265.5zM893 1759l-262 -262h-152l-260 262h109l227 -188l227 188h111z" />
    <glyph glyph-name="scaron" unicode="&#x161;" horiz-adv-x="866" 
d="M756 711h-105q-11 97 -62 142.5t-149 45.5q-90 0 -147 -45.5t-57 -116.5q0 -62 46.5 -98t176.5 -74q122 -37 176.5 -62.5t85.5 -60.5q55 -64 55 -170q0 -135 -92 -216t-246 -81q-164 0 -254 82.5t-90 233.5h105q11 -107 71.5 -163t167.5 -56q101 0 163.5 52.5t62.5 137.5
t-64 127q-25 18 -56.5 30t-160.5 52q-152 47 -201 104q-57 67 -57 158q0 117 87.5 189.5t227.5 72.5q149 0 229.5 -72t86.5 -212zM748 1423l-226 -278h-153l-226 278h109l194 -198l193 198h109z" />
    <glyph glyph-name="Tcommaaccent" unicode="&#x162;" horiz-adv-x="921" 
d="M49 1366h823v-102h-352v-1264h-117v1264h-354v102zM418 -487h-86q119 109 131 194q-8 -2 -19 -2q-34 0 -60 27.5t-26 62.5q0 38 30.5 67t70.5 29q45 0 74.5 -34t29.5 -86q0 -119 -145 -258z" />
    <glyph glyph-name="tcommaaccent" unicode="&#x163;" horiz-adv-x="612" 
d="M311 969h242v-88h-244l-10 -531l-2 -86v-24q0 -97 23.5 -131.5t89.5 -34.5q70 0 139 32v-98q-74 -26 -158 -26q-111 0 -159 45t-48 149q0 21 4 103l2 77l13 525h-146v88h148l4 280h106zM297 -475h-84q115 106 127 188q-6 -2 -16 -2q-33 0 -58.5 26.5t-25.5 61.5
q0 37 28.5 64.5t67.5 27.5q46 0 74 -32t28 -84q0 -115 -141 -250z" />
    <glyph glyph-name="Tcaron" unicode="&#x164;" horiz-adv-x="921" 
d="M49 1366h823v-102h-352v-1264h-117v1264h-354v102zM797 1759l-260 -262h-152l-260 262h108l228 -188l227 188h109z" />
    <glyph glyph-name="tcaron" unicode="&#x165;" horiz-adv-x="579" 
d="M311 969h242v-88h-244l-10 -531l-2 -86v-24q0 -97 23.5 -131.5t89.5 -34.5q70 0 139 32v-98q-74 -26 -158 -26q-111 0 -159 45t-48 149q0 21 4 103l2 77l13 525h-146v88h148l4 280h106zM481 1079h-86q115 106 127 189q-6 -2 -16 -2q-34 0 -58 25.5t-24 62.5q0 40 27 66
t67 26q46 0 74.5 -32.5t28.5 -84.5q0 -113 -140 -250z" />
    <glyph glyph-name="Tbar" unicode="&#x166;" horiz-adv-x="921" 
d="M49 1366h823v-102h-352v-383h266v-97h-266v-784h-117v784h-268v97h268v383h-354v102z" />
    <glyph glyph-name="tbar" unicode="&#x167;" horiz-adv-x="612" 
d="M309 969h244v-88h-246l-2 -162h242v-88h-244l-4 -281q-2 -102 -2 -108q0 -100 23 -134t90 -34q64 0 139 32v-98q-86 -26 -158 -26q-110 0 -158.5 44.5t-48.5 145.5q0 25 4 107l2 77l9 275h-142v88h142l4 162h-146v88h146l6 280h106z" />
    <glyph glyph-name="utilde" unicode="&#x169;" horiz-adv-x="978" 
d="M150 969h106v-604q0 -91 7.5 -136t29.5 -77q26 -37 72.5 -58.5t101.5 -21.5q66 0 121 31.5t90 89.5q43 71 43 219v557h106v-676q0 -165 3 -204t20 -89h-109q-20 64 -20 137q-41 -85 -102 -123.5t-154 -38.5q-94 0 -170 42t-113 114q-20 39 -26 86t-6 152v600zM266 1163
l-76 17q34 211 170 211q63 0 140 -60q49 -38 75.5 -51.5t51.5 -13.5q70 0 88 131l80 -19q-12 -101 -56 -159t-110 -58t-154 66q-79 61 -117 61q-68 0 -92 -125z" />
    <glyph glyph-name="Umacron" unicode="&#x16a;" horiz-adv-x="1245" 
d="M160 1366h116v-811q1 -187 11 -245.5t47 -108.5q41 -56 118 -87.5t171 -31.5q114 0 198.5 43.5t118.5 118.5q20 43 24.5 93t6.5 218v811h116v-813q0 -173 -4 -220.5t-22 -99.5q-43 -122 -157.5 -189t-280.5 -67q-164 0 -279 67.5t-158 188.5q-18 52 -22 99.5t-4 220.5
v813zM338 1671h571v-92h-571v92z" />
    <glyph glyph-name="umacron" unicode="&#x16b;" horiz-adv-x="978" 
d="M150 969h106v-604q0 -91 7.5 -136t29.5 -77q26 -37 72.5 -58.5t101.5 -21.5q66 0 121 31.5t90 89.5q43 71 43 219v557h106v-676q0 -165 3 -204t20 -89h-109q-20 64 -20 137q-41 -85 -102 -123.5t-154 -38.5q-94 0 -170 42t-113 114q-20 39 -26 86t-6 152v600zM211 1329
h549v-94h-549v94z" />
    <glyph glyph-name="ubreve" unicode="&#x16d;" horiz-adv-x="978" 
d="M150 969h106v-604q0 -91 7.5 -136t29.5 -77q26 -37 72.5 -58.5t101.5 -21.5q66 0 121 31.5t90 89.5q43 71 43 219v557h106v-676q0 -165 3 -204t20 -89h-109q-20 64 -20 137q-41 -85 -102 -123.5t-154 -38.5q-94 0 -170 42t-113 114q-20 39 -26 86t-6 152v600zM248 1409
h78q15 -77 59.5 -121.5t106.5 -44.5q63 0 105.5 43t59.5 123h78q-12 -127 -76 -198.5t-165 -71.5t-168.5 73.5t-77.5 196.5z" />
    <glyph glyph-name="Uring" unicode="&#x16e;" horiz-adv-x="1245" 
d="M160 1366h116v-811q1 -187 11 -245.5t47 -108.5q41 -56 118 -87.5t171 -31.5q114 0 198.5 43.5t118.5 118.5q20 43 24.5 93t6.5 218v811h116v-813q0 -173 -4 -220.5t-22 -99.5q-43 -122 -157.5 -189t-280.5 -67q-164 0 -279 67.5t-158 188.5q-18 52 -22 99.5t-4 220.5
v813zM627 1829q73 0 126.5 -54.5t53.5 -129.5q0 -77 -54 -131t-130 -54q-75 0 -129 54.5t-54 130.5q0 77 54.5 130.5t132.5 53.5zM625 1747q-41 0 -72 -30.5t-31 -71.5t30.5 -72t70.5 -31q41 0 71.5 31t30.5 72t-30 71.5t-70 30.5z" />
    <glyph glyph-name="uring" unicode="&#x16f;" horiz-adv-x="978" 
d="M150 969h106v-604q0 -91 7.5 -136t29.5 -77q26 -37 72.5 -58.5t101.5 -21.5q66 0 121 31.5t90 89.5q43 71 43 219v557h106v-676q0 -165 3 -204t20 -89h-109q-20 64 -20 137q-41 -85 -102 -123.5t-154 -38.5q-94 0 -170 42t-113 114q-20 39 -26 86t-6 152v600zM494 1481
q74 0 128 -55t54 -130q0 -74 -55 -129t-129 -55q-75 0 -130 54.5t-55 129.5q0 77 54.5 131t132.5 54zM492 1399q-42 0 -72.5 -30.5t-30.5 -72.5q0 -40 31.5 -71t71.5 -31t71 31t31 71t-31 71.5t-71 31.5z" />
    <glyph glyph-name="Uhungarumlaut" unicode="&#x170;" horiz-adv-x="1245" 
d="M160 1366h116v-811q1 -187 11 -245.5t47 -108.5q41 -56 118 -87.5t171 -31.5q114 0 198.5 43.5t118.5 118.5q20 43 24.5 93t6.5 218v811h116v-813q0 -173 -4 -220.5t-22 -99.5q-43 -122 -157.5 -189t-280.5 -67q-164 0 -279 67.5t-158 188.5q-18 52 -22 99.5t-4 220.5
v813zM440 1495l195 264h137l-229 -264h-103zM645 1495l195 264h137l-229 -264h-103z" />
    <glyph glyph-name="uhungarumlaut" unicode="&#x171;" horiz-adv-x="978" 
d="M150 969h106v-604q0 -91 7.5 -136t29.5 -77q26 -37 72.5 -58.5t101.5 -21.5q66 0 121 31.5t90 89.5q43 71 43 219v557h106v-676q0 -165 3 -204t20 -89h-109q-20 64 -20 137q-41 -85 -102 -123.5t-154 -38.5q-94 0 -170 42t-113 114q-20 39 -26 86t-6 152v600zM326 1143
l174 262h135l-207 -262h-102zM539 1143l172 262h137l-207 -262h-102z" />
    <glyph glyph-name="Uogonek" unicode="&#x172;" horiz-adv-x="1245" 
d="M969 -270v-88q-73 -23 -127 -23q-87 0 -147 51t-60 125q0 55 31.5 95.5t128.5 109.5q-89 -23 -168 -23q-168 0 -283 66.5t-158 189.5q-18 52 -22 99.5t-4 220.5v813h116v-811q1 -187 11 -245.5t47 -108.5q41 -56 118.5 -87.5t172.5 -31.5q114 0 197.5 43.5t117.5 118.5
q20 43 25.5 95.5t5.5 215.5v811h116v-813q0 -173 -4 -221.5t-22 -98.5q-22 -59 -58 -106.5t-118 -122.5q-71 -68 -98 -107.5t-27 -76.5q0 -47 33.5 -75t91.5 -28q39 0 84 13z" />
    <glyph glyph-name="uogonek" unicode="&#x173;" horiz-adv-x="978" 
d="M827 969v-676q0 -161 3 -202t18 -91q-93 -72 -117 -101t-24 -69q0 -42 32 -68t84 -26q43 0 78 14v-86q-64 -18 -110 -18q-88 0 -143.5 47t-55.5 121q0 57 26.5 90t122.5 96q-20 64 -20 137q-41 -85 -102 -123.5t-154 -38.5q-94 0 -170 42t-113 114q-20 39 -26 86t-6 152
v600h106v-604q0 -91 7.5 -136t29.5 -77q26 -37 72.5 -58.5t101.5 -21.5q66 0 121 31.5t90 89.5q43 71 43 219v557h106z" />
    <glyph glyph-name="Wcircumflex" unicode="&#x174;" horiz-adv-x="1527" 
d="M43 1366h113l264 -1196l295 1196h100l293 -1196l268 1196h113l-318 -1378h-120l-287 1128l-285 -1128h-121zM430 1497l262 262h152l260 -262h-109l-227 189l-227 -189h-111z" />
    <glyph glyph-name="Ycircumflex" unicode="&#x176;" horiz-adv-x="1013" 
d="M33 1366h137l340 -670l336 670h137l-420 -780l2 -586h-114l2 586zM172 1497l260 262h152l260 -262h-109l-227 189l-227 -189h-109z" />
    <glyph glyph-name="ycircumflex" unicode="&#x177;" horiz-adv-x="854" 
d="M33 969h114l279 -830l289 830h112l-315 -887q-65 -186 -92 -247.5t-64 -113.5q-94 -129 -268 -129h-35v97q69 -1 110.5 10t78 47t63.5 94t62 162zM129 1145l225 278h152l227 -278h-110l-193 198l-192 -198h-109z" />
    <glyph glyph-name="Ydieresis" unicode="&#x178;" horiz-adv-x="1013" 
d="M33 1366h137l340 -670l336 670h137l-420 -780l2 -586h-114l2 586zM330 1731q44 0 73 -29.5t29 -73.5t-30.5 -75t-73.5 -31q-42 0 -73.5 32t-31.5 74q0 44 30.5 73.5t76.5 29.5zM690 1731q43 0 73 -30t30 -73t-31 -74.5t-74 -31.5t-73.5 31t-30.5 75q0 45 29.5 74t76.5 29
z" />
    <glyph glyph-name="Zacute" unicode="&#x179;" horiz-adv-x="1003" 
d="M106 1366h826v-80l-727 -1184h715v-102h-852v90l718 1174h-680v102zM383 1495l264 264h170l-315 -264h-119z" />
    <glyph glyph-name="zacute" unicode="&#x17a;" horiz-adv-x="796" 
d="M84 969h676v-76l-590 -805h573v-88h-698v84l582 797h-543v88zM309 1145l195 262h170l-268 -262h-97z" />
    <glyph glyph-name="Zdotaccent" unicode="&#x17b;" horiz-adv-x="1003" 
d="M106 1366h826v-80l-727 -1184h715v-102h-852v90l718 1174h-680v102zM518 1743q51 0 83 -32t32 -83t-33.5 -85t-83.5 -34q-48 0 -82.5 35t-34.5 84t34 82t85 33z" />
    <glyph glyph-name="zdotaccent" unicode="&#x17c;" horiz-adv-x="796" 
d="M84 969h676v-76l-590 -805h573v-88h-698v84l582 797h-543v88zM424 1378q40 0 68 -28t28 -68q0 -41 -28 -69.5t-68 -28.5q-41 0 -69.5 28t-28.5 68q0 41 28.5 69.5t69.5 28.5z" />
    <glyph glyph-name="Zcaron" unicode="&#x17d;" horiz-adv-x="1003" 
d="M106 1366h826v-80l-727 -1184h715v-102h-852v90l718 1174h-680v102zM854 1759l-262 -262h-152l-260 262h109l227 -188l227 188h111z" />
    <glyph glyph-name="zcaron" unicode="&#x17e;" horiz-adv-x="796" 
d="M84 969h676v-76l-590 -805h573v-88h-698v84l582 797h-543v88zM725 1423l-225 -278h-154l-225 278h108l195 -198l192 198h109z" />
    <glyph glyph-name="florin" unicode="&#x192;" horiz-adv-x="1064" 
d="M686 967h205v-101h-221l-135 -762q-23 -135 -40 -197t-42 -102q-63 -102 -201 -102q-52 0 -99.5 13t-115.5 46l22 111q98 -68 185 -68q52 0 82.5 23.5t50.5 79.5q18 58 45 217l131 741h-191v101h209l27 155q33 180 82 246q72 94 194 94q75 0 154 -32l-20 -107
q-87 41 -140 41q-81 0 -118 -104q-21 -54 -41 -168z" />
    <glyph glyph-name="uni01CD" unicode="&#x1cd;" horiz-adv-x="1134" 
d="M522 1376h90l473 -1376h-122l-134 387h-524l-135 -387h-121zM795 489l-228 721l-229 -721h457zM903 1759l-260 -262h-151l-261 262h109l227 -188l228 188h108z" />
    <glyph glyph-name="uni01CE" unicode="&#x1ce;" horiz-adv-x="948" 
d="M244 727h-111q13 132 101.5 200t242.5 68q117 0 196.5 -43.5t104.5 -120.5q19 -61 19 -208v-355q0 -134 3.5 -174.5t20.5 -93.5h-106q-18 63 -25 137q-90 -162 -287 -162q-137 0 -220 76.5t-83 202.5q0 158 132.5 243t457.5 134v51q0 118 -49 167.5t-166 49.5
q-202 0 -231 -172zM690 436v111q-267 -52 -372 -116t-105 -173q0 -83 55 -134.5t144 -51.5q75 0 138 35.5t97 95.5q43 76 43 233zM786 1423l-227 -278h-151l-226 278h109l192 -198l193 198h110z" />
    <glyph glyph-name="uni01D3" unicode="&#x1d3;" horiz-adv-x="1245" 
d="M160 1366h116v-811q1 -187 11 -245.5t47 -108.5q41 -56 118 -87.5t171 -31.5q114 0 198.5 43.5t118.5 118.5q20 43 24.5 93t6.5 218v811h116v-813q0 -173 -4 -220.5t-22 -99.5q-43 -122 -157.5 -189t-280.5 -67q-164 0 -279 67.5t-158 188.5q-18 52 -22 99.5t-4 220.5
v813zM961 1759l-261 -262h-153l-260 262h108l228 -188l227 188h111z" />
    <glyph glyph-name="uni01D4" unicode="&#x1d4;" horiz-adv-x="978" 
d="M150 969h106v-604q0 -91 7.5 -136t29.5 -77q26 -37 72.5 -58.5t101.5 -21.5q66 0 121 31.5t90 89.5q43 71 43 219v557h106v-676q0 -165 3 -204t20 -89h-109q-20 64 -20 137q-41 -85 -102 -123.5t-154 -38.5q-94 0 -170 42t-113 114q-20 39 -26 86t-6 152v600zM788 1423
l-227 -278h-151l-228 278h111l192 -198l193 198h110z" />
    <glyph glyph-name="Gcaron" unicode="&#x1e6;" horiz-adv-x="1259" 
d="M735 670h391v-559q-182 -134 -432 -134q-233 0 -368 129q-209 200 -209 584q0 318 149.5 508.5t399.5 190.5q225 0 350 -152q38 -44 58 -94t34 -133h-115q-37 144 -115.5 209t-215.5 65q-192 0 -305 -160.5t-113 -435.5q0 -163 43 -293t125 -209q104 -104 284 -104
q158 0 318 88v389h-279v111zM1006 1759l-261 -262h-151l-262 262h110l228 -188l227 188h109z" />
    <glyph glyph-name="gcaron" unicode="&#x1e7;" horiz-adv-x="958" 
d="M911 969v-86l-198 6q46 -40 71 -102t25 -136q0 -67 -24.5 -126.5t-67.5 -94.5q-31 -26 -71.5 -41t-156.5 -47q-110 -30 -156.5 -57t-45.5 -62q1 -31 34.5 -42t155.5 -23q143 -13 203 -26t111 -40q59 -34 90.5 -90.5t31.5 -128.5q0 -135 -115 -214t-311 -79
q-190 0 -304.5 76.5t-114.5 204.5q0 88 49 145.5t157 95.5q-54 20 -78 46.5t-24 64.5q0 51 39.5 87t134.5 71q-203 73 -203 280q0 148 93.5 237t248.5 89q68 0 140 -19zM485 887q-104 0 -166.5 -63.5t-62.5 -168.5q0 -98 60.5 -158.5t160.5 -60.5q98 0 159.5 61t61.5 158
q0 100 -60.5 166t-152.5 66zM487 47q-149 0 -233 -48t-84 -134q0 -85 87 -136t232 -51q149 0 233.5 49.5t84.5 137.5q0 89 -81.5 135.5t-238.5 46.5zM799 1423l-228 -278h-151l-225 278h108l193 -198l192 198h111z" />
    <glyph glyph-name="uni01F4" unicode="&#x1f4;" horiz-adv-x="1259" 
d="M735 670h391v-559q-182 -134 -432 -134q-233 0 -368 129q-209 200 -209 584q0 318 149.5 508.5t399.5 190.5q225 0 350 -152q38 -44 58 -94t34 -133h-115q-37 144 -115.5 209t-215.5 65q-192 0 -305 -160.5t-113 -435.5q0 -163 43 -293t125 -209q104 -104 284 -104
q158 0 318 88v389h-279v111zM532 1495l265 264h172l-316 -264h-121z" />
    <glyph glyph-name="Scommaaccent" unicode="&#x218;" horiz-adv-x="1107" 
d="M940 1028h-115q-12 124 -83.5 190t-194.5 66q-114 0 -190 -65t-76 -162q0 -96 86 -160q34 -25 66 -41.5t183 -85.5q124 -58 190 -101t101 -89q74 -92 74 -224q0 -169 -119.5 -274t-310.5 -105q-232 0 -348 150q-42 55 -62 116.5t-24 155.5h116q8 -152 91 -234.5
t231 -82.5q133 0 218 74.5t85 191.5q0 108 -78 180q-31 29 -72 53.5t-130 65.5q-217 98 -285 148q-131 96 -131 254q0 148 111.5 244t281.5 96q173 0 274.5 -95.5t110.5 -265.5zM506 -487h-86q119 109 131 194q-8 -2 -19 -2q-35 0 -59 26.5t-24 63.5q0 40 28.5 68t69.5 28
q46 0 75 -33.5t29 -86.5q0 -119 -145 -258z" />
    <glyph glyph-name="scommaaccent" unicode="&#x219;" horiz-adv-x="866" 
d="M756 711h-105q-11 97 -62 142.5t-149 45.5q-90 0 -147 -45.5t-57 -116.5q0 -62 46.5 -98t176.5 -74q122 -37 176.5 -62.5t85.5 -60.5q55 -64 55 -170q0 -135 -92 -216t-246 -81q-164 0 -254 82.5t-90 233.5h105q11 -107 71.5 -163t167.5 -56q101 0 163.5 52.5t62.5 137.5
t-64 127q-25 18 -56.5 30t-160.5 52q-152 47 -201 104q-57 67 -57 158q0 117 87.5 189.5t227.5 72.5q149 0 229.5 -72t86.5 -212zM403 -475h-84q115 106 127 188q-6 -2 -16 -2q-34 0 -59 26.5t-25 61.5q0 38 28 65t68 27q45 0 74 -32t29 -84q0 -114 -142 -250z" />
    <glyph glyph-name="afii57929" unicode="&#x2bc;" horiz-adv-x="479" 
d="M207 938h-129q66 60 109.5 124.5t50.5 115.5h-21q-40 0 -68 29.5t-28 72.5q0 46 32 77.5t78 31.5q54 0 87.5 -38.5t33.5 -101.5q0 -143 -145 -311z" />
    <glyph glyph-name="circumflex" unicode="&#x2c6;" horiz-adv-x="1024" 
d="M209 1145l227 278h152l225 -278h-108l-193 198l-195 -198h-108z" />
    <glyph glyph-name="caron" unicode="&#x2c7;" horiz-adv-x="1024" 
d="M813 1423l-225 -278h-152l-227 278h108l195 -198l193 198h108z" />
    <glyph glyph-name="uni02C9" unicode="&#x2c9;" horiz-adv-x="1024" 
d="M238 1329h548v-94h-548v94z" />
    <glyph glyph-name="breve" unicode="&#x2d8;" horiz-adv-x="1024" 
d="M268 1409h78q15 -77 60 -121.5t108 -44.5q62 0 105.5 43.5t58.5 122.5h78q-12 -127 -76 -198.5t-164 -71.5q-102 0 -170 73.5t-78 196.5z" />
    <glyph glyph-name="dotaccent" unicode="&#x2d9;" horiz-adv-x="1024" 
d="M512 1378q40 0 68 -28t28 -68q0 -41 -28 -69.5t-68 -28.5q-41 0 -69.5 28t-28.5 68q0 41 28.5 69.5t69.5 28.5z" />
    <glyph glyph-name="ring" unicode="&#x2da;" horiz-adv-x="1024" 
d="M514 1481q74 0 128 -55t54 -130q0 -74 -55 -129t-129 -55q-75 0 -129.5 54.5t-54.5 129.5q0 77 54 131t132 54zM512 1399q-41 0 -71.5 -31t-30.5 -72q0 -40 31 -71t71 -31t71 31t31 71t-31 71.5t-71 31.5z" />
    <glyph glyph-name="ogonek" unicode="&#x2db;" horiz-adv-x="1024" 
d="M569 0h133q-194 -73 -194 -170q0 -41 33 -67.5t84 -26.5q42 0 80 14v-86q-64 -18 -113 -18q-86 0 -142.5 48t-56.5 120q0 62 47 111.5t129 74.5z" />
    <glyph glyph-name="tilde" unicode="&#x2dc;" horiz-adv-x="1024" 
d="M287 1163l-76 17q34 211 170 211q62 0 139 -60q49 -38 75.5 -51.5t51.5 -13.5q70 0 88 131l80 -19q-10 -101 -55 -159t-111 -58q-65 0 -151 66q-47 35 -72 48t-47 13q-68 0 -92 -125z" />
    <glyph glyph-name="hungarumlaut" unicode="&#x2dd;" horiz-adv-x="1024" 
d="M360 1143l175 262h135l-207 -262h-103zM571 1143l174 262h136l-207 -262h-103z" />
    <glyph glyph-name="tonos" unicode="&#x384;" 
d="M264 618q42 0 73.5 -32t31.5 -74q0 -44 -31 -74t-76 -30q-43 0 -73.5 30.5t-30.5 73.5t31.5 74.5t74.5 31.5z" />
    <glyph glyph-name="dieresistonos" unicode="&#x385;" 
d="M264 618q42 0 73.5 -32t31.5 -74q0 -44 -31 -74t-76 -30q-43 0 -73.5 30.5t-30.5 73.5t31.5 74.5t74.5 31.5z" />
    <glyph glyph-name="Alphatonos" unicode="&#x386;" 
d="M264 618q42 0 73.5 -32t31.5 -74q0 -44 -31 -74t-76 -30q-43 0 -73.5 30.5t-30.5 73.5t31.5 74.5t74.5 31.5z" />
    <glyph glyph-name="anoteleia" unicode="&#x387;" 
d="M264 618q42 0 73.5 -32t31.5 -74q0 -44 -31 -74t-76 -30q-43 0 -73.5 30.5t-30.5 73.5t31.5 74.5t74.5 31.5z" />
    <glyph glyph-name="Epsilontonos" unicode="&#x388;" 
d="M264 618q42 0 73.5 -32t31.5 -74q0 -44 -31 -74t-76 -30q-43 0 -73.5 30.5t-30.5 73.5t31.5 74.5t74.5 31.5z" />
    <glyph glyph-name="Etatonos" unicode="&#x389;" 
d="M264 618q42 0 73.5 -32t31.5 -74q0 -44 -31 -74t-76 -30q-43 0 -73.5 30.5t-30.5 73.5t31.5 74.5t74.5 31.5z" />
    <glyph glyph-name="Iotatonos" unicode="&#x38a;" 
d="M264 618q42 0 73.5 -32t31.5 -74q0 -44 -31 -74t-76 -30q-43 0 -73.5 30.5t-30.5 73.5t31.5 74.5t74.5 31.5z" />
    <glyph glyph-name="Omicrontonos" unicode="&#x38c;" 
d="M264 618q42 0 73.5 -32t31.5 -74q0 -44 -31 -74t-76 -30q-43 0 -73.5 30.5t-30.5 73.5t31.5 74.5t74.5 31.5z" />
    <glyph glyph-name="Upsilontonos" unicode="&#x38e;" 
d="M264 618q42 0 73.5 -32t31.5 -74q0 -44 -31 -74t-76 -30q-43 0 -73.5 30.5t-30.5 73.5t31.5 74.5t74.5 31.5z" />
    <glyph glyph-name="Omegatonos" unicode="&#x38f;" 
d="M264 618q42 0 73.5 -32t31.5 -74q0 -44 -31 -74t-76 -30q-43 0 -73.5 30.5t-30.5 73.5t31.5 74.5t74.5 31.5z" />
    <glyph glyph-name="iotadieresistonos" unicode="&#x390;" 
d="M264 618q42 0 73.5 -32t31.5 -74q0 -44 -31 -74t-76 -30q-43 0 -73.5 30.5t-30.5 73.5t31.5 74.5t74.5 31.5z" />
    <glyph glyph-name="Alpha" unicode="&#x391;" 
d="M264 618q42 0 73.5 -32t31.5 -74q0 -44 -31 -74t-76 -30q-43 0 -73.5 30.5t-30.5 73.5t31.5 74.5t74.5 31.5z" />
    <glyph glyph-name="Beta" unicode="&#x392;" 
d="M264 618q42 0 73.5 -32t31.5 -74q0 -44 -31 -74t-76 -30q-43 0 -73.5 30.5t-30.5 73.5t31.5 74.5t74.5 31.5z" />
    <glyph glyph-name="Gamma" unicode="&#x393;" 
d="M264 618q42 0 73.5 -32t31.5 -74q0 -44 -31 -74t-76 -30q-43 0 -73.5 30.5t-30.5 73.5t31.5 74.5t74.5 31.5z" />
    <glyph glyph-name="uni0394" unicode="&#x394;" 
d="M264 618q42 0 73.5 -32t31.5 -74q0 -44 -31 -74t-76 -30q-43 0 -73.5 30.5t-30.5 73.5t31.5 74.5t74.5 31.5z" />
    <glyph glyph-name="Epsilon" unicode="&#x395;" 
d="M264 618q42 0 73.5 -32t31.5 -74q0 -44 -31 -74t-76 -30q-43 0 -73.5 30.5t-30.5 73.5t31.5 74.5t74.5 31.5z" />
    <glyph glyph-name="Zeta" unicode="&#x396;" 
d="M264 618q42 0 73.5 -32t31.5 -74q0 -44 -31 -74t-76 -30q-43 0 -73.5 30.5t-30.5 73.5t31.5 74.5t74.5 31.5z" />
    <glyph glyph-name="Eta" unicode="&#x397;" 
d="M264 618q42 0 73.5 -32t31.5 -74q0 -44 -31 -74t-76 -30q-43 0 -73.5 30.5t-30.5 73.5t31.5 74.5t74.5 31.5z" />
    <glyph glyph-name="Theta" unicode="&#x398;" 
d="M264 618q42 0 73.5 -32t31.5 -74q0 -44 -31 -74t-76 -30q-43 0 -73.5 30.5t-30.5 73.5t31.5 74.5t74.5 31.5z" />
    <glyph glyph-name="Iota" unicode="&#x399;" 
d="M264 618q42 0 73.5 -32t31.5 -74q0 -44 -31 -74t-76 -30q-43 0 -73.5 30.5t-30.5 73.5t31.5 74.5t74.5 31.5z" />
    <glyph glyph-name="Kappa" unicode="&#x39a;" 
d="M264 618q42 0 73.5 -32t31.5 -74q0 -44 -31 -74t-76 -30q-43 0 -73.5 30.5t-30.5 73.5t31.5 74.5t74.5 31.5z" />
    <glyph glyph-name="Lambda" unicode="&#x39b;" 
d="M264 618q42 0 73.5 -32t31.5 -74q0 -44 -31 -74t-76 -30q-43 0 -73.5 30.5t-30.5 73.5t31.5 74.5t74.5 31.5z" />
    <glyph glyph-name="Mu" unicode="&#x39c;" 
d="M264 618q42 0 73.5 -32t31.5 -74q0 -44 -31 -74t-76 -30q-43 0 -73.5 30.5t-30.5 73.5t31.5 74.5t74.5 31.5z" />
    <glyph glyph-name="Nu" unicode="&#x39d;" 
d="M264 618q42 0 73.5 -32t31.5 -74q0 -44 -31 -74t-76 -30q-43 0 -73.5 30.5t-30.5 73.5t31.5 74.5t74.5 31.5z" />
    <glyph glyph-name="Xi" unicode="&#x39e;" 
d="M264 618q42 0 73.5 -32t31.5 -74q0 -44 -31 -74t-76 -30q-43 0 -73.5 30.5t-30.5 73.5t31.5 74.5t74.5 31.5z" />
    <glyph glyph-name="Omicron" unicode="&#x39f;" 
d="M264 618q42 0 73.5 -32t31.5 -74q0 -44 -31 -74t-76 -30q-43 0 -73.5 30.5t-30.5 73.5t31.5 74.5t74.5 31.5z" />
    <glyph glyph-name="Pi" unicode="&#x3a0;" 
d="M264 618q42 0 73.5 -32t31.5 -74q0 -44 -31 -74t-76 -30q-43 0 -73.5 30.5t-30.5 73.5t31.5 74.5t74.5 31.5z" />
    <glyph glyph-name="Rho" unicode="&#x3a1;" 
d="M264 618q42 0 73.5 -32t31.5 -74q0 -44 -31 -74t-76 -30q-43 0 -73.5 30.5t-30.5 73.5t31.5 74.5t74.5 31.5z" />
    <glyph glyph-name="Sigma" unicode="&#x3a3;" 
d="M264 618q42 0 73.5 -32t31.5 -74q0 -44 -31 -74t-76 -30q-43 0 -73.5 30.5t-30.5 73.5t31.5 74.5t74.5 31.5z" />
    <glyph glyph-name="Tau" unicode="&#x3a4;" 
d="M264 618q42 0 73.5 -32t31.5 -74q0 -44 -31 -74t-76 -30q-43 0 -73.5 30.5t-30.5 73.5t31.5 74.5t74.5 31.5z" />
    <glyph glyph-name="Upsilon" unicode="&#x3a5;" 
d="M264 618q42 0 73.5 -32t31.5 -74q0 -44 -31 -74t-76 -30q-43 0 -73.5 30.5t-30.5 73.5t31.5 74.5t74.5 31.5z" />
    <glyph glyph-name="Phi" unicode="&#x3a6;" 
d="M264 618q42 0 73.5 -32t31.5 -74q0 -44 -31 -74t-76 -30q-43 0 -73.5 30.5t-30.5 73.5t31.5 74.5t74.5 31.5z" />
    <glyph glyph-name="Chi" unicode="&#x3a7;" 
d="M264 618q42 0 73.5 -32t31.5 -74q0 -44 -31 -74t-76 -30q-43 0 -73.5 30.5t-30.5 73.5t31.5 74.5t74.5 31.5z" />
    <glyph glyph-name="Psi" unicode="&#x3a8;" 
d="M264 618q42 0 73.5 -32t31.5 -74q0 -44 -31 -74t-76 -30q-43 0 -73.5 30.5t-30.5 73.5t31.5 74.5t74.5 31.5z" />
    <glyph glyph-name="uni03A9" unicode="&#x3a9;" 
d="M264 618q42 0 73.5 -32t31.5 -74q0 -44 -31 -74t-76 -30q-43 0 -73.5 30.5t-30.5 73.5t31.5 74.5t74.5 31.5z" />
    <glyph glyph-name="Iotadieresis" unicode="&#x3aa;" 
d="M264 618q42 0 73.5 -32t31.5 -74q0 -44 -31 -74t-76 -30q-43 0 -73.5 30.5t-30.5 73.5t31.5 74.5t74.5 31.5z" />
    <glyph glyph-name="Upsilondieresis" unicode="&#x3ab;" 
d="M264 618q42 0 73.5 -32t31.5 -74q0 -44 -31 -74t-76 -30q-43 0 -73.5 30.5t-30.5 73.5t31.5 74.5t74.5 31.5z" />
    <glyph glyph-name="alphatonos" unicode="&#x3ac;" 
d="M264 618q42 0 73.5 -32t31.5 -74q0 -44 -31 -74t-76 -30q-43 0 -73.5 30.5t-30.5 73.5t31.5 74.5t74.5 31.5z" />
    <glyph glyph-name="epsilontonos" unicode="&#x3ad;" 
d="M264 618q42 0 73.5 -32t31.5 -74q0 -44 -31 -74t-76 -30q-43 0 -73.5 30.5t-30.5 73.5t31.5 74.5t74.5 31.5z" />
    <glyph glyph-name="etatonos" unicode="&#x3ae;" 
d="M264 618q42 0 73.5 -32t31.5 -74q0 -44 -31 -74t-76 -30q-43 0 -73.5 30.5t-30.5 73.5t31.5 74.5t74.5 31.5z" />
    <glyph glyph-name="iotatonos" unicode="&#x3af;" 
d="M264 618q42 0 73.5 -32t31.5 -74q0 -44 -31 -74t-76 -30q-43 0 -73.5 30.5t-30.5 73.5t31.5 74.5t74.5 31.5z" />
    <glyph glyph-name="upsilondieresistonos" unicode="&#x3b0;" 
d="M264 618q42 0 73.5 -32t31.5 -74q0 -44 -31 -74t-76 -30q-43 0 -73.5 30.5t-30.5 73.5t31.5 74.5t74.5 31.5z" />
    <glyph glyph-name="alpha" unicode="&#x3b1;" 
d="M264 618q42 0 73.5 -32t31.5 -74q0 -44 -31 -74t-76 -30q-43 0 -73.5 30.5t-30.5 73.5t31.5 74.5t74.5 31.5z" />
    <glyph glyph-name="beta" unicode="&#x3b2;" 
d="M264 618q42 0 73.5 -32t31.5 -74q0 -44 -31 -74t-76 -30q-43 0 -73.5 30.5t-30.5 73.5t31.5 74.5t74.5 31.5z" />
    <glyph glyph-name="gamma" unicode="&#x3b3;" 
d="M264 618q42 0 73.5 -32t31.5 -74q0 -44 -31 -74t-76 -30q-43 0 -73.5 30.5t-30.5 73.5t31.5 74.5t74.5 31.5z" />
    <glyph glyph-name="delta" unicode="&#x3b4;" 
d="M264 618q42 0 73.5 -32t31.5 -74q0 -44 -31 -74t-76 -30q-43 0 -73.5 30.5t-30.5 73.5t31.5 74.5t74.5 31.5z" />
    <glyph glyph-name="epsilon" unicode="&#x3b5;" 
d="M264 618q42 0 73.5 -32t31.5 -74q0 -44 -31 -74t-76 -30q-43 0 -73.5 30.5t-30.5 73.5t31.5 74.5t74.5 31.5z" />
    <glyph glyph-name="zeta" unicode="&#x3b6;" 
d="M264 618q42 0 73.5 -32t31.5 -74q0 -44 -31 -74t-76 -30q-43 0 -73.5 30.5t-30.5 73.5t31.5 74.5t74.5 31.5z" />
    <glyph glyph-name="eta" unicode="&#x3b7;" 
d="M264 618q42 0 73.5 -32t31.5 -74q0 -44 -31 -74t-76 -30q-43 0 -73.5 30.5t-30.5 73.5t31.5 74.5t74.5 31.5z" />
    <glyph glyph-name="theta" unicode="&#x3b8;" 
d="M264 618q42 0 73.5 -32t31.5 -74q0 -44 -31 -74t-76 -30q-43 0 -73.5 30.5t-30.5 73.5t31.5 74.5t74.5 31.5z" />
    <glyph glyph-name="iota" unicode="&#x3b9;" 
d="M264 618q42 0 73.5 -32t31.5 -74q0 -44 -31 -74t-76 -30q-43 0 -73.5 30.5t-30.5 73.5t31.5 74.5t74.5 31.5z" />
    <glyph glyph-name="kappa" unicode="&#x3ba;" 
d="M264 618q42 0 73.5 -32t31.5 -74q0 -44 -31 -74t-76 -30q-43 0 -73.5 30.5t-30.5 73.5t31.5 74.5t74.5 31.5z" />
    <glyph glyph-name="lambda" unicode="&#x3bb;" 
d="M264 618q42 0 73.5 -32t31.5 -74q0 -44 -31 -74t-76 -30q-43 0 -73.5 30.5t-30.5 73.5t31.5 74.5t74.5 31.5z" />
    <glyph glyph-name="uni03BC" unicode="&#x3bc;" 
d="M264 618q42 0 73.5 -32t31.5 -74q0 -44 -31 -74t-76 -30q-43 0 -73.5 30.5t-30.5 73.5t31.5 74.5t74.5 31.5z" />
    <glyph glyph-name="nu" unicode="&#x3bd;" 
d="M264 618q42 0 73.5 -32t31.5 -74q0 -44 -31 -74t-76 -30q-43 0 -73.5 30.5t-30.5 73.5t31.5 74.5t74.5 31.5z" />
    <glyph glyph-name="xi" unicode="&#x3be;" 
d="M264 618q42 0 73.5 -32t31.5 -74q0 -44 -31 -74t-76 -30q-43 0 -73.5 30.5t-30.5 73.5t31.5 74.5t74.5 31.5z" />
    <glyph glyph-name="omicron" unicode="&#x3bf;" 
d="M264 618q42 0 73.5 -32t31.5 -74q0 -44 -31 -74t-76 -30q-43 0 -73.5 30.5t-30.5 73.5t31.5 74.5t74.5 31.5z" />
    <glyph glyph-name="pi" unicode="&#x3c0;" 
d="M264 618q42 0 73.5 -32t31.5 -74q0 -44 -31 -74t-76 -30q-43 0 -73.5 30.5t-30.5 73.5t31.5 74.5t74.5 31.5z" />
    <glyph glyph-name="rho" unicode="&#x3c1;" 
d="M264 618q42 0 73.5 -32t31.5 -74q0 -44 -31 -74t-76 -30q-43 0 -73.5 30.5t-30.5 73.5t31.5 74.5t74.5 31.5z" />
    <glyph glyph-name="uni03C2" unicode="&#x3c2;" 
d="M264 618q42 0 73.5 -32t31.5 -74q0 -44 -31 -74t-76 -30q-43 0 -73.5 30.5t-30.5 73.5t31.5 74.5t74.5 31.5z" />
    <glyph glyph-name="sigma" unicode="&#x3c3;" 
d="M264 618q42 0 73.5 -32t31.5 -74q0 -44 -31 -74t-76 -30q-43 0 -73.5 30.5t-30.5 73.5t31.5 74.5t74.5 31.5z" />
    <glyph glyph-name="tau" unicode="&#x3c4;" 
d="M264 618q42 0 73.5 -32t31.5 -74q0 -44 -31 -74t-76 -30q-43 0 -73.5 30.5t-30.5 73.5t31.5 74.5t74.5 31.5z" />
    <glyph glyph-name="upsilon" unicode="&#x3c5;" 
d="M264 618q42 0 73.5 -32t31.5 -74q0 -44 -31 -74t-76 -30q-43 0 -73.5 30.5t-30.5 73.5t31.5 74.5t74.5 31.5z" />
    <glyph glyph-name="phi" unicode="&#x3c6;" 
d="M264 618q42 0 73.5 -32t31.5 -74q0 -44 -31 -74t-76 -30q-43 0 -73.5 30.5t-30.5 73.5t31.5 74.5t74.5 31.5z" />
    <glyph glyph-name="chi" unicode="&#x3c7;" 
d="M264 618q42 0 73.5 -32t31.5 -74q0 -44 -31 -74t-76 -30q-43 0 -73.5 30.5t-30.5 73.5t31.5 74.5t74.5 31.5z" />
    <glyph glyph-name="psi" unicode="&#x3c8;" 
d="M264 618q42 0 73.5 -32t31.5 -74q0 -44 -31 -74t-76 -30q-43 0 -73.5 30.5t-30.5 73.5t31.5 74.5t74.5 31.5z" />
    <glyph glyph-name="omega" unicode="&#x3c9;" 
d="M264 618q42 0 73.5 -32t31.5 -74q0 -44 -31 -74t-76 -30q-43 0 -73.5 30.5t-30.5 73.5t31.5 74.5t74.5 31.5z" />
    <glyph glyph-name="iotadieresis" unicode="&#x3ca;" 
d="M264 618q42 0 73.5 -32t31.5 -74q0 -44 -31 -74t-76 -30q-43 0 -73.5 30.5t-30.5 73.5t31.5 74.5t74.5 31.5z" />
    <glyph glyph-name="upsilondieresis" unicode="&#x3cb;" 
d="M264 618q42 0 73.5 -32t31.5 -74q0 -44 -31 -74t-76 -30q-43 0 -73.5 30.5t-30.5 73.5t31.5 74.5t74.5 31.5z" />
    <glyph glyph-name="omicrontonos" unicode="&#x3cc;" 
d="M264 618q42 0 73.5 -32t31.5 -74q0 -44 -31 -74t-76 -30q-43 0 -73.5 30.5t-30.5 73.5t31.5 74.5t74.5 31.5z" />
    <glyph glyph-name="upsilontonos" unicode="&#x3cd;" 
d="M264 618q42 0 73.5 -32t31.5 -74q0 -44 -31 -74t-76 -30q-43 0 -73.5 30.5t-30.5 73.5t31.5 74.5t74.5 31.5z" />
    <glyph glyph-name="omegatonos" unicode="&#x3ce;" 
d="M264 618q42 0 73.5 -32t31.5 -74q0 -44 -31 -74t-76 -30q-43 0 -73.5 30.5t-30.5 73.5t31.5 74.5t74.5 31.5z" />
    <glyph glyph-name="theta1" unicode="&#x3d1;" 
d="M264 618q42 0 73.5 -32t31.5 -74q0 -44 -31 -74t-76 -30q-43 0 -73.5 30.5t-30.5 73.5t31.5 74.5t74.5 31.5z" />
    <glyph glyph-name="Upsilon1" unicode="&#x3d2;" 
d="M264 618q42 0 73.5 -32t31.5 -74q0 -44 -31 -74t-76 -30q-43 0 -73.5 30.5t-30.5 73.5t31.5 74.5t74.5 31.5z" />
    <glyph glyph-name="phi1" unicode="&#x3d5;" 
d="M264 618q42 0 73.5 -32t31.5 -74q0 -44 -31 -74t-76 -30q-43 0 -73.5 30.5t-30.5 73.5t31.5 74.5t74.5 31.5z" />
    <glyph glyph-name="omega1" unicode="&#x3d6;" 
d="M264 618q42 0 73.5 -32t31.5 -74q0 -44 -31 -74t-76 -30q-43 0 -73.5 30.5t-30.5 73.5t31.5 74.5t74.5 31.5z" />
    <glyph glyph-name="afii10023" unicode="&#x401;" 
d="M264 618q42 0 73.5 -32t31.5 -74q0 -44 -31 -74t-76 -30q-43 0 -73.5 30.5t-30.5 73.5t31.5 74.5t74.5 31.5z" />
    <glyph glyph-name="afii10051" unicode="&#x402;" 
d="M264 618q42 0 73.5 -32t31.5 -74q0 -44 -31 -74t-76 -30q-43 0 -73.5 30.5t-30.5 73.5t31.5 74.5t74.5 31.5z" />
    <glyph glyph-name="afii10052" unicode="&#x403;" 
d="M264 618q42 0 73.5 -32t31.5 -74q0 -44 -31 -74t-76 -30q-43 0 -73.5 30.5t-30.5 73.5t31.5 74.5t74.5 31.5z" />
    <glyph glyph-name="afii10053" unicode="&#x404;" 
d="M264 618q42 0 73.5 -32t31.5 -74q0 -44 -31 -74t-76 -30q-43 0 -73.5 30.5t-30.5 73.5t31.5 74.5t74.5 31.5z" />
    <glyph glyph-name="afii10054" unicode="&#x405;" 
d="M264 618q42 0 73.5 -32t31.5 -74q0 -44 -31 -74t-76 -30q-43 0 -73.5 30.5t-30.5 73.5t31.5 74.5t74.5 31.5z" />
    <glyph glyph-name="afii10055" unicode="&#x406;" 
d="M264 618q42 0 73.5 -32t31.5 -74q0 -44 -31 -74t-76 -30q-43 0 -73.5 30.5t-30.5 73.5t31.5 74.5t74.5 31.5z" />
    <glyph glyph-name="afii10056" unicode="&#x407;" 
d="M264 618q42 0 73.5 -32t31.5 -74q0 -44 -31 -74t-76 -30q-43 0 -73.5 30.5t-30.5 73.5t31.5 74.5t74.5 31.5z" />
    <glyph glyph-name="afii10057" unicode="&#x408;" 
d="M264 618q42 0 73.5 -32t31.5 -74q0 -44 -31 -74t-76 -30q-43 0 -73.5 30.5t-30.5 73.5t31.5 74.5t74.5 31.5z" />
    <glyph glyph-name="afii10058" unicode="&#x409;" 
d="M264 618q42 0 73.5 -32t31.5 -74q0 -44 -31 -74t-76 -30q-43 0 -73.5 30.5t-30.5 73.5t31.5 74.5t74.5 31.5z" />
    <glyph glyph-name="afii10059" unicode="&#x40a;" 
d="M264 618q42 0 73.5 -32t31.5 -74q0 -44 -31 -74t-76 -30q-43 0 -73.5 30.5t-30.5 73.5t31.5 74.5t74.5 31.5z" />
    <glyph glyph-name="afii10060" unicode="&#x40b;" 
d="M264 618q42 0 73.5 -32t31.5 -74q0 -44 -31 -74t-76 -30q-43 0 -73.5 30.5t-30.5 73.5t31.5 74.5t74.5 31.5z" />
    <glyph glyph-name="afii10061" unicode="&#x40c;" 
d="M264 618q42 0 73.5 -32t31.5 -74q0 -44 -31 -74t-76 -30q-43 0 -73.5 30.5t-30.5 73.5t31.5 74.5t74.5 31.5z" />
    <glyph glyph-name="afii10062" unicode="&#x40e;" 
d="M264 618q42 0 73.5 -32t31.5 -74q0 -44 -31 -74t-76 -30q-43 0 -73.5 30.5t-30.5 73.5t31.5 74.5t74.5 31.5z" />
    <glyph glyph-name="afii10145" unicode="&#x40f;" 
d="M264 618q42 0 73.5 -32t31.5 -74q0 -44 -31 -74t-76 -30q-43 0 -73.5 30.5t-30.5 73.5t31.5 74.5t74.5 31.5z" />
    <glyph glyph-name="afii10017" unicode="&#x410;" 
d="M264 618q42 0 73.5 -32t31.5 -74q0 -44 -31 -74t-76 -30q-43 0 -73.5 30.5t-30.5 73.5t31.5 74.5t74.5 31.5z" />
    <glyph glyph-name="afii10018" unicode="&#x411;" 
d="M264 618q42 0 73.5 -32t31.5 -74q0 -44 -31 -74t-76 -30q-43 0 -73.5 30.5t-30.5 73.5t31.5 74.5t74.5 31.5z" />
    <glyph glyph-name="afii10019" unicode="&#x412;" 
d="M264 618q42 0 73.5 -32t31.5 -74q0 -44 -31 -74t-76 -30q-43 0 -73.5 30.5t-30.5 73.5t31.5 74.5t74.5 31.5z" />
    <glyph glyph-name="afii10020" unicode="&#x413;" 
d="M264 618q42 0 73.5 -32t31.5 -74q0 -44 -31 -74t-76 -30q-43 0 -73.5 30.5t-30.5 73.5t31.5 74.5t74.5 31.5z" />
    <glyph glyph-name="afii10021" unicode="&#x414;" 
d="M264 618q42 0 73.5 -32t31.5 -74q0 -44 -31 -74t-76 -30q-43 0 -73.5 30.5t-30.5 73.5t31.5 74.5t74.5 31.5z" />
    <glyph glyph-name="afii10022" unicode="&#x415;" 
d="M264 618q42 0 73.5 -32t31.5 -74q0 -44 -31 -74t-76 -30q-43 0 -73.5 30.5t-30.5 73.5t31.5 74.5t74.5 31.5z" />
    <glyph glyph-name="afii10024" unicode="&#x416;" 
d="M264 618q42 0 73.5 -32t31.5 -74q0 -44 -31 -74t-76 -30q-43 0 -73.5 30.5t-30.5 73.5t31.5 74.5t74.5 31.5z" />
    <glyph glyph-name="afii10025" unicode="&#x417;" 
d="M264 618q42 0 73.5 -32t31.5 -74q0 -44 -31 -74t-76 -30q-43 0 -73.5 30.5t-30.5 73.5t31.5 74.5t74.5 31.5z" />
    <glyph glyph-name="afii10026" unicode="&#x418;" 
d="M264 618q42 0 73.5 -32t31.5 -74q0 -44 -31 -74t-76 -30q-43 0 -73.5 30.5t-30.5 73.5t31.5 74.5t74.5 31.5z" />
    <glyph glyph-name="afii10027" unicode="&#x419;" 
d="M264 618q42 0 73.5 -32t31.5 -74q0 -44 -31 -74t-76 -30q-43 0 -73.5 30.5t-30.5 73.5t31.5 74.5t74.5 31.5z" />
    <glyph glyph-name="afii10028" unicode="&#x41a;" 
d="M264 618q42 0 73.5 -32t31.5 -74q0 -44 -31 -74t-76 -30q-43 0 -73.5 30.5t-30.5 73.5t31.5 74.5t74.5 31.5z" />
    <glyph glyph-name="afii10029" unicode="&#x41b;" 
d="M264 618q42 0 73.5 -32t31.5 -74q0 -44 -31 -74t-76 -30q-43 0 -73.5 30.5t-30.5 73.5t31.5 74.5t74.5 31.5z" />
    <glyph glyph-name="afii10030" unicode="&#x41c;" 
d="M264 618q42 0 73.5 -32t31.5 -74q0 -44 -31 -74t-76 -30q-43 0 -73.5 30.5t-30.5 73.5t31.5 74.5t74.5 31.5z" />
    <glyph glyph-name="afii10031" unicode="&#x41d;" 
d="M264 618q42 0 73.5 -32t31.5 -74q0 -44 -31 -74t-76 -30q-43 0 -73.5 30.5t-30.5 73.5t31.5 74.5t74.5 31.5z" />
    <glyph glyph-name="afii10032" unicode="&#x41e;" 
d="M264 618q42 0 73.5 -32t31.5 -74q0 -44 -31 -74t-76 -30q-43 0 -73.5 30.5t-30.5 73.5t31.5 74.5t74.5 31.5z" />
    <glyph glyph-name="afii10033" unicode="&#x41f;" 
d="M264 618q42 0 73.5 -32t31.5 -74q0 -44 -31 -74t-76 -30q-43 0 -73.5 30.5t-30.5 73.5t31.5 74.5t74.5 31.5z" />
    <glyph glyph-name="afii10034" unicode="&#x420;" 
d="M264 618q42 0 73.5 -32t31.5 -74q0 -44 -31 -74t-76 -30q-43 0 -73.5 30.5t-30.5 73.5t31.5 74.5t74.5 31.5z" />
    <glyph glyph-name="afii10035" unicode="&#x421;" 
d="M264 618q42 0 73.5 -32t31.5 -74q0 -44 -31 -74t-76 -30q-43 0 -73.5 30.5t-30.5 73.5t31.5 74.5t74.5 31.5z" />
    <glyph glyph-name="afii10036" unicode="&#x422;" 
d="M264 618q42 0 73.5 -32t31.5 -74q0 -44 -31 -74t-76 -30q-43 0 -73.5 30.5t-30.5 73.5t31.5 74.5t74.5 31.5z" />
    <glyph glyph-name="afii10037" unicode="&#x423;" 
d="M264 618q42 0 73.5 -32t31.5 -74q0 -44 -31 -74t-76 -30q-43 0 -73.5 30.5t-30.5 73.5t31.5 74.5t74.5 31.5z" />
    <glyph glyph-name="afii10038" unicode="&#x424;" 
d="M264 618q42 0 73.5 -32t31.5 -74q0 -44 -31 -74t-76 -30q-43 0 -73.5 30.5t-30.5 73.5t31.5 74.5t74.5 31.5z" />
    <glyph glyph-name="afii10039" unicode="&#x425;" 
d="M264 618q42 0 73.5 -32t31.5 -74q0 -44 -31 -74t-76 -30q-43 0 -73.5 30.5t-30.5 73.5t31.5 74.5t74.5 31.5z" />
    <glyph glyph-name="afii10040" unicode="&#x426;" 
d="M264 618q42 0 73.5 -32t31.5 -74q0 -44 -31 -74t-76 -30q-43 0 -73.5 30.5t-30.5 73.5t31.5 74.5t74.5 31.5z" />
    <glyph glyph-name="afii10041" unicode="&#x427;" 
d="M264 618q42 0 73.5 -32t31.5 -74q0 -44 -31 -74t-76 -30q-43 0 -73.5 30.5t-30.5 73.5t31.5 74.5t74.5 31.5z" />
    <glyph glyph-name="afii10042" unicode="&#x428;" 
d="M264 618q42 0 73.5 -32t31.5 -74q0 -44 -31 -74t-76 -30q-43 0 -73.5 30.5t-30.5 73.5t31.5 74.5t74.5 31.5z" />
    <glyph glyph-name="afii10043" unicode="&#x429;" 
d="M264 618q42 0 73.5 -32t31.5 -74q0 -44 -31 -74t-76 -30q-43 0 -73.5 30.5t-30.5 73.5t31.5 74.5t74.5 31.5z" />
    <glyph glyph-name="afii10044" unicode="&#x42a;" 
d="M264 618q42 0 73.5 -32t31.5 -74q0 -44 -31 -74t-76 -30q-43 0 -73.5 30.5t-30.5 73.5t31.5 74.5t74.5 31.5z" />
    <glyph glyph-name="afii10045" unicode="&#x42b;" 
d="M264 618q42 0 73.5 -32t31.5 -74q0 -44 -31 -74t-76 -30q-43 0 -73.5 30.5t-30.5 73.5t31.5 74.5t74.5 31.5z" />
    <glyph glyph-name="afii10046" unicode="&#x42c;" 
d="M264 618q42 0 73.5 -32t31.5 -74q0 -44 -31 -74t-76 -30q-43 0 -73.5 30.5t-30.5 73.5t31.5 74.5t74.5 31.5z" />
    <glyph glyph-name="afii10047" unicode="&#x42d;" 
d="M264 618q42 0 73.5 -32t31.5 -74q0 -44 -31 -74t-76 -30q-43 0 -73.5 30.5t-30.5 73.5t31.5 74.5t74.5 31.5z" />
    <glyph glyph-name="afii10048" unicode="&#x42e;" 
d="M264 618q42 0 73.5 -32t31.5 -74q0 -44 -31 -74t-76 -30q-43 0 -73.5 30.5t-30.5 73.5t31.5 74.5t74.5 31.5z" />
    <glyph glyph-name="afii10049" unicode="&#x42f;" 
d="M264 618q42 0 73.5 -32t31.5 -74q0 -44 -31 -74t-76 -30q-43 0 -73.5 30.5t-30.5 73.5t31.5 74.5t74.5 31.5z" />
    <glyph glyph-name="afii10065" unicode="&#x430;" 
d="M264 618q42 0 73.5 -32t31.5 -74q0 -44 -31 -74t-76 -30q-43 0 -73.5 30.5t-30.5 73.5t31.5 74.5t74.5 31.5z" />
    <glyph glyph-name="afii10066" unicode="&#x431;" 
d="M264 618q42 0 73.5 -32t31.5 -74q0 -44 -31 -74t-76 -30q-43 0 -73.5 30.5t-30.5 73.5t31.5 74.5t74.5 31.5z" />
    <glyph glyph-name="afii10067" unicode="&#x432;" 
d="M264 618q42 0 73.5 -32t31.5 -74q0 -44 -31 -74t-76 -30q-43 0 -73.5 30.5t-30.5 73.5t31.5 74.5t74.5 31.5z" />
    <glyph glyph-name="afii10068" unicode="&#x433;" 
d="M264 618q42 0 73.5 -32t31.5 -74q0 -44 -31 -74t-76 -30q-43 0 -73.5 30.5t-30.5 73.5t31.5 74.5t74.5 31.5z" />
    <glyph glyph-name="afii10069" unicode="&#x434;" 
d="M264 618q42 0 73.5 -32t31.5 -74q0 -44 -31 -74t-76 -30q-43 0 -73.5 30.5t-30.5 73.5t31.5 74.5t74.5 31.5z" />
    <glyph glyph-name="afii10070" unicode="&#x435;" 
d="M264 618q42 0 73.5 -32t31.5 -74q0 -44 -31 -74t-76 -30q-43 0 -73.5 30.5t-30.5 73.5t31.5 74.5t74.5 31.5z" />
    <glyph glyph-name="afii10072" unicode="&#x436;" 
d="M264 618q42 0 73.5 -32t31.5 -74q0 -44 -31 -74t-76 -30q-43 0 -73.5 30.5t-30.5 73.5t31.5 74.5t74.5 31.5z" />
    <glyph glyph-name="afii10073" unicode="&#x437;" 
d="M264 618q42 0 73.5 -32t31.5 -74q0 -44 -31 -74t-76 -30q-43 0 -73.5 30.5t-30.5 73.5t31.5 74.5t74.5 31.5z" />
    <glyph glyph-name="afii10074" unicode="&#x438;" 
d="M264 618q42 0 73.5 -32t31.5 -74q0 -44 -31 -74t-76 -30q-43 0 -73.5 30.5t-30.5 73.5t31.5 74.5t74.5 31.5z" />
    <glyph glyph-name="afii10075" unicode="&#x439;" 
d="M264 618q42 0 73.5 -32t31.5 -74q0 -44 -31 -74t-76 -30q-43 0 -73.5 30.5t-30.5 73.5t31.5 74.5t74.5 31.5z" />
    <glyph glyph-name="afii10076" unicode="&#x43a;" 
d="M264 618q42 0 73.5 -32t31.5 -74q0 -44 -31 -74t-76 -30q-43 0 -73.5 30.5t-30.5 73.5t31.5 74.5t74.5 31.5z" />
    <glyph glyph-name="afii10077" unicode="&#x43b;" 
d="M264 618q42 0 73.5 -32t31.5 -74q0 -44 -31 -74t-76 -30q-43 0 -73.5 30.5t-30.5 73.5t31.5 74.5t74.5 31.5z" />
    <glyph glyph-name="afii10078" unicode="&#x43c;" 
d="M264 618q42 0 73.5 -32t31.5 -74q0 -44 -31 -74t-76 -30q-43 0 -73.5 30.5t-30.5 73.5t31.5 74.5t74.5 31.5z" />
    <glyph glyph-name="afii10079" unicode="&#x43d;" 
d="M264 618q42 0 73.5 -32t31.5 -74q0 -44 -31 -74t-76 -30q-43 0 -73.5 30.5t-30.5 73.5t31.5 74.5t74.5 31.5z" />
    <glyph glyph-name="afii10080" unicode="&#x43e;" 
d="M264 618q42 0 73.5 -32t31.5 -74q0 -44 -31 -74t-76 -30q-43 0 -73.5 30.5t-30.5 73.5t31.5 74.5t74.5 31.5z" />
    <glyph glyph-name="afii10081" unicode="&#x43f;" 
d="M264 618q42 0 73.5 -32t31.5 -74q0 -44 -31 -74t-76 -30q-43 0 -73.5 30.5t-30.5 73.5t31.5 74.5t74.5 31.5z" />
    <glyph glyph-name="afii10082" unicode="&#x440;" 
d="M264 618q42 0 73.5 -32t31.5 -74q0 -44 -31 -74t-76 -30q-43 0 -73.5 30.5t-30.5 73.5t31.5 74.5t74.5 31.5z" />
    <glyph glyph-name="afii10083" unicode="&#x441;" 
d="M264 618q42 0 73.5 -32t31.5 -74q0 -44 -31 -74t-76 -30q-43 0 -73.5 30.5t-30.5 73.5t31.5 74.5t74.5 31.5z" />
    <glyph glyph-name="afii10084" unicode="&#x442;" 
d="M264 618q42 0 73.5 -32t31.5 -74q0 -44 -31 -74t-76 -30q-43 0 -73.5 30.5t-30.5 73.5t31.5 74.5t74.5 31.5z" />
    <glyph glyph-name="afii10085" unicode="&#x443;" 
d="M264 618q42 0 73.5 -32t31.5 -74q0 -44 -31 -74t-76 -30q-43 0 -73.5 30.5t-30.5 73.5t31.5 74.5t74.5 31.5z" />
    <glyph glyph-name="afii10086" unicode="&#x444;" 
d="M264 618q42 0 73.5 -32t31.5 -74q0 -44 -31 -74t-76 -30q-43 0 -73.5 30.5t-30.5 73.5t31.5 74.5t74.5 31.5z" />
    <glyph glyph-name="afii10087" unicode="&#x445;" 
d="M264 618q42 0 73.5 -32t31.5 -74q0 -44 -31 -74t-76 -30q-43 0 -73.5 30.5t-30.5 73.5t31.5 74.5t74.5 31.5z" />
    <glyph glyph-name="afii10088" unicode="&#x446;" 
d="M264 618q42 0 73.5 -32t31.5 -74q0 -44 -31 -74t-76 -30q-43 0 -73.5 30.5t-30.5 73.5t31.5 74.5t74.5 31.5z" />
    <glyph glyph-name="afii10089" unicode="&#x447;" 
d="M264 618q42 0 73.5 -32t31.5 -74q0 -44 -31 -74t-76 -30q-43 0 -73.5 30.5t-30.5 73.5t31.5 74.5t74.5 31.5z" />
    <glyph glyph-name="afii10090" unicode="&#x448;" 
d="M264 618q42 0 73.5 -32t31.5 -74q0 -44 -31 -74t-76 -30q-43 0 -73.5 30.5t-30.5 73.5t31.5 74.5t74.5 31.5z" />
    <glyph glyph-name="afii10091" unicode="&#x449;" 
d="M264 618q42 0 73.5 -32t31.5 -74q0 -44 -31 -74t-76 -30q-43 0 -73.5 30.5t-30.5 73.5t31.5 74.5t74.5 31.5z" />
    <glyph glyph-name="afii10092" unicode="&#x44a;" 
d="M264 618q42 0 73.5 -32t31.5 -74q0 -44 -31 -74t-76 -30q-43 0 -73.5 30.5t-30.5 73.5t31.5 74.5t74.5 31.5z" />
    <glyph glyph-name="afii10093" unicode="&#x44b;" 
d="M264 618q42 0 73.5 -32t31.5 -74q0 -44 -31 -74t-76 -30q-43 0 -73.5 30.5t-30.5 73.5t31.5 74.5t74.5 31.5z" />
    <glyph glyph-name="afii10094" unicode="&#x44c;" 
d="M264 618q42 0 73.5 -32t31.5 -74q0 -44 -31 -74t-76 -30q-43 0 -73.5 30.5t-30.5 73.5t31.5 74.5t74.5 31.5z" />
    <glyph glyph-name="afii10095" unicode="&#x44d;" 
d="M264 618q42 0 73.5 -32t31.5 -74q0 -44 -31 -74t-76 -30q-43 0 -73.5 30.5t-30.5 73.5t31.5 74.5t74.5 31.5z" />
    <glyph glyph-name="afii10096" unicode="&#x44e;" 
d="M264 618q42 0 73.5 -32t31.5 -74q0 -44 -31 -74t-76 -30q-43 0 -73.5 30.5t-30.5 73.5t31.5 74.5t74.5 31.5z" />
    <glyph glyph-name="afii10097" unicode="&#x44f;" 
d="M264 618q42 0 73.5 -32t31.5 -74q0 -44 -31 -74t-76 -30q-43 0 -73.5 30.5t-30.5 73.5t31.5 74.5t74.5 31.5z" />
    <glyph glyph-name="afii10071" unicode="&#x451;" 
d="M264 618q42 0 73.5 -32t31.5 -74q0 -44 -31 -74t-76 -30q-43 0 -73.5 30.5t-30.5 73.5t31.5 74.5t74.5 31.5z" />
    <glyph glyph-name="afii10099" unicode="&#x452;" 
d="M264 618q42 0 73.5 -32t31.5 -74q0 -44 -31 -74t-76 -30q-43 0 -73.5 30.5t-30.5 73.5t31.5 74.5t74.5 31.5z" />
    <glyph glyph-name="afii10100" unicode="&#x453;" 
d="M264 618q42 0 73.5 -32t31.5 -74q0 -44 -31 -74t-76 -30q-43 0 -73.5 30.5t-30.5 73.5t31.5 74.5t74.5 31.5z" />
    <glyph glyph-name="afii10101" unicode="&#x454;" 
d="M264 618q42 0 73.5 -32t31.5 -74q0 -44 -31 -74t-76 -30q-43 0 -73.5 30.5t-30.5 73.5t31.5 74.5t74.5 31.5z" />
    <glyph glyph-name="afii10102" unicode="&#x455;" 
d="M264 618q42 0 73.5 -32t31.5 -74q0 -44 -31 -74t-76 -30q-43 0 -73.5 30.5t-30.5 73.5t31.5 74.5t74.5 31.5z" />
    <glyph glyph-name="afii10103" unicode="&#x456;" 
d="M264 618q42 0 73.5 -32t31.5 -74q0 -44 -31 -74t-76 -30q-43 0 -73.5 30.5t-30.5 73.5t31.5 74.5t74.5 31.5z" />
    <glyph glyph-name="afii10104" unicode="&#x457;" 
d="M264 618q42 0 73.5 -32t31.5 -74q0 -44 -31 -74t-76 -30q-43 0 -73.5 30.5t-30.5 73.5t31.5 74.5t74.5 31.5z" />
    <glyph glyph-name="afii10105" unicode="&#x458;" 
d="M264 618q42 0 73.5 -32t31.5 -74q0 -44 -31 -74t-76 -30q-43 0 -73.5 30.5t-30.5 73.5t31.5 74.5t74.5 31.5z" />
    <glyph glyph-name="afii10106" unicode="&#x459;" 
d="M264 618q42 0 73.5 -32t31.5 -74q0 -44 -31 -74t-76 -30q-43 0 -73.5 30.5t-30.5 73.5t31.5 74.5t74.5 31.5z" />
    <glyph glyph-name="afii10107" unicode="&#x45a;" 
d="M264 618q42 0 73.5 -32t31.5 -74q0 -44 -31 -74t-76 -30q-43 0 -73.5 30.5t-30.5 73.5t31.5 74.5t74.5 31.5z" />
    <glyph glyph-name="afii10108" unicode="&#x45b;" 
d="M264 618q42 0 73.5 -32t31.5 -74q0 -44 -31 -74t-76 -30q-43 0 -73.5 30.5t-30.5 73.5t31.5 74.5t74.5 31.5z" />
    <glyph glyph-name="afii10109" unicode="&#x45c;" 
d="M264 618q42 0 73.5 -32t31.5 -74q0 -44 -31 -74t-76 -30q-43 0 -73.5 30.5t-30.5 73.5t31.5 74.5t74.5 31.5z" />
    <glyph glyph-name="afii10110" unicode="&#x45e;" 
d="M264 618q42 0 73.5 -32t31.5 -74q0 -44 -31 -74t-76 -30q-43 0 -73.5 30.5t-30.5 73.5t31.5 74.5t74.5 31.5z" />
    <glyph glyph-name="afii10193" unicode="&#x45f;" 
d="M264 618q42 0 73.5 -32t31.5 -74q0 -44 -31 -74t-76 -30q-43 0 -73.5 30.5t-30.5 73.5t31.5 74.5t74.5 31.5z" />
    <glyph glyph-name="afii10050" unicode="&#x490;" 
d="M264 618q42 0 73.5 -32t31.5 -74q0 -44 -31 -74t-76 -30q-43 0 -73.5 30.5t-30.5 73.5t31.5 74.5t74.5 31.5z" />
    <glyph glyph-name="afii10098" unicode="&#x491;" 
d="M264 618q42 0 73.5 -32t31.5 -74q0 -44 -31 -74t-76 -30q-43 0 -73.5 30.5t-30.5 73.5t31.5 74.5t74.5 31.5z" />
    <glyph glyph-name="uni0492" unicode="&#x492;" 
d="M264 618q42 0 73.5 -32t31.5 -74q0 -44 -31 -74t-76 -30q-43 0 -73.5 30.5t-30.5 73.5t31.5 74.5t74.5 31.5z" />
    <glyph glyph-name="uni0493" unicode="&#x493;" 
d="M264 618q42 0 73.5 -32t31.5 -74q0 -44 -31 -74t-76 -30q-43 0 -73.5 30.5t-30.5 73.5t31.5 74.5t74.5 31.5z" />
    <glyph glyph-name="uni0496" unicode="&#x496;" 
d="M264 618q42 0 73.5 -32t31.5 -74q0 -44 -31 -74t-76 -30q-43 0 -73.5 30.5t-30.5 73.5t31.5 74.5t74.5 31.5z" />
    <glyph glyph-name="uni0497" unicode="&#x497;" 
d="M264 618q42 0 73.5 -32t31.5 -74q0 -44 -31 -74t-76 -30q-43 0 -73.5 30.5t-30.5 73.5t31.5 74.5t74.5 31.5z" />
    <glyph glyph-name="uni049A" unicode="&#x49a;" 
d="M264 618q42 0 73.5 -32t31.5 -74q0 -44 -31 -74t-76 -30q-43 0 -73.5 30.5t-30.5 73.5t31.5 74.5t74.5 31.5z" />
    <glyph glyph-name="uni049B" unicode="&#x49b;" 
d="M264 618q42 0 73.5 -32t31.5 -74q0 -44 -31 -74t-76 -30q-43 0 -73.5 30.5t-30.5 73.5t31.5 74.5t74.5 31.5z" />
    <glyph glyph-name="uni049C" unicode="&#x49c;" 
d="M264 618q42 0 73.5 -32t31.5 -74q0 -44 -31 -74t-76 -30q-43 0 -73.5 30.5t-30.5 73.5t31.5 74.5t74.5 31.5z" />
    <glyph glyph-name="uni049D" unicode="&#x49d;" 
d="M264 618q42 0 73.5 -32t31.5 -74q0 -44 -31 -74t-76 -30q-43 0 -73.5 30.5t-30.5 73.5t31.5 74.5t74.5 31.5z" />
    <glyph glyph-name="uni04A2" unicode="&#x4a2;" 
d="M264 618q42 0 73.5 -32t31.5 -74q0 -44 -31 -74t-76 -30q-43 0 -73.5 30.5t-30.5 73.5t31.5 74.5t74.5 31.5z" />
    <glyph glyph-name="uni04A3" unicode="&#x4a3;" 
d="M264 618q42 0 73.5 -32t31.5 -74q0 -44 -31 -74t-76 -30q-43 0 -73.5 30.5t-30.5 73.5t31.5 74.5t74.5 31.5z" />
    <glyph glyph-name="uni04AE" unicode="&#x4ae;" 
d="M264 618q42 0 73.5 -32t31.5 -74q0 -44 -31 -74t-76 -30q-43 0 -73.5 30.5t-30.5 73.5t31.5 74.5t74.5 31.5z" />
    <glyph glyph-name="uni04AF" unicode="&#x4af;" 
d="M264 618q42 0 73.5 -32t31.5 -74q0 -44 -31 -74t-76 -30q-43 0 -73.5 30.5t-30.5 73.5t31.5 74.5t74.5 31.5z" />
    <glyph glyph-name="uni04B0" unicode="&#x4b0;" 
d="M264 618q42 0 73.5 -32t31.5 -74q0 -44 -31 -74t-76 -30q-43 0 -73.5 30.5t-30.5 73.5t31.5 74.5t74.5 31.5z" />
    <glyph glyph-name="uni04B1" unicode="&#x4b1;" 
d="M264 618q42 0 73.5 -32t31.5 -74q0 -44 -31 -74t-76 -30q-43 0 -73.5 30.5t-30.5 73.5t31.5 74.5t74.5 31.5z" />
    <glyph glyph-name="uni04B2" unicode="&#x4b2;" 
d="M264 618q42 0 73.5 -32t31.5 -74q0 -44 -31 -74t-76 -30q-43 0 -73.5 30.5t-30.5 73.5t31.5 74.5t74.5 31.5z" />
    <glyph glyph-name="uni04B3" unicode="&#x4b3;" 
d="M264 618q42 0 73.5 -32t31.5 -74q0 -44 -31 -74t-76 -30q-43 0 -73.5 30.5t-30.5 73.5t31.5 74.5t74.5 31.5z" />
    <glyph glyph-name="uni04B8" unicode="&#x4b8;" 
d="M264 618q42 0 73.5 -32t31.5 -74q0 -44 -31 -74t-76 -30q-43 0 -73.5 30.5t-30.5 73.5t31.5 74.5t74.5 31.5z" />
    <glyph glyph-name="uni04B9" unicode="&#x4b9;" 
d="M264 618q42 0 73.5 -32t31.5 -74q0 -44 -31 -74t-76 -30q-43 0 -73.5 30.5t-30.5 73.5t31.5 74.5t74.5 31.5z" />
    <glyph glyph-name="uni04BA" unicode="&#x4ba;" 
d="M264 618q42 0 73.5 -32t31.5 -74q0 -44 -31 -74t-76 -30q-43 0 -73.5 30.5t-30.5 73.5t31.5 74.5t74.5 31.5z" />
    <glyph glyph-name="uni04BB" unicode="&#x4bb;" 
d="M264 618q42 0 73.5 -32t31.5 -74q0 -44 -31 -74t-76 -30q-43 0 -73.5 30.5t-30.5 73.5t31.5 74.5t74.5 31.5z" />
    <glyph glyph-name="uni04C0" unicode="&#x4c0;" 
d="M264 618q42 0 73.5 -32t31.5 -74q0 -44 -31 -74t-76 -30q-43 0 -73.5 30.5t-30.5 73.5t31.5 74.5t74.5 31.5z" />
    <glyph glyph-name="uni04D8" unicode="&#x4d8;" 
d="M264 618q42 0 73.5 -32t31.5 -74q0 -44 -31 -74t-76 -30q-43 0 -73.5 30.5t-30.5 73.5t31.5 74.5t74.5 31.5z" />
    <glyph glyph-name="afii10846" unicode="&#x4d9;" 
d="M264 618q42 0 73.5 -32t31.5 -74q0 -44 -31 -74t-76 -30q-43 0 -73.5 30.5t-30.5 73.5t31.5 74.5t74.5 31.5z" />
    <glyph glyph-name="uni04E8" unicode="&#x4e8;" 
d="M264 618q42 0 73.5 -32t31.5 -74q0 -44 -31 -74t-76 -30q-43 0 -73.5 30.5t-30.5 73.5t31.5 74.5t74.5 31.5z" />
    <glyph glyph-name="uni04E9" unicode="&#x4e9;" 
d="M264 618q42 0 73.5 -32t31.5 -74q0 -44 -31 -74t-76 -30q-43 0 -73.5 30.5t-30.5 73.5t31.5 74.5t74.5 31.5z" />
    <glyph glyph-name="Wdieresis" unicode="&#x1e84;" horiz-adv-x="1527" 
d="M43 1366h113l264 -1196l295 1196h100l293 -1196l268 1196h113l-318 -1378h-120l-287 1128l-285 -1128h-121zM588 1731q44 0 74 -30t30 -73t-31.5 -74.5t-72.5 -31.5q-43 0 -74 31t-31 75t29.5 73.5t75.5 29.5zM948 1731q44 0 73.5 -29.5t29.5 -73.5t-30 -75t-73 -31
t-74.5 31.5t-31.5 74.5t31 73t75 30z" />
    <glyph glyph-name="uni2002" unicode="&#x2002;" horiz-adv-x="1024" 
 />
    <glyph glyph-name="uni2003" unicode="&#x2003;" horiz-adv-x="2048" 
 />
    <glyph glyph-name="uni2007" unicode="&#x2007;" horiz-adv-x="1064" 
 />
    <glyph glyph-name="uni200A" unicode="&#x200a;" horiz-adv-x="256" 
 />
    <glyph glyph-name="uni2011" unicode="&#x2011;" horiz-adv-x="571" 
d="M0 559h571v-88h-571v88z" />
    <glyph glyph-name="figuredash" unicode="&#x2012;" horiz-adv-x="1024" 
d="M160 559h702v-88h-702v88z" />
    <glyph glyph-name="endash" unicode="&#x2013;" horiz-adv-x="1024" 
d="M160 559h702v-88h-702v88z" />
    <glyph glyph-name="emdash" unicode="&#x2014;" horiz-adv-x="1138" 
d="M0 559h1139v-88h-1139v88z" />
    <glyph glyph-name="afii00208" unicode="&#x2015;" horiz-adv-x="1138" 
d="M0 559h1139v-88h-1139v88z" />
    <glyph glyph-name="quoteleft" unicode="&#x2018;" horiz-adv-x="479" 
d="M272 1389h129q-143 -131 -159 -242q8 2 18 2q40 0 69 -30.5t29 -71.5q0 -46 -32.5 -77.5t-79.5 -31.5q-54 0 -86.5 37.5t-32.5 99.5q0 150 145 314z" />
    <glyph glyph-name="quoteright" unicode="&#x2019;" horiz-adv-x="479" 
d="M207 938h-129q66 60 109.5 124.5t50.5 115.5h-21q-40 0 -68 29.5t-28 72.5q0 46 32 77.5t78 31.5q54 0 87.5 -38.5t33.5 -101.5q0 -143 -145 -311z" />
    <glyph glyph-name="quotesinglbase" unicode="&#x201a;" horiz-adv-x="479" 
d="M207 -244h-129q145 135 160 240h-21q-40 0 -68 29.5t-28 72.5q0 44 32.5 76.5t77.5 32.5q54 0 87.5 -38.5t33.5 -100.5q0 -142 -145 -312z" />
    <glyph glyph-name="quotedblleft" unicode="&#x201c;" horiz-adv-x="786" 
d="M580 1389h129q-144 -132 -160 -242q8 2 18 2q40 0 69.5 -30.5t29.5 -71.5q0 -46 -33 -77.5t-80 -31.5q-54 0 -86.5 37.5t-32.5 99.5q0 149 146 314zM272 1389h129q-143 -131 -159 -242q8 2 18 2q40 0 69 -30.5t29 -71.5q0 -46 -32.5 -77.5t-79.5 -31.5q-54 0 -86.5 37.5
t-32.5 99.5q0 150 145 314z" />
    <glyph glyph-name="quotedblright" unicode="&#x201d;" horiz-adv-x="815" 
d="M207 938h-129q66 60 109.5 124.5t50.5 115.5h-21q-40 0 -68 29.5t-28 72.5q0 46 32 77.5t78 31.5q54 0 87.5 -38.5t33.5 -101.5q0 -143 -145 -311zM541 938h-129q66 60 109 124.5t50 115.5h-18q-40 0 -69 30.5t-29 71.5q0 46 32.5 77.5t79.5 31.5q54 0 86.5 -38.5
t32.5 -101.5q0 -144 -145 -311z" />
    <glyph glyph-name="quotedblbase" unicode="&#x201e;" horiz-adv-x="815" 
d="M207 -244h-129q145 135 160 240h-21q-40 0 -68 29.5t-28 72.5q0 44 32.5 76.5t77.5 32.5q54 0 87.5 -38.5t33.5 -100.5q0 -142 -145 -312zM541 -244h-129q68 62 109.5 125.5t49.5 114.5h-18q-40 0 -69 30.5t-29 71.5q0 44 33 76.5t79 32.5q53 0 86 -38t33 -101
q0 -146 -145 -312z" />
    <glyph glyph-name="dagger" unicode="&#x2020;" horiz-adv-x="1024" 
d="M463 1331h106v-364h389v-95h-389v-1144h-106v1144h-395v95h395v364z" />
    <glyph glyph-name="daggerdbl" unicode="&#x2021;" horiz-adv-x="1024" 
d="M463 1331h100v-244h395v-96h-395v-891h395v-96h-395v-276h-100v276h-395v96h395v891h-395v96h395v244z" />
    <glyph glyph-name="bullet" unicode="&#x2022;" horiz-adv-x="1366" 
d="M688 977q121 0 193 -78q40 -43 64 -98.5t24 -104.5q0 -115 -85.5 -200.5t-199.5 -85.5q-117 0 -200 83.5t-83 200.5q0 121 84 205q41 42 88 60t115 18z" />
    <glyph glyph-name="ellipsis" unicode="&#x2026;" horiz-adv-x="1402" 
d="M264 188q42 0 73.5 -32t31.5 -74q0 -44 -31.5 -74.5t-75.5 -30.5q-43 0 -73.5 31t-30.5 74t31.5 74.5t74.5 31.5zM702 188q43 0 74 -31.5t31 -74.5q0 -44 -30.5 -74.5t-74.5 -30.5q-43 0 -74.5 31t-31.5 74q0 41 32.5 73.5t73.5 32.5zM1143 188q41 0 72.5 -32.5
t31.5 -73.5q0 -43 -31 -74t-75 -31q-43 0 -74 30.5t-31 74.5q0 43 32 74.5t75 31.5z" />
    <glyph glyph-name="perthousand" unicode="&#x2030;" horiz-adv-x="1656" 
d="M891 1366h100l-807 -1366h-96zM784 643q106 0 178 -94.5t72 -233.5q0 -138 -73 -232.5t-179 -94.5q-103 0 -174 94.5t-71 232.5q0 141 70 234.5t177 93.5zM784 553q-63 0 -104 -67t-41 -171q0 -101 41.5 -169t101.5 -68q63 0 106.5 68.5t43.5 168.5q0 101 -42.5 169.5
t-105.5 68.5zM1366 643q106 0 177 -93.5t71 -234.5q0 -138 -72 -232.5t-178 -94.5q-104 0 -176 95t-72 232q0 141 71.5 234.5t178.5 93.5zM1364 553q-63 0 -104 -67.5t-41 -170.5q0 -100 42 -168.5t103 -68.5q63 0 105 68t42 169q0 103 -41.5 170.5t-105.5 67.5zM293 1378
q104 0 176 -95t72 -234q0 -141 -71.5 -233.5t-178.5 -92.5q-106 0 -177 94t-71 234q0 137 72.5 232t177.5 95zM293 1288q-63 0 -105.5 -68.5t-42.5 -168.5q0 -101 42 -169.5t104 -68.5q64 0 105.5 66.5t41.5 169.5q0 102 -41.5 170.5t-103.5 68.5z" />
    <glyph glyph-name="guilsinglleft" unicode="&#x2039;" horiz-adv-x="450" 
d="M326 0h-78l-172 477l172 490h78l-148 -490z" />
    <glyph glyph-name="guilsinglright" unicode="&#x203a;" horiz-adv-x="450" 
d="M125 967h80l170 -478l-170 -489h-80l147 489z" />
    <glyph glyph-name="uni203E" unicode="&#x203e;" horiz-adv-x="1024" 
d="M0 1743h1024v-96h-1024v96z" />
    <glyph glyph-name="fraction" unicode="&#x2044;" horiz-adv-x="243" 
d="M465 1331h98l-782 -1331h-98z" />
    <glyph glyph-name="zerosuperior" unicode="&#x2070;" horiz-adv-x="704" 
d="M356 1341q126 0 198.5 -109.5t72.5 -299.5t-73.5 -300t-199.5 -110q-127 0 -200.5 109.5t-73.5 298.5q0 195 72.5 303t203.5 108zM356 1268q-89 0 -137.5 -87.5t-48.5 -250.5q0 -162 55 -258q44 -76 129 -76q86 0 134.5 89t48.5 247q0 157 -48 246.5t-133 89.5z" />
    <glyph glyph-name="foursuperior" unicode="&#x2074;" horiz-adv-x="704" 
d="M494 809h145v-78h-143v-205h-88v205h-345v62l353 544h78v-528zM410 809l2 395l-252 -395h250z" />
    <glyph glyph-name="fivesuperior" unicode="&#x2075;" horiz-adv-x="704" 
d="M172 1331h389l-14 -76h-299l-33 -223q68 47 139 47q112 0 180 -73t68 -193q0 -129 -74.5 -210t-193.5 -81q-102 0 -165 55t-69 150h82q10 -64 49 -97.5t101 -33.5q80 0 130 60t50 155q0 87 -44 138.5t-118 51.5q-54 0 -88.5 -21t-62.5 -71l-80 6z" />
    <glyph glyph-name="sixsuperior" unicode="&#x2076;" horiz-adv-x="704" 
d="M424 1352h102q-139 -136 -245 -297q52 16 84 16q101 0 169 -77.5t68 -194.5q0 -123 -69.5 -201t-178.5 -78q-110 0 -181 78t-71 201q0 237 322 553zM354 997q-71 0 -116 -56.5t-45 -145.5q0 -86 45 -143.5t114 -57.5t114.5 57.5t45.5 143.5t-46 144t-112 58z" />
    <glyph glyph-name="sevensuperior" unicode="&#x2077;" horiz-adv-x="704" 
d="M90 1331h524v-69l-419 -730h-99l416 721h-422v78z" />
    <glyph glyph-name="eightsuperior" unicode="&#x2078;" horiz-adv-x="704" 
d="M217 950q-50 34 -71 73t-21 99q0 95 64.5 157t162.5 62t163 -62t65 -157q0 -59 -21.5 -98.5t-71.5 -73.5q61 -37 89 -84.5t28 -115.5q0 -101 -70 -164.5t-182 -63.5t-182 63.5t-70 164.5q0 69 27.5 116t89.5 84zM354 1268q-63 0 -101 -39.5t-38 -104.5q0 -62 38.5 -101.5
t98.5 -39.5t98.5 40t38.5 103q0 62 -37.5 102t-97.5 40zM354 911q-75 0 -119.5 -42.5t-44.5 -114.5q0 -70 45 -114t117 -44t117 44t45 114q0 71 -44 114t-116 43z" />
    <glyph glyph-name="ninesuperior" unicode="&#x2079;" horiz-adv-x="704" 
d="M281 512h-103q154 154 246 297q-52 -16 -84 -16q-103 0 -170.5 76.5t-67.5 193.5q0 124 69 201t179 77q112 0 182 -76.5t70 -199.5q0 -238 -321 -553zM352 1268q-70 0 -114.5 -56.5t-44.5 -144.5q0 -86 45 -143.5t112 -57.5q71 0 116.5 56.5t45.5 144.5q0 87 -45.5 144
t-114.5 57z" />
    <glyph glyph-name="parenleftsuperior" unicode="&#x207d;" horiz-adv-x="385" 
d="M268 1366h76q-78 -95 -112.5 -219.5t-34.5 -310.5q0 -181 33.5 -301.5t113.5 -223.5h-74q-161 170 -161 527q0 358 159 528z" />
    <glyph glyph-name="parenrightsuperior" unicode="&#x207e;" horiz-adv-x="385" 
d="M121 311h-74q83 123 113 233t30 294q0 187 -33 305.5t-114 222.5h74q159 -156 159 -528q0 -186 -36 -309t-119 -218z" />
    <glyph glyph-name="zeroinferior" unicode="&#x2080;" horiz-adv-x="704" 
d="M356 809q126 0 198.5 -109.5t72.5 -300.5q0 -190 -73.5 -299.5t-199.5 -109.5q-127 0 -200.5 109t-73.5 298q0 195 72.5 303.5t203.5 108.5zM356 735q-89 0 -137.5 -88.5t-48.5 -249.5t55 -260q43 -74 129 -74t134.5 89t48.5 247q0 157 -48 246.5t-133 89.5z" />
    <glyph glyph-name="oneinferior" unicode="&#x2081;" horiz-adv-x="704" 
d="M166 627v63q83 3 121.5 29t50.5 86h65v-805h-86v627h-151z" />
    <glyph glyph-name="twoinferior" unicode="&#x2082;" horiz-adv-x="704" 
d="M207 555h-84q3 254 248 254q104 0 166.5 -52.5t62.5 -138.5q0 -54 -24 -99.5t-107 -149.5q-113 -140 -233 -293h378v-76h-493v63q15 19 80 99q33 46 141 180q118 148 143 189.5t25 84.5q0 53 -39.5 85t-103.5 32q-77 0 -115.5 -43t-44.5 -135z" />
    <glyph glyph-name="threeinferior" unicode="&#x2083;" horiz-adv-x="704" 
d="M193 586h-82q5 103 57 157q33 31 81.5 49.5t100.5 18.5q104 0 168 -55t64 -144q0 -118 -109 -174q141 -58 141 -200q0 -111 -73.5 -178.5t-194.5 -67.5q-129 0 -195 62.5t-65 183.5h80q1 -86 44.5 -127t131.5 -41q86 0 133 42.5t47 120.5t-47.5 119t-138.5 41
q-25 0 -43 -2v80q95 -9 145.5 25.5t50.5 109.5q0 61 -37.5 95t-105.5 34q-135 0 -153 -149z" />
    <glyph glyph-name="fourinferior" unicode="&#x2084;" horiz-adv-x="704" 
d="M494 276h145v-77h-143v-205h-88v205h-345v61l353 545h78v-529zM410 276l2 396l-252 -396h250z" />
    <glyph glyph-name="fiveinferior" unicode="&#x2085;" horiz-adv-x="704" 
d="M186 799h389l-14 -76h-299l-33 -223q38 27 68 37t72 10q113 0 180 -72.5t67 -193.5q0 -129 -74.5 -210t-193.5 -81q-103 0 -165 55t-68 150h82q10 -64 48.5 -98t100.5 -34q81 0 130.5 60t49.5 156q0 88 -43 139t-118 51q-54 0 -89 -21.5t-63 -70.5l-80 6z" />
    <glyph glyph-name="sixinferior" unicode="&#x2086;" horiz-adv-x="704" 
d="M424 819h102q-138 -136 -245 -297q52 17 84 17q103 0 170 -77t67 -194q0 -123 -69.5 -200.5t-178.5 -77.5q-112 0 -182 77t-70 199q0 237 322 553zM354 465q-72 0 -116.5 -56t-44.5 -145q0 -88 45 -144.5t114 -56.5t114.5 56.5t45.5 144.5q0 86 -45 143.5t-113 57.5z" />
    <glyph glyph-name="seveninferior" unicode="&#x2087;" horiz-adv-x="704" 
d="M90 799h524v-70l-419 -729h-99l416 721h-422v78z" />
    <glyph glyph-name="eightinferior" unicode="&#x2088;" horiz-adv-x="704" 
d="M217 420q-49 32 -70.5 72t-21.5 100q0 94 64.5 155.5t162.5 61.5t163 -61.5t65 -155.5q0 -60 -21.5 -100t-71.5 -72q61 -37 89 -85t28 -116q0 -101 -70.5 -165t-181.5 -64t-181.5 64t-70.5 165q0 68 28 116t89 85zM354 735q-63 0 -101 -38.5t-38 -102.5q0 -63 38 -102
t99 -39t99 39t38 102t-37.5 102t-97.5 39zM354 381q-74 0 -119 -44t-45 -116q0 -69 45 -113.5t117 -44.5t117 44.5t45 115.5q0 69 -45 113.5t-115 44.5z" />
    <glyph glyph-name="nineinferior" unicode="&#x2089;" horiz-adv-x="704" 
d="M281 -20h-103q156 159 246 296q-52 -16 -84 -16q-103 0 -170.5 76.5t-67.5 193.5q0 124 69 201.5t179 77.5q112 0 182 -77t70 -200q0 -231 -321 -552zM352 735q-70 0 -114.5 -56t-44.5 -144q0 -86 45 -143.5t112 -57.5q71 0 116.5 56.5t45.5 144.5q0 87 -45.5 143.5
t-114.5 56.5z" />
    <glyph glyph-name="franc" unicode="&#x20a3;" horiz-adv-x="1243" 
d="M297 758h557v-103h-553v-655h-121v1366h715v-102h-598v-506zM913 602h80q15 -62 17 -106q34 58 66.5 82t78.5 24q39 0 88 -22v-82q-55 26 -86 26q-66 0 -105.5 -72t-39.5 -192v-260h-84v375q0 99 -2.5 134.5t-12.5 92.5z" />
    <glyph glyph-name="lira" unicode="&#x20a4;" horiz-adv-x="1064" 
d="M422 616h311v-81h-325q-55 -316 -125 -443q95 14 194 14h74q59 -2 108 -2q114 0 156 34.5t47 129.5h107q0 -132 -76 -205q-45 -40 -97 -51.5t-192 -11.5h-471q89 151 156 535h-193v81h209q21 117 25 146h-211v82h225q37 235 72 350q57 195 250 195q72 0 125.5 -29
t78.5 -82q22 -44 27 -145h-109q-6 89 -32 121t-92 32q-57 0 -90 -29t-52 -94q-26 -92 -63 -319h297v-82h-312q-18 -124 -22 -146z" />
    <glyph glyph-name="peseta" unicode="&#x20a7;" horiz-adv-x="1832" 
d="M180 1366h193q154 0 232 -7.5t140 -27.5q110 -37 174 -135t64 -231q0 -121 -50.5 -209.5t-144.5 -132.5q-65 -29 -143.5 -39.5t-243.5 -10.5h-100v-573h-121v1366zM297 676h100q171 0 258 18q98 20 149.5 89.5t51.5 183.5q0 97 -41 166.5t-115 97.5q-53 22 -111.5 27.5
t-217.5 5.5h-74v-588zM1106 586h151v-70h-153l-6 -303v-59q0 -59 11.5 -77t49.5 -18q41 0 96 25v-78q-59 -18 -108 -18q-71 0 -104 30.5t-33 94.5l2 59l2 45l6 299h-90v70h92l2 166h84zM1757 418h-82q-7 61 -35.5 85.5t-91.5 24.5q-53 0 -87 -24t-34 -62q0 -34 28 -53
t108 -41q77 -21 112 -37.5t56 -38.5q38 -38 38 -104q0 -83 -60.5 -133.5t-160.5 -50.5q-110 0 -168 52t-57 150h82q4 -67 39 -98t104 -31q63 0 98 27.5t35 77.5q0 47 -36 67q-15 9 -31.5 14.5t-104.5 32.5q-91 26 -130.5 64.5t-39.5 99.5q0 71 59 116.5t152 45.5
q98 0 151 -46.5t56 -137.5z" />
    <glyph glyph-name="Euro" unicode="&#x20ac;" horiz-adv-x="1099" 
d="M311 846h607l-44 -94h-573q-2 -37 -2 -66v-63h516l-43 -95h-467q17 -216 117.5 -332t269.5 -116q146 0 260 90q38 30 64 62t59 90v-170q-164 -170 -407 -170q-209 0 -335.5 141.5t-152.5 404.5h-157l38 95h117v14v14v29q0 27 4 72h-166l41 94h136q40 253 169 387.5
t332 134.5q233 0 383 -170l-51 -115q-80 100 -157.5 143.5t-176.5 43.5q-307 0 -381 -424z" />
    <glyph glyph-name="uni2101" unicode="&#x2101;" horiz-adv-x="1773" 
d="M385 1372h70l303 -825h-94l-84 227h-320l-84 -227h-94zM287 850h266l-133 391zM1346 1366h98l-805 -1366h-98zM1679 604h-92q-8 80 -46.5 115t-119.5 35q-75 0 -120.5 -33.5t-45.5 -89.5q0 -58 52 -92q39 -23 157 -72q139 -57 187.5 -109.5t48.5 -144.5
q0 -106 -72 -166.5t-198 -60.5q-77 0 -141 24t-97 66q-29 33 -40 72t-11 104h88q3 -53 12.5 -82.5t30.5 -50.5q25 -25 68 -40.5t90 -15.5q83 0 130.5 39.5t47.5 108.5q0 80 -76 127q-42 23 -172 76q-105 41 -150 90t-45 123q0 92 71.5 148t188.5 56q245 0 254 -227z" />
    <glyph glyph-name="afii61352" unicode="&#x2116;" 
d="M264 618q42 0 73.5 -32t31.5 -74q0 -44 -31 -74t-76 -30q-43 0 -73.5 30.5t-30.5 73.5t31.5 74.5t74.5 31.5z" />
    <glyph glyph-name="trademark" unicode="&#x2122;" horiz-adv-x="1562" 
d="M23 1366h534v-76h-221v-743h-90v743h-223v76zM686 1366h133l254 -707l252 707h133v-819h-90v696l-254 -696h-84l-254 696v-696h-90v819z" />
    <glyph glyph-name="uni2126" unicode="&#x2126;" horiz-adv-x="1366" 
d="M57 0v96h400q-400 230 -400 645q0 183 82.5 334t226 237.5t316.5 86.5t316.5 -86.5t226 -237.5t82.5 -334q0 -205 -101.5 -368.5t-298.5 -276.5h400v-96h-529v88q92 53 145.5 94t100.5 94q174 192 174 455q0 157 -68 288.5t-186.5 207.5t-259.5 76q-221 0 -369.5 -164
t-148.5 -408q0 -206 103.5 -364.5t316.5 -278.5v-88h-529z" />
    <glyph glyph-name="onethird" unicode="&#x2153;" horiz-adv-x="1654" 
d="M166 1159v64q84 3 122 28t50 86h65v-805h-86v627h-151zM1167 1331h101l-783 -1331h-98zM1143 586h-82q4 107 67 166t172 59q102 0 168 -56t66 -143q0 -117 -111 -174q142 -56 142 -200q0 -110 -74 -178t-195 -68q-260 0 -260 246h80q3 -86 45.5 -127t130.5 -41
q86 0 133.5 43.5t47.5 122.5q0 76 -48 116.5t-139 40.5q-25 0 -43 -2v80q95 -9 147 26t52 109q0 58 -40 93.5t-106 35.5q-135 0 -153 -149z" />
    <glyph glyph-name="twothirds" unicode="&#x2154;" horiz-adv-x="1654" 
d="M207 1085h-84q3 256 248 256q103 0 166 -52.5t63 -139.5q0 -55 -23.5 -100t-107.5 -150q-203 -251 -233 -291h378v-76h-493v64q29 35 80 98q8 12 84 107q165 209 180 231q45 61 45 115t-38.5 85.5t-104.5 31.5q-78 0 -116 -42.5t-44 -136.5zM1169 1331h99l-783 -1331h-98
zM1145 586h-82q4 107 67.5 166t172.5 59q102 0 167.5 -56t65.5 -143q0 -117 -111 -174q142 -56 142 -200q0 -110 -74 -178t-195 -68q-260 0 -260 246h80q3 -86 45.5 -127t130.5 -41q86 0 133.5 43.5t47.5 122.5q0 76 -48 116.5t-139 40.5q-25 0 -43 -2v80q95 -9 147 26
t52 109q0 58 -40 93.5t-106 35.5q-135 0 -153 -149z" />
    <glyph glyph-name="oneeighth" unicode="&#x215b;" horiz-adv-x="1654" 
d="M166 1159v64q84 3 122 28t50 86h65v-805h-86v627h-151zM1167 1331h101l-783 -1331h-98zM1167 420q-94 61 -94 172q0 92 66.5 154.5t163.5 62.5q98 0 162.5 -61.5t64.5 -155.5q0 -60 -21.5 -100t-70.5 -72q116 -71 116 -201q0 -101 -70.5 -165t-180.5 -64
q-111 0 -181.5 64t-70.5 165q0 68 27.5 116.5t88.5 84.5zM1305 735q-63 0 -102.5 -39.5t-39.5 -101.5q0 -61 40 -101t100 -40q61 0 99 39t38 102t-37.5 102t-97.5 39zM1305 381q-74 0 -119 -44t-45 -116q0 -69 45 -113.5t117 -44.5q71 0 116 45t45 115q0 69 -44.5 113.5
t-114.5 44.5z" />
    <glyph glyph-name="threeeighths" unicode="&#x215c;" horiz-adv-x="1654" 
d="M193 1118h-82q12 223 239 223q106 0 169 -53t63 -143q0 -117 -109 -176q141 -59 141 -201q0 -109 -74 -177.5t-194 -68.5q-129 0 -195.5 63t-64.5 183h80q3 -170 176 -170q83 0 131.5 44.5t48.5 121.5t-47.5 118.5t-136.5 41.5q-25 0 -45 -2v79l43 -2q72 0 112.5 37.5
t40.5 102.5q0 61 -37 94t-106 33q-70 0 -107 -35.5t-46 -112.5zM1167 1331h101l-783 -1331h-98zM1167 420q-49 32 -70.5 72t-21.5 100q0 94 65 155.5t163 61.5t162.5 -61.5t64.5 -155.5q0 -60 -21.5 -100t-70.5 -72q61 -36 88.5 -84.5t27.5 -116.5q0 -101 -70.5 -165
t-180.5 -64q-111 0 -181.5 64t-70.5 165q0 68 27.5 116.5t88.5 84.5zM1305 735q-63 0 -101.5 -38.5t-38.5 -102.5q0 -63 38 -102t100 -39q61 0 99 39t38 102t-37.5 102t-97.5 39zM1305 381q-74 0 -119 -44t-45 -116q0 -69 45 -113.5t117 -44.5t116.5 44.5t44.5 115.5
q0 69 -44.5 113.5t-114.5 44.5z" />
    <glyph glyph-name="fiveeighths" unicode="&#x215d;" horiz-adv-x="1654" 
d="M186 1331h389l-14 -76h-299l-35 -221q70 45 144 45q110 0 177.5 -73t67.5 -193q0 -128 -74.5 -209.5t-191.5 -81.5q-103 0 -166 55t-69 150h82q10 -64 49 -97.5t102 -33.5q79 0 128.5 60t49.5 157q0 85 -43.5 136.5t-115.5 51.5q-51 0 -87 -21.5t-65 -70.5l-82 6z
M1167 1331h101l-785 -1331h-96zM1167 420q-50 32 -72 73t-22 99q0 92 66 154.5t164 62.5q97 0 162 -62.5t65 -154.5q0 -60 -21.5 -100t-70.5 -72q116 -71 116 -201q0 -100 -70.5 -164.5t-180.5 -64.5q-112 0 -182 64t-70 165q0 69 27.5 116.5t88.5 84.5zM1305 735
q-63 0 -102.5 -39t-39.5 -102q0 -62 39.5 -101.5t100.5 -39.5q60 0 98.5 39t38.5 102q0 61 -38 101t-97 40zM1305 381q-75 0 -119.5 -43.5t-44.5 -116.5q0 -70 45 -114t117 -44q71 0 116 45t45 115q0 69 -45 113.5t-114 44.5z" />
    <glyph glyph-name="seveneighths" unicode="&#x215e;" horiz-adv-x="1654" 
d="M90 1331h524v-69l-419 -730h-99l416 721h-422v78zM1167 1331h101l-785 -1331h-96zM1167 420q-51 32 -72.5 72t-21.5 100q0 92 65 154.5t162 62.5q98 0 164 -62.5t66 -154.5q0 -114 -94 -172q118 -71 118 -201q0 -100 -71 -164.5t-180 -64.5q-110 0 -182 64.5t-72 164.5
q0 130 118 201zM1303 735q-62 0 -101 -39t-39 -102q0 -62 39.5 -101.5t100.5 -39.5q60 0 98.5 39.5t38.5 101.5t-38.5 101.5t-98.5 39.5zM1305 381q-74 0 -120 -44t-46 -116q0 -69 46 -113.5t118 -44.5q70 0 115.5 45.5t45.5 114.5t-45 113.5t-114 44.5z" />
    <glyph glyph-name="partialdiff" unicode="&#x2202;" horiz-adv-x="1024" 
d="M193 1282l14 96q163 -25 273.5 -75t205.5 -142q125 -120 195.5 -300t70.5 -376q0 -189 -80 -311q-60 -93 -155.5 -146t-202.5 -53q-180 0 -310 136t-130 325q0 192 125 324.5t305 132.5q64 0 126 -19.5t105 -52.5q36 -29 88 -100l-10 29q-64 219 -229 360t-391 172z
M528 811q-146 0 -246 -109.5t-100 -269.5q0 -154 98 -263.5t236 -109.5t234 112t96 275q0 155 -91.5 260t-226.5 105z" />
    <glyph glyph-name="Delta" unicode="&#x2206;" horiz-adv-x="1366" 
d="M66 0l561 1366h110l563 -1366h-1234zM217 98h930l-465 1139z" />
    <glyph glyph-name="product" unicode="&#x220f;" horiz-adv-x="1404" 
d="M72 1536h1259v-98h-160v-1852h160v-98h-436v98h170v1852h-727v-1852h168v-98h-434v98h159v1852h-159v98z" />
    <glyph glyph-name="summation" unicode="&#x2211;" horiz-adv-x="1366" 
d="M1208 1536v-451h-98l-8 351h-922l520 -881l-520 -969h942l4 348h103v-446h-1166v113l512 954l-512 872v109h1145z" />
    <glyph glyph-name="minus" unicode="&#x2212;" horiz-adv-x="1064" 
d="M111 729h841v-82h-841v82z" />
    <glyph glyph-name="radical" unicode="&#x221a;" horiz-adv-x="1366" 
d="M1366 1696v-99h-416l-479 -1597h-121l-188 635h-162v98h248l90 -295q25 -84 70 -278h6l12 47q14 53 34.5 127.5t41.5 152.5l18 70l105 344l237 795h504z" />
    <glyph glyph-name="infinity" unicode="&#x221e;" horiz-adv-x="1366" 
d="M684 623q-79 -120 -163 -177t-181 -57q-132 0 -216.5 86.5t-84.5 224.5q0 134 85 219t218 85q96 0 178.5 -56.5t161.5 -177.5q82 125 162.5 179.5t183.5 54.5q132 0 215.5 -86.5t83.5 -223.5q0 -133 -84 -219t-215 -86q-101 0 -181.5 55t-162.5 179zM737 696l13 -20
q122 -195 268 -195q89 0 146 60.5t57 154.5q0 95 -57 155t-148 60q-78 0 -140.5 -47.5t-138.5 -167.5zM629 696q-75 118 -139 166.5t-144 48.5q-89 0 -145 -60t-56 -155q0 -94 57 -154.5t146 -60.5q79 0 142 48t139 167z" />
    <glyph glyph-name="integral" unicode="&#x222b;" horiz-adv-x="1024" 
d="M231 -489l27 94q49 -21 84 -21q93 0 111 88q6 40 6 150v1364q1 137 3 165t13 60q19 58 72 91.5t127 33.5q54 0 119 -23l-27 -94q-46 21 -84 21q-96 0 -111 -86q-6 -34 -6 -191v-1323q0 -128 -5.5 -176t-24.5 -80q-26 -44 -80 -69t-123 -25q-50 0 -101 21z" />
    <glyph glyph-name="uni2236" unicode="&#x2236;" horiz-adv-x="532" 
d="M266 453q34 0 59 -25.5t25 -60.5q0 -37 -23.5 -60.5t-60.5 -23.5t-61.5 24.5t-24.5 59.5q0 34 25.5 60t60.5 26zM266 1083q35 0 59.5 -24.5t24.5 -59.5q0 -37 -24.5 -61.5t-59.5 -24.5t-60.5 25t-25.5 59q0 36 25 61t61 25z" />
    <glyph glyph-name="uni2243" unicode="&#x2243;" horiz-adv-x="1024" 
d="M90 711l-67 43q57 114 122 166.5t148 52.5q74 0 235 -80q87 -43 128 -57.5t77 -14.5q61 0 106 34.5t95 119.5l67 -39q-57 -112 -123.5 -163.5t-154.5 -51.5q-47 0 -95.5 17.5t-189.5 84.5q-98 49 -153 49q-56 0 -102 -37.5t-93 -123.5zM1001 594v-82h-978v82h978z" />
    <glyph glyph-name="approxequal" unicode="&#x2248;" horiz-adv-x="1024" 
d="M90 711l-67 43q57 114 122 166.5t148 52.5q74 0 235 -80q87 -43 128 -57.5t77 -14.5q61 0 106 34.5t95 119.5l67 -39q-57 -112 -123.5 -163.5t-154.5 -51.5q-47 0 -95.5 17.5t-189.5 84.5q-98 49 -153 49q-56 0 -102 -37.5t-93 -123.5zM90 397l-67 43q57 114 121 165.5
t149 51.5q44 0 95 -17t140 -60q90 -45 129 -58.5t78 -13.5q60 0 105 34.5t94 119.5l67 -41q-57 -111 -123.5 -162t-154.5 -51q-50 0 -96.5 16.5t-188.5 85.5q-97 47 -153 47q-58 0 -103 -36.5t-92 -123.5z" />
    <glyph glyph-name="notequal" unicode="&#x2260;" horiz-adv-x="1024" 
d="M565 885l111 233l80 -24l-99 -209h299v-94h-344l-98 -209h442v-95h-487l-117 -247l-78 24l103 223h-309v95h354l98 209h-452v94h497z" />
    <glyph glyph-name="lessequal" unicode="&#x2264;" horiz-adv-x="1024" 
d="M954 1204v-104l-772 -336l772 -338v-102l-886 391v94zM954 262v-98h-886v98h886z" />
    <glyph glyph-name="greaterequal" unicode="&#x2265;" horiz-adv-x="1024" 
d="M68 324v102l772 338l-772 336v104l886 -395v-94zM68 164v98h886v-98h-886z" />
    <glyph glyph-name="dotmath" unicode="&#x22c5;" 
d="M264 618q42 0 73.5 -32t31.5 -74q0 -44 -31 -74t-76 -30q-43 0 -73.5 30.5t-30.5 73.5t31.5 74.5t74.5 31.5z" />
    <glyph glyph-name="lozenge" unicode="&#x25ca;" horiz-adv-x="1366" 
d="M684 1419l530 -735l-530 -737l-532 737zM684 1237l-403 -553l403 -555l403 555z" />
    <glyph glyph-name="uniEA31" unicode="&#xea31;" horiz-adv-x="1024" 
d="M696 1233h-59q-12 47 -37 66.5t-72 19.5q-64 0 -99.5 -46.5t-35.5 -131.5t35.5 -132.5t99.5 -47.5q105 0 117 116h60q-4 -81 -51 -125.5t-126 -44.5q-92 0 -146 63.5t-54 170.5t53 169t147 62q147 0 168 -139zM520 1524q157 0 269 -113t112 -270q0 -159 -113 -272
t-272 -113q-160 0 -272.5 112.5t-112.5 270.5q0 163 112.5 274t276.5 111zM520 1462q-136 0 -229.5 -93t-93.5 -230q0 -133 93.5 -227.5t225.5 -94.5t226 95t94 229q0 132 -93.5 226.5t-222.5 94.5z" />
    <glyph glyph-name="uniEA32" unicode="&#xea32;" horiz-adv-x="1024" 
d="M399 1366h84q92 0 129 -12q40 -12 64 -43.5t24 -71.5q0 -87 -96 -123l111 -201h-68l-106 191h-80v-191h-62v451zM461 1159h22q89 0 120.5 16t31.5 62t-29.5 61t-120.5 15h-24v-154zM541 1524q157 0 269 -113t112 -270q0 -159 -113 -272t-272 -113q-160 0 -272.5 112.5
t-112.5 270.5q0 163 112.5 274t276.5 111zM541 1462q-137 0 -230.5 -93.5t-93.5 -229.5q0 -133 94 -227.5t226 -94.5t225.5 95t93.5 229q0 132 -93 226.5t-222 94.5z" />
    <glyph glyph-name="uniEA3E" unicode="&#xea3e;" 
d="M264 618q42 0 73.5 -32t31.5 -74q0 -44 -31 -74t-76 -30q-43 0 -73.5 30.5t-30.5 73.5t31.5 74.5t74.5 31.5z" />
    <glyph glyph-name="uniEA3F" unicode="&#xea3f;" horiz-adv-x="1024" 
d="M674 1026h-84q115 105 127 188q-6 -2 -17 -2q-32 0 -58 27t-26 61q0 38 28.5 65.5t68.5 27.5q46 0 74 -32.5t28 -84.5q0 -115 -141 -250z" />
    <glyph glyph-name="uniEA4F" unicode="&#xea4f;" horiz-adv-x="1024" 
d="M539 1516h86q-114 -102 -127 -187h16q34 0 58 -25.5t24 -62.5q0 -38 -27 -65t-67 -27q-46 0 -74.5 33t-28.5 84q0 113 140 250z" />
    <glyph glyph-name="uniEA67" unicode="&#xea67;" horiz-adv-x="1024" 
d="M688 1014h-88q119 109 131 194q-6 -2 -16 -2q-34 0 -60 27.5t-26 64.5q0 40 28.5 67.5t69.5 27.5q47 0 75.5 -32.5t28.5 -86.5q0 -64 -33 -124.5t-110 -135.5z" />
    <glyph glyph-name="uniEA68" unicode="&#xea68;" horiz-adv-x="1024" 
d="M377 1729q43 0 71.5 -29t28.5 -72t-30.5 -73.5t-71.5 -30.5t-72 31t-31 73q0 43 30 72t75 29zM649 1729q44 0 72.5 -28.5t28.5 -72.5t-29.5 -74t-71.5 -30q-41 0 -72.5 31.5t-31.5 72.5q0 43 30 72t74 29z" />
    <glyph glyph-name="uniEA6A" unicode="&#xea6a;" horiz-adv-x="1024" 
d="M383 1378q38 0 66 -28t28 -68q0 -41 -27.5 -68.5t-68.5 -27.5t-68.5 27.5t-27.5 68.5q0 40 28.5 68t69.5 28zM643 1378q38 0 67 -29t29 -67q0 -40 -28 -68t-68 -28q-41 0 -68.5 27.5t-27.5 68.5q0 40 28 68t68 28z" />
    <glyph glyph-name="uniEA71" unicode="&#xea71;" horiz-adv-x="1064" 
d="M932 1026h90v-82h-88q-15 -209 -154 -297q-67 -43 -155 -58.5t-275 -15.5h-100v-573h-121v944h-86v82h86v340h193q205 0 297 -16t159 -62q128 -93 154 -262zM246 944v-268h100q140 0 210 9t120 32q60 29 92 84t39 143h-561zM246 1026h557q-15 75 -43 120.5t-85 73.5
t-140 37t-216 7h-73v-238z" />
    <glyph glyph-name="uniEA72" unicode="&#xea72;" horiz-adv-x="514" 
d="M123 1208v49q62 3 89 19.5t34 58.5h51v-551h-66v424h-108zM4 707h412v-72h-412v72zM100 375h-65q3 91 46.5 134.5t129.5 43.5q75 0 119.5 -36t44.5 -97q0 -38 -19.5 -71.5t-91.5 -121.5l-71 -86q-48 -61 -68 -84h260v-57h-350v47q107 130 153.5 187t77.5 100t35 55.5
t4 30.5q0 35 -25 54.5t-71 19.5q-54 0 -79 -28t-30 -91z" />
    <glyph glyph-name="uniEA73" unicode="&#xea73;" horiz-adv-x="514" 
d="M123 1208v49q62 3 89 19.5t34 58.5h51v-551h-66v424h-108zM4 707h412v-72h-412v72zM311 195h103v-60h-101v-139h-67v139h-240v45l246 371h59v-356zM248 195v251l-166 -251h166z" />
    <glyph glyph-name="uniEA74" unicode="&#xea74;" horiz-adv-x="514" 
d="M150 1180h-66q4 78 49 118.5t123 40.5q73 0 119.5 -38.5t46.5 -100.5q0 -74 -72 -117q94 -39 94 -137q0 -75 -52.5 -121.5t-137.5 -46.5q-84 0 -135 41t-51 109v22h63q1 -60 29 -86t90 -26q60 0 92.5 27.5t32.5 78.5q0 33 -19.5 60t-50.5 38q-6 3 -61 9q-7 0 -11 -2
l-20 -2v63q12 -2 33 -2q51 0 78.5 23.5t27.5 66.5q0 37 -27 59.5t-71 22.5q-50 0 -74 -23t-30 -77zM49 707h412v-72h-412v72zM356 195h103v-60h-101v-139h-67v139h-240v45l246 371h59v-356zM293 195v251l-166 -251h166z" />
    <glyph glyph-name="dotlessj" unicode="&#xf6be;" horiz-adv-x="501" 
d="M231 969h117v-903q0 -149 -10 -215t-39 -113q-76 -125 -287 -125q-19 0 -39 2h-20v96q29 -2 37 -2q154 0 205 82q22 35 29 90t7 185v903z" />
    <glyph glyph-name="commaaccent" unicode="&#xf6c3;" horiz-adv-x="1024" 
d="M483 -475h-84q115 106 127 188q-6 -2 -16 -2q-33 0 -58.5 26.5t-25.5 61.5q0 37 28.5 64.5t67.5 27.5q46 0 74.5 -32t28.5 -84q0 -114 -142 -250z" />
    <glyph glyph-name="Acute" unicode="&#xf6c9;" horiz-adv-x="1024" 
d="M436 1495l264 264h170l-315 -264h-119z" />
    <glyph glyph-name="Caron" unicode="&#xf6ca;" horiz-adv-x="1024" 
d="M850 1759l-262 -262h-152l-260 262h109l227 -188l227 188h111z" />
    <glyph glyph-name="Dieresis" unicode="&#xf6cb;" horiz-adv-x="1024" 
d="M334 1731q44 0 73 -29.5t29 -73.5t-30.5 -75t-73.5 -31q-42 0 -73.5 32t-31.5 74q0 44 30.5 73.5t76.5 29.5zM694 1731q43 0 73 -30t30 -73q0 -42 -31.5 -74t-73.5 -32q-43 0 -73.5 31t-30.5 75q0 45 29.5 74t76.5 29z" />
    <glyph glyph-name="Grave" unicode="&#xf6ce;" horiz-adv-x="1024" 
d="M600 1495h-119l-315 264h170z" />
    <glyph glyph-name="Hungarumlaut" unicode="&#xf6cf;" horiz-adv-x="1024" 
d="M322 1495l196 264h135l-229 -264h-102zM532 1495l197 264h135l-229 -264h-103z" />
    <glyph glyph-name="Macron" unicode="&#xf6d0;" horiz-adv-x="1024" 
d="M227 1671h572v-92h-572v92z" />
    <glyph glyph-name="commasuperior" unicode="&#xf6e2;" horiz-adv-x="335" 
d="M152 383h-107q95 80 113 141q-72 9 -72 68q0 31 22 51.5t56 20.5q37 0 60.5 -25.5t23.5 -63.5q0 -87 -96 -192z" />
    <glyph glyph-name="periodsuperior" unicode="&#xf6e8;" horiz-adv-x="364" 
d="M184 672q14 0 52 -27q12 -9 15.5 -19t2.5 -30q-2 -27 -4 -34t-14 -17q-22 -19 -54 -19q-31 0 -52 20t-21 48q0 31 20 51q9 7 29 17t26 10z" />
    <glyph glyph-name="zerooldstyle" unicode="&#xf730;" horiz-adv-x="962" 
d="M487 989q163 0 266 -141.5t103 -364.5q0 -226 -104 -366t-271 -140q-164 0 -269.5 141.5t-105.5 362.5q0 227 105.5 367.5t275.5 140.5zM485 895q-119 0 -190.5 -113.5t-71.5 -300.5q0 -183 71.5 -296t188.5 -113q114 0 185 113.5t71 297.5q0 182 -71 297t-183 115z" />
    <glyph glyph-name="oneoldstyle" unicode="&#xf731;" horiz-adv-x="595" 
d="M246 969h104v-969h-104v969z" />
    <glyph glyph-name="twooldstyle" unicode="&#xf732;" horiz-adv-x="800" 
d="M219 102h510v-102h-651v88q266 247 381.5 396.5t115.5 246.5q0 75 -50.5 120.5t-133.5 45.5q-61 0 -110.5 -26t-75.5 -72q-24 -47 -33 -142h-92q3 88 19 140.5t53 93.5q89 98 249 98q133 0 212 -71t79 -191q0 -88 -47.5 -171t-171.5 -210q-120 -123 -254 -244z" />
    <glyph glyph-name="threeoldstyle" unicode="&#xf733;" horiz-adv-x="804" 
d="M287 416v94h18h8q88 -4 166 41q109 53 109 170q0 80 -53 128t-142 48q-97 0 -151.5 -55t-63.5 -162h-94q3 150 86 229.5t236 79.5q135 0 212.5 -70t77.5 -192q0 -188 -200 -256q215 -59 215 -270q0 -143 -107 -283.5t-346 -312.5h-145q188 134 325 280q156 163 156 314
q0 103 -69 162t-191 59q-1 0 -47 -4z" />
    <glyph glyph-name="fouroldstyle" unicode="&#xf734;" horiz-adv-x="995" 
d="M705 90h225v-90h-225v-395h-105v395h-534v86l532 881h107v-877zM600 90l4 727l-434 -727h430z" />
    <glyph glyph-name="fiveoldstyle" unicode="&#xf735;" horiz-adv-x="768" 
d="M696 969l-18 -103h-428l-43 -241q207 -19 324.5 -117.5t117.5 -253.5q0 -154 -113 -318.5t-331 -330.5h-133q34 26 107 92t130 123q223 231 223 409q0 86 -52 156t-140 102q-50 18 -94 26t-152 19l78 437h524z" />
    <glyph glyph-name="sixoldstyle" unicode="&#xf736;" horiz-adv-x="1064" 
d="M664 1346h129q-125 -134 -201 -237.5t-168 -264.5q74 39 156 39q158 0 260 -126t102 -321q0 -205 -105.5 -332t-275.5 -127q-172 0 -278.5 128t-106.5 337q0 143 57.5 286t188.5 325q108 150 242 293zM563 784q-121 0 -194.5 -97.5t-73.5 -258.5q0 -157 73.5 -254.5
t190.5 -97.5q118 0 191 98t73 256t-72 256t-188 98z" />
    <glyph glyph-name="sevenoldstyle" unicode="&#xf737;" horiz-adv-x="921" 
d="M88 969h786v-103l-659 -1249h-137l696 1249h-686v103z" />
    <glyph glyph-name="eightoldstyle" unicode="&#xf738;" horiz-adv-x="944" 
d="M307 709q-174 103 -174 299q0 151 97.5 253.5t242.5 102.5q143 0 241.5 -103t98.5 -253q0 -195 -176 -299q209 -107 209 -349q0 -167 -105 -275t-268 -108t-269 108t-106 275q0 117 54 206.5t155 142.5zM475 1270q-103 0 -164 -70.5t-61 -189.5q0 -117 61.5 -188.5
t161.5 -71.5t161.5 72t61.5 188t-61.5 188t-159.5 72zM475 657q-116 0 -188 -82.5t-72 -214.5q0 -129 71 -208.5t187 -79.5t186 79t70 211q0 129 -71 212t-183 83z" />
    <glyph glyph-name="nineoldstyle" unicode="&#xf739;" horiz-adv-x="978" 
d="M371 -395h-127q130 140 208.5 247.5t172.5 272.5q-75 -41 -154 -41q-157 0 -261 127.5t-104 318.5q0 204 106.5 331.5t276.5 127.5q174 0 278.5 -126.5t104.5 -336.5q0 -150 -57.5 -292.5t-193.5 -329.5q-111 -155 -250 -299zM494 891q-120 0 -194.5 -98t-74.5 -256
q0 -157 73.5 -256t190.5 -99q118 0 191.5 98.5t73.5 256.5q0 157 -72.5 255.5t-187.5 98.5z" />
    <glyph glyph-name="one.fitted" horiz-adv-x="587" 
d="M0 1067v82q124 4 187 49t85 145h78v-1343h-108v1067h-242z" />
    <glyph glyph-name="two.fitted" horiz-adv-x="956" 
d="M227 942h-110q3 198 100.5 303t280.5 105q156 0 253 -87t97 -227q0 -89 -37.5 -165t-169.5 -250q-285 -383 -385 -521h614v-100h-755v88q48 61 123 166q6 8 32 43t81 109.5t112 152.5q186 254 217 305q49 88 49 170q0 95 -65.5 154t-171.5 59q-80 0 -140.5 -37
t-91.5 -104q-27 -59 -33 -164z" />
    <glyph glyph-name="three.fitted" horiz-adv-x="1036" 
d="M256 995h-104q9 169 104.5 262t261.5 93q160 0 258 -89.5t98 -234.5q0 -207 -196 -297q126 -46 186 -128.5t60 -211.5q0 -184 -112 -294.5t-300 -110.5q-186 0 -293.5 98t-107.5 268v23h104q3 -141 77 -214t212 -73q141 0 221 78.5t80 216.5q0 135 -81.5 211t-227.5 76
q-21 0 -56 -4v106l56 -2q120 0 190 67.5t70 182.5q0 106 -65 167.5t-179 61.5t-175.5 -61.5t-80.5 -190.5z" />
    <glyph glyph-name="four.fitted" horiz-adv-x="962" 
d="M686 442h229v-104h-227v-350h-115v350h-544v86l551 919h106v-901zM575 442l7 736l-439 -736h432z" />
    <glyph glyph-name="five.fitted" horiz-adv-x="1017" 
d="M246 1331h592l-19 -100h-475l-59 -434q90 106 239 106q172 0 276.5 -119.5t104.5 -318.5q0 -165 -78 -293q-114 -188 -335 -188q-154 0 -250.5 86t-106.5 233h107q19 -108 82 -164.5t165 -56.5q134 0 216.5 105.5t82.5 275.5q0 152 -73.5 244t-196.5 92
q-88 0 -146.5 -37.5t-101.5 -120.5l-106 10z" />
    <glyph glyph-name="six.fitted" horiz-adv-x="989" 
d="M612 1366h127q-239 -258 -395 -524q82 47 170 47q157 0 260 -127t103 -320q0 -206 -104.5 -332t-276.5 -126q-170 0 -277.5 127t-107.5 329q0 398 501 926zM498 791q-122 0 -195.5 -98t-73.5 -259q0 -157 73.5 -254.5t191.5 -97.5q119 0 191.5 97t72.5 257
q0 157 -72.5 256t-187.5 99z" />
    <glyph glyph-name="seven.fitted" horiz-adv-x="770" 
d="M61 1331h805v-100l-657 -1231h-129l659 1227h-678v104z" />
    <glyph glyph-name="eight.fitted" horiz-adv-x="997" 
d="M313 700q-166 81 -166 293q0 151 101.5 254t249.5 103t248 -102.5t100 -254.5q0 -213 -164 -293q203 -108 203 -342q0 -166 -107.5 -270t-279.5 -104t-279.5 103.5t-107.5 270.5q0 236 202 342zM500 1251q-105 0 -169.5 -70.5t-64.5 -185.5q0 -110 65.5 -182t166.5 -72
t165 71t64 185q0 113 -63 183.5t-164 70.5zM502 647q-126 0 -199.5 -76t-73.5 -206q0 -129 73.5 -206t195.5 -77q121 0 194.5 77.5t73.5 205.5q0 126 -73 204t-191 78z" />
    <glyph glyph-name="nine.fitted" horiz-adv-x="978" 
d="M365 -35h-127q246 270 395 524q-84 -47 -170 -47q-155 0 -259 127.5t-104 319.5q0 205 106 333t275 128q170 0 277.5 -127.5t107.5 -329.5q0 -201 -119.5 -422.5t-381.5 -505.5zM483 1251q-117 0 -190.5 -99t-73.5 -257q0 -155 73.5 -254.5t188.5 -99.5q120 0 193.5 97.5
t73.5 258.5q0 157 -74 255.5t-191 98.5z" />
    <glyph glyph-name="zero.fitted" horiz-adv-x="1064" 
d="M537 1350q192 0 303.5 -184t111.5 -500q0 -350 -143 -549q-48 -63 -119.5 -98t-157.5 -35t-158 35t-120 98q-143 199 -143 545q0 324 112.5 506t313.5 182zM537 1251q-149 0 -228.5 -151.5t-79.5 -437.5q0 -278 88 -449q34 -63 89.5 -97t125.5 -34q143 0 213 131
q89 176 89 453q0 276 -78.5 430.5t-218.5 154.5z" />
    <glyph glyph-name="sterling.fitted" horiz-adv-x="974" 
d="M410 743h303v-100h-320q-38 -223 -69.5 -343.5t-73.5 -207.5q95 14 194 14h74q57 -2 109 -2q114 0 155.5 34t46.5 130h107q0 -132 -76 -205q-43 -40 -95.5 -51.5t-193.5 -11.5h-471q89 154 176 643h-206v100h225q37 248 74 402q32 129 94.5 186.5t169.5 57.5
q72 0 126 -29.5t79 -81.5q23 -45 26 -145h-106q-7 89 -34 121t-93 32q-71 0 -103.5 -41.5t-58.5 -167.5q-24 -114 -59 -334z" />
    <glyph glyph-name="dollar.fitted" horiz-adv-x="991" 
d="M532 1282v-522q177 -67 242 -113q156 -105 156 -293q0 -160 -108.5 -262.5t-289.5 -114.5v-137h-67v137q-186 9 -291 111.5t-111 280.5h115q8 -128 84.5 -205.5t202.5 -81.5v575q-12 4 -84 33q-87 34 -137 64.5t-82 70.5q-66 85 -66 201q0 151 101 249.5t268 110.5v127
h67v-124q151 -7 248 -90t103 -209h-123q-6 79 -68.5 131.5t-159.5 60.5zM465 786v496q-117 -12 -184.5 -78.5t-67.5 -167.5q0 -126 117 -190q26 -17 135 -60zM532 631v-549q128 12 202.5 81.5t74.5 176.5q0 65 -29.5 121.5t-81.5 91.5q-38 29 -166 78z" />
    <glyph glyph-name="cent.fitted" horiz-adv-x="933" 
d="M510 1098v-830q95 4 153.5 72.5t67.5 185.5h111q-5 -151 -99 -252t-233 -102v-217h-68v219q-155 23 -243 156t-88 344t87 347t244 171v207h68v-203q143 -3 230.5 -96.5t88.5 -245.5h-108q-9 238 -211 244zM442 274v818q-103 -32 -163 -144t-60 -270q0 -109 32.5 -201.5
t90.5 -150.5q39 -37 100 -52z" />
    <glyph glyph-name="florin.fitted" horiz-adv-x="761" 
d="M545 967h205v-101h-222l-135 -762q-23 -135 -40 -197t-42 -102q-63 -102 -200 -102q-52 0 -99.5 13t-115.5 46l22 111q95 -68 182 -68q53 0 84.5 24t51.5 79q17 55 45 217l131 741h-191v101h209l27 155q33 180 82 246q70 94 194 94q75 0 154 -32l-21 -107q-87 41 -139 41
q-82 0 -119 -104q-21 -54 -41 -168z" />
    <glyph glyph-name="one.numerator" horiz-adv-x="514" 
d="M123 1208v49q62 3 87 19t34 59h51v-551h-66v424h-106z" />
    <glyph glyph-name="two.numerator" horiz-adv-x="514" 
d="M160 1159h-66q0 89 44.5 134.5t129.5 45.5q73 0 118.5 -37.5t45.5 -97.5q0 -37 -16.5 -67.5t-75.5 -102.5q-41 -50 -80 -97t-57 -69t-21 -26h260v-58h-350v47q7 9 27 33.5t60.5 74t88.5 108.5q64 79 79 104t15 53q0 34 -26 55t-70 21q-52 0 -77.5 -29t-28.5 -92z" />
    <glyph glyph-name="three.numerator" horiz-adv-x="514" 
d="M150 1180h-66q4 78 49 118.5t123 40.5q73 0 119.5 -38.5t46.5 -100.5q0 -74 -72 -117q94 -39 94 -135q0 -77 -52 -123.5t-138 -46.5q-84 0 -135 41t-51 109v22h63q1 -60 29 -86t90 -26q60 0 92.5 27.5t32.5 78.5q0 33 -19.5 60t-50.5 38q-6 3 -61 9q-7 0 -11 -2l-20 -2
v63q12 -2 33 -2q51 0 78.5 23.5t27.5 66.5q0 38 -26.5 60t-71.5 22q-50 0 -74 -23t-30 -77z" />
    <glyph glyph-name="four.numerator" horiz-adv-x="514" 
d="M356 979h103v-59h-101v-140h-67v140h-240v45l246 370h59v-356zM293 979v252l-166 -252h166z" />
    <glyph glyph-name="five.numerator" horiz-adv-x="514" 
d="M129 1331h279l-13 -57h-209l-20 -139q46 26 92 26q80 0 129 -50t49 -132q0 -86 -54.5 -143.5t-137.5 -57.5q-72 0 -117 39.5t-49 106.5h63q15 -88 103 -88q54 0 88.5 39.5t34.5 101.5q0 58 -30 91.5t-81 33.5q-38 0 -60.5 -14t-43.5 -48l-62 4z" />
    <glyph glyph-name="six.numerator" horiz-adv-x="514" 
d="M305 1346h82q-55 -53 -87.5 -90.5t-84.5 -106.5q33 8 51 8q72 0 120 -53t48 -133q0 -86 -49 -139.5t-127 -53.5t-128 54t-50 137q0 164 225 377zM258 1100q-48 0 -78 -36.5t-30 -96.5q0 -58 30.5 -94.5t77.5 -36.5t77 36.5t30 96.5q0 58 -30 94.5t-77 36.5z" />
    <glyph glyph-name="seven.numerator" horiz-adv-x="514" 
d="M72 1331h372v-51l-294 -496h-76l291 488h-293v59z" />
    <glyph glyph-name="eight.numerator" horiz-adv-x="514" 
d="M156 1073q-62 42 -62 115q0 64 47 107.5t115 43.5q69 0 116.5 -44t47.5 -107q0 -73 -62 -115q78 -49 78 -137q0 -68 -51 -113t-129 -45t-128 45t-50 115q0 83 78 135zM258 1282q-43 0 -68.5 -25.5t-25.5 -66.5q0 -40 26 -66t66 -26q41 0 67.5 26t26.5 66t-26 66t-66 26z
M258 1042q-51 0 -81 -27.5t-30 -74.5t29.5 -75.5t79.5 -28.5t80.5 28.5t30.5 75.5q0 46 -30 74t-79 28z" />
    <glyph glyph-name="nine.numerator" horiz-adv-x="514" 
d="M209 772h-82q58 57 91 93.5t81 101.5q-35 -6 -51 -6q-72 0 -120 52.5t-48 133.5q0 84 49.5 138t126.5 54q78 0 128 -53.5t50 -138.5q0 -166 -225 -375zM258 1282q-47 0 -77.5 -37.5t-30.5 -95.5t29.5 -94.5t76.5 -36.5q51 0 80 35.5t29 95.5t-30 96.5t-77 36.5z" />
    <glyph glyph-name="zero.numerator" horiz-adv-x="514" 
d="M260 1339q88 0 140.5 -76.5t52.5 -203.5q0 -129 -53 -205t-142 -76q-90 0 -142.5 75.5t-52.5 203.5q0 132 52.5 207t144.5 75zM260 1282q-61 0 -94 -58t-33 -167q0 -105 32.5 -163t92.5 -58q58 0 91.5 59.5t33.5 163.5q0 103 -33 163t-90 60z" />
    <glyph glyph-name="one.denominator" horiz-adv-x="514" 
d="M123 424v49q62 3 87 19t34 59h51v-551h-66v424h-106z" />
    <glyph glyph-name="two.denominator" horiz-adv-x="514" 
d="M160 375h-66q0 178 174 178q75 0 119.5 -36t44.5 -97q0 -37 -16.5 -67.5t-75.5 -102.5q-144 -176 -158 -193h260v-57h-350v47q7 9 27.5 33.5t60.5 73.5t88 108q63 76 78.5 102.5t15.5 55.5q0 35 -25 54.5t-71 19.5q-54 0 -78.5 -27.5t-27.5 -91.5z" />
    <glyph glyph-name="three.denominator" horiz-adv-x="514" 
d="M150 395h-66q4 78 48 118t124 40q75 0 120.5 -37.5t45.5 -99.5q0 -74 -72 -117q94 -39 94 -135q0 -77 -52 -123.5t-138 -46.5q-85 0 -135.5 40.5t-50.5 108.5v23h63q1 -60 29 -86.5t90 -26.5q60 0 92.5 28t32.5 79q0 33 -19.5 60t-50.5 38q-4 2 -61 8q-7 0 -11 -2l-20 -2
v64q12 -2 33 -2q51 0 78.5 23.5t27.5 66.5q0 37 -27 59.5t-71 22.5q-47 0 -72.5 -24.5t-31.5 -76.5z" />
    <glyph glyph-name="four.denominator" horiz-adv-x="514" 
d="M356 195h103v-60h-101v-139h-67v139h-240v45l246 371h59v-356zM293 195v251l-166 -251h166z" />
    <glyph glyph-name="five.denominator" horiz-adv-x="514" 
d="M129 547h279l-13 -58h-209l-20 -141q44 29 92 29q79 0 128.5 -51t49.5 -133q0 -87 -54 -143t-138 -56q-74 0 -118 38t-48 105h63q7 -45 32 -65.5t71 -20.5q56 0 89.5 39t33.5 103q0 55 -30.5 89.5t-80.5 34.5q-69 0 -104 -63l-62 4z" />
    <glyph glyph-name="six.denominator" horiz-adv-x="514" 
d="M305 559h82q-55 -53 -87.5 -90.5t-84.5 -106.5q38 9 51 9q72 0 120 -53.5t48 -133.5q0 -86 -48 -138t-128 -52q-79 0 -128.5 52.5t-49.5 135.5q0 164 225 377zM258 313q-49 0 -78.5 -36.5t-29.5 -96.5q0 -59 29.5 -94t78.5 -35t78 35.5t29 95.5q0 58 -30 94.5t-77 36.5z
" />
    <glyph glyph-name="seven.denominator" horiz-adv-x="514" 
d="M72 547h372v-51l-294 -496h-76l291 487h-293v60z" />
    <glyph glyph-name="eight.denominator" horiz-adv-x="514" 
d="M156 287q-62 42 -62 114q0 65 46.5 108.5t115.5 43.5q70 0 117 -43.5t47 -108.5q0 -72 -62 -114q78 -49 78 -135q0 -70 -50 -114t-130 -44q-79 0 -128.5 43.5t-49.5 114.5q0 86 78 135zM258 496q-43 0 -68.5 -25t-25.5 -68q0 -40 26 -66t66 -26t67 27t27 65
q0 41 -25.5 67t-66.5 26zM258 256q-52 0 -81.5 -27.5t-29.5 -74.5t29 -75t80 -28t81 28t30 75q0 46 -30 74t-79 28z" />
    <glyph glyph-name="nine.denominator" horiz-adv-x="514" 
d="M209 -14h-82q67 67 97 101t75 95q-35 -6 -51 -6q-72 0 -120 52.5t-48 133.5q0 85 49 138t127 53q79 0 128.5 -53t49.5 -138t-48.5 -166t-176.5 -210zM258 496q-49 0 -78.5 -36t-29.5 -95t29.5 -95.5t76.5 -36.5q51 0 80 36t29 96q0 59 -29.5 95t-77.5 36z" />
    <glyph glyph-name="zero.denominator" horiz-adv-x="514" 
d="M260 553q88 0 140.5 -76t52.5 -205t-52 -203.5t-143 -74.5t-143 74t-52 204q0 132 52.5 206.5t144.5 74.5zM260 496q-62 0 -94.5 -57.5t-32.5 -166.5q0 -106 32.5 -163.5t92.5 -57.5q59 0 86 47q39 67 39 174q0 104 -33 164t-90 60z" />
    <glyph glyph-name="oneone" horiz-adv-x="1654" 
d="M166 1159v64q84 3 122 28t50 86h65v-805h-86v627h-151zM1167 1331h101l-783 -1331h-98zM1116 627v63q84 3 122 28.5t50 86.5h66v-805h-86v627h-152z" />
    <glyph glyph-name="onefifth" horiz-adv-x="1654" 
d="M166 1159v64q84 3 122 28t50 86h65v-805h-86v627h-151zM1167 1331h101l-785 -1331h-96zM1137 799h389l-15 -76h-299l-32 -223q38 27 67.5 37t71.5 10q113 0 180.5 -72.5t67.5 -193.5q0 -129 -75 -210t-194 -81q-103 0 -165 55t-68 150h82q10 -64 48.5 -98t100.5 -34
q81 0 131 60t50 156q0 88 -43.5 139t-118.5 51q-54 0 -89 -21.5t-63 -70.5l-80 6z" />
    <glyph glyph-name="twofifth" horiz-adv-x="1654" 
d="M207 1085h-84q3 256 248 256q103 0 166 -52.5t63 -139.5q0 -55 -23.5 -100t-107.5 -150q-203 -251 -233 -291h378v-76h-493v64q29 35 80 98q8 12 84 107q165 209 180 231q45 61 45 115t-38.5 85.5t-104.5 31.5q-78 0 -116 -42.5t-44 -136.5zM1169 1331h99l-783 -1331h-98
zM1137 799h391l-15 -76h-301l-30 -223q38 28 67 37.5t72 9.5q111 0 179.5 -73t68.5 -193q0 -126 -76.5 -208.5t-194.5 -82.5q-101 0 -163 55t-70 150h84q21 -132 149 -132q78 0 129.5 61t51.5 155q0 87 -44 138.5t-118 51.5q-55 0 -90.5 -21t-63.5 -71l-80 6z" />
    <glyph glyph-name="threefifth" horiz-adv-x="1654" 
d="M193 1118h-82q12 223 239 223q106 0 169 -53t63 -143q0 -117 -109 -176q141 -59 141 -201q0 -109 -74 -177.5t-194 -68.5q-129 0 -195.5 63t-64.5 183h80q3 -170 176 -170q83 0 131.5 44.5t48.5 121.5t-47.5 118.5t-136.5 41.5q-25 0 -45 -2v79l43 -2q72 0 112.5 37.5
t40.5 102.5q0 61 -37 94t-106 33q-70 0 -107 -35.5t-46 -112.5zM1167 1331h101l-783 -1331h-98zM1137 799h389l-15 -76h-299l-32 -223q38 27 67.5 37t71.5 10q113 0 181.5 -73t68.5 -193q0 -126 -77 -208.5t-194 -82.5q-103 0 -165 55t-68 150h82q10 -64 48.5 -98t100.5 -34
q79 0 131 61t52 155q0 86 -45 138t-119 52q-54 0 -89 -21.5t-63 -70.5l-80 6z" />
    <glyph glyph-name="fourfifth" horiz-adv-x="1654" 
d="M494 809h145v-78h-143v-205h-88v205h-345v62l353 544h78v-528zM410 809l2 395l-252 -395h250zM1169 1331h99l-783 -1331h-98zM1137 799h391l-15 -76h-301l-32 -223q40 28 69 37.5t72 9.5q111 0 179.5 -73t68.5 -193q0 -126 -77 -208.5t-194 -82.5q-101 0 -164 55t-69 150
h82q25 -132 149 -132q79 0 131 61t52 155q0 86 -45 138t-119 52q-54 0 -89 -21.5t-63 -70.5l-80 6z" />
    <glyph glyph-name="onesixth" horiz-adv-x="1654" 
d="M166 1159v64q84 3 122 28t50 86h65v-805h-86v627h-151zM1167 1331h101l-785 -1331h-96zM1374 819h103q-141 -138 -246 -297q52 17 84 17q102 0 169.5 -77t67.5 -194q0 -123 -69 -200.5t-178 -77.5q-112 0 -182 76.5t-70 199.5q0 238 321 553zM1305 465q-72 0 -117 -56
t-45 -145q0 -88 45.5 -144.5t114.5 -56.5t114 57.5t45 143.5t-45 143.5t-112 57.5z" />
    <glyph glyph-name="fivesixth" horiz-adv-x="1654" 
d="M172 1331h389l-14 -76h-299l-33 -223q68 47 139 47q112 0 180 -73t68 -193q0 -129 -74.5 -210t-193.5 -81q-102 0 -165 55t-69 150h82q10 -64 49 -97.5t101 -33.5q80 0 130 60t50 155q0 87 -44 138.5t-118 51.5q-54 0 -88.5 -21t-62.5 -71l-80 6zM1167 1331h101
l-785 -1331h-98zM1372 819h105q-141 -138 -246 -297q52 17 82 17q104 0 170.5 -76t66.5 -195q0 -124 -68.5 -201t-178.5 -77q-111 0 -180.5 76.5t-69.5 199.5q0 237 319 553zM1303 465q-71 0 -115.5 -56t-44.5 -145q0 -88 44 -144.5t113 -56.5q71 0 115.5 56t44.5 145
q0 88 -44 144.5t-113 56.5z" />
    <glyph glyph-name="Dotaccent" horiz-adv-x="1024" 
d="M514 1743q50 0 82.5 -32.5t32.5 -82.5t-34 -84.5t-83 -34.5q-48 0 -82.5 35t-34.5 84q0 50 33.5 82.5t85.5 32.5z" />
    <glyph glyph-name="Ring" horiz-adv-x="1024" 
d="M514 1829q73 0 127.5 -55t54.5 -129q0 -75 -54.5 -130t-129.5 -55t-129.5 55t-54.5 130q0 76 54.5 130t131.5 54zM512 1747q-41 0 -71.5 -30.5t-30.5 -71.5t30.5 -72t71.5 -31q40 0 71 31.5t31 71.5t-31 71t-71 31z" />
    <glyph glyph-name="Circumflex" horiz-adv-x="1024" 
d="M176 1497l260 262h152l262 -262h-111l-227 189l-227 -189h-109z" />
    <glyph glyph-name="Breve" horiz-adv-x="1024" 
d="M242 1761h75q19 -75 71.5 -118.5t125.5 -43.5t123.5 42.5t69.5 119.5h77q-14 -125 -85 -195.5t-183 -70.5q-114 0 -187 71.5t-87 194.5z" />
    <glyph glyph-name="Tilde" horiz-adv-x="1024" 
d="M262 1513l-78 35q23 100 67 146.5t116 46.5q63 0 155 -60q62 -42 87 -53.5t53 -11.5q83 0 98 131l78 -35q-8 -65 -29 -104q-22 -43 -64 -69t-88 -26q-37 0 -74.5 16t-101.5 60q-71 47 -114 47q-40 0 -65 -29.5t-40 -93.5z" />
    <glyph glyph-name="Cedilla" horiz-adv-x="1024" 
d="M475 0h88l-61 -143q95 -9 140.5 -48.5t45.5 -111.5q0 -78 -55 -123t-152 -45q-69 0 -145 25v77q63 -18 102 -18q55 0 88 26.5t33 69.5q0 47 -38 68t-130 24z" />
    <glyph glyph-name="Ogonek" horiz-adv-x="1024" 
d="M762 0h143q-118 -49 -163.5 -88t-45.5 -92q0 -45 38.5 -76.5t90.5 -28.5q41 3 82 15v-88q-68 -23 -121 -23q-92 0 -152.5 51t-60.5 129q0 69 49 121t140 80z" />
    <glyph glyph-name="commaaccent.cap" horiz-adv-x="1024" 
d="M483 -487h-88q119 109 131 194q-6 -2 -16 -2q-35 0 -60.5 26.5t-25.5 63.5q0 40 29 68t69 28q46 0 75.5 -33t29.5 -87q0 -64 -33.5 -123t-110.5 -135z" />
    </font>
</defs>
</svg>
